SplineFontDB: 3.2
FontName: NotesStyleNbr-Brand
FullName: Notes Style Nbr Brand
FamilyName: Notes Style Nbr Brand
Weight: Medium
Copyright: Copyright 2005-2006 by Ole Schaefer, published by primetype GmbH, primetype.com for the primetype library. All Rights Reserved. Extraversion Nuerburgring 08.2006
Version: 1.001; ttfautohint (v1.5.65-e2d9)
ItalicAngle: 0
UnderlinePosition: -511
UnderlineWidth: 102
Ascent: 1700
Descent: 348
InvalidEm: 0
sfntRevision: 0x00010042
LayerCount: 2
Layer: 0 1 "Back" 1
Layer: 1 1 "Fore" 0
XUID: [1021 40 1855887097 735]
StyleMap: 0x0000
FSType: 0
OS2Version: 3
OS2_WeightWidthSlopeOnly: 0
OS2_UseTypoMetrics: 0
CreationTime: 1156868726
ModificationTime: 1697274400
PfmFamily: 17
TTFWeight: 500
TTFWidth: 5
LineGap: 410
VLineGap: 0
Panose: 2 0 6 6 4 0 0 2 0 4
OS2TypoAscent: 1700
OS2TypoAOffset: 0
OS2TypoDescent: -348
OS2TypoDOffset: 0
OS2TypoLinegap: 410
OS2WinAscent: 1638
OS2WinAOffset: 0
OS2WinDescent: 410
OS2WinDOffset: 0
HheadAscent: 1638
HheadAOffset: 0
HheadDescent: -410
HheadDOffset: 0
OS2SubXSize: 1434
OS2SubYSize: 1331
OS2SubXOff: 0
OS2SubYOff: 287
OS2SupXSize: 1434
OS2SupYSize: 1331
OS2SupXOff: 0
OS2SupYOff: 977
OS2StrikeYSize: 102
OS2StrikeYPos: 512
OS2CapHeight: 550
OS2XHeight: 460
OS2Vendor: 'PTL '
OS2CodePages: 20000001.00000000
OS2UnicodeRanges: 8000002f.00000042.00000000.00000000
Lookup: 4 0 1 "'liga' Standard Ligatures lookup 0" { "'liga' Standard Ligatures lookup 0 subtable"  } ['liga' ('DFLT' <'dflt' > ) ]
Lookup: 258 0 0 "'kern' Horizontal Kerning in Latin lookup 0" { "'kern' Horizontal Kerning in Latin lookup 0 subtable"  } ['kern' ('DFLT' <'dflt' > 'latn' <'dflt' > ) ]
DEI: 91125
ShortTable: maxp 16
  1
  0
  229
  117
  7
  0
  0
  2
  0
  1
  1
  0
  64
  0
  0
  0
EndShort

StartChar: .notdef
Encoding: 65536 -1 0
Width: 1075
GlyphClass: 1
Flags: W
LayerCount: 2
Fore
SplineSet
123 0 m 1,0,-1
 123 1126 l 1,1,-1
 952 1126 l 1,2,-1
 952 0 l 1,3,-1
 123 0 l 1,0,-1
369 246 m 1,4,-1
 707 246 l 1,5,-1
 707 881 l 1,6,-1
 369 881 l 1,7,-1
 369 246 l 1,4,-1
EndSplineSet
Validated: 1
EndChar

StartChar: exclam
Encoding: 33 33 5
Width: 522
GlyphClass: 2
Flags: W
LayerCount: 2
Fore
SplineSet
750 1311 m 1,0,-1
 512 420 l 1,1,-1
 236 420 l 1,2,-1
 434 1163 l 2,3,4
 456 1245 456 1245 497 1278 c 128,-1,5
 538 1311 538 1311 616 1311 c 2,6,-1
 750 1311 l 1,0,-1
489 297 m 1,7,-1
 410 0 l 1,8,-1
 113 0 l 1,9,-1
 193 297 l 1,10,-1
 489 297 l 1,7,-1
EndSplineSet
Validated: 1
EndChar

StartChar: quotedbl
Encoding: 34 34 6
Width: 880
GlyphClass: 2
Flags: W
LayerCount: 2
Fore
SplineSet
1128 1311 m 1,0,-1
 973 727 l 1,1,-1
 696 727 l 1,2,-1
 852 1311 l 1,3,-1
 1128 1311 l 1,0,-1
729 1311 m 1,4,-1
 573 727 l 1,5,-1
 297 727 l 1,6,-1
 453 1311 l 1,7,-1
 729 1311 l 1,4,-1
EndSplineSet
Validated: 1
EndChar

StartChar: numbersign
Encoding: 35 35 7
Width: 1372
GlyphClass: 2
Flags: W
LayerCount: 2
Fore
SplineSet
1554 1065 m 1,0,-1
 1493 829 l 1,1,-1
 1339 829 l 1,2,-1
 1245 481 l 1,3,-1
 1399 481 l 1,4,-1
 1335 246 l 1,5,-1
 1182 246 l 1,6,-1
 1116 0 l 1,7,-1
 840 0 l 1,8,-1
 905 246 l 1,9,-1
 598 246 l 1,10,-1
 532 0 l 1,11,-1
 256 0 l 1,12,-1
 322 246 l 1,13,-1
 168 246 l 1,14,-1
 231 481 l 1,15,-1
 385 481 l 1,16,-1
 479 829 l 1,17,-1
 326 829 l 1,18,-1
 387 1065 l 1,19,-1
 541 1065 l 1,20,-1
 606 1311 l 1,21,-1
 883 1311 l 1,22,-1
 817 1065 l 1,23,-1
 1124 1065 l 1,24,-1
 1190 1311 l 1,25,-1
 1466 1311 l 1,26,-1
 1401 1065 l 1,27,-1
 1554 1065 l 1,0,-1
1063 829 m 1,28,-1
 756 829 l 1,29,-1
 662 481 l 1,30,-1
 969 481 l 1,31,-1
 1063 829 l 1,28,-1
EndSplineSet
Validated: 1
EndChar

StartChar: dollar
Encoding: 36 36 8
Width: 1075
GlyphClass: 2
Flags: W
LayerCount: 2
Fore
SplineSet
1212 1126 m 1,0,-1
 1151 891 l 1,1,-1
 719 891 l 2,2,3
 620 891 620 891 596 811 c 2,4,-1
 590 791 l 2,5,6
 588 781 588 781 588 766 c 0,7,8
 588 749 588 749 600 737 c 0,9,10
 611 726 611 726 626 721 c 0,11,12
 638 717 638 717 670 709 c 2,13,-1
 811 672 l 2,14,15
 1073 605 1073 605 1073 422 c 0,16,17
 1073 371 1073 371 1063 332 c 2,18,-1
 1053 291 l 2,19,20
 1015 145 1015 145 934 80 c 0,21,22
 852 14 852 14 676 2 c 1,23,-1
 610 -246 l 1,24,-1
 334 -246 l 1,25,-1
 399 0 l 1,26,-1
 123 0 l 1,27,-1
 186 236 l 1,28,-1
 647 236 l 2,29,30
 714 236 714 236 740 253 c 0,31,32
 768 272 768 272 780 311 c 2,33,-1
 786 332 l 2,34,35
 791 350 791 350 791 358 c 0,36,37
 791 388 791 388 763 407 c 0,38,39
 741 422 741 422 674 438 c 2,40,-1
 530 473 l 2,41,42
 305 528 305 528 305 713 c 0,43,44
 305 764 305 764 315 803 c 2,45,-1
 324 834 l 2,46,47
 362 978 362 978 453 1044 c 0,48,49
 543 1110 543 1110 700 1122 c 1,50,-1
 768 1372 l 1,51,-1
 1044 1372 l 1,52,-1
 977 1126 l 1,53,-1
 1212 1126 l 1,0,-1
EndSplineSet
Validated: 1
EndChar

StartChar: percent
Encoding: 37 37 9
Width: 2166
GlyphClass: 2
Flags: W
LayerCount: 2
Fore
SplineSet
2179 485 m 0,0,1
 2179 418 2179 418 2165 375 c 2,2,-1
 2150 322 l 1,3,4
 2064 0 2064 0 1706 0 c 2,5,-1
 1690 0 l 2,6,7
 1523 0 1523 0 1434 80 c 0,8,9
 1346 159 1346 159 1346 291 c 0,10,11
 1346 353 1346 353 1360 406 c 2,12,-1
 1374 459 l 2,13,14
 1418 624 1418 624 1527 702 c 0,15,16
 1635 780 1635 780 1817 780 c 2,17,-1
 1833 780 l 2,18,19
 1996 780 1996 780 2088 699 c 0,20,21
 2179 618 2179 618 2179 485 c 0,0,1
1901 1311 m 1,22,-1
 924 0 l 1,23,-1
 616 0 l 1,24,-1
 1593 1311 l 1,25,-1
 1901 1311 l 1,22,-1
1171 1016 m 0,26,27
 1171 948 1171 948 1157 905 c 2,28,-1
 1143 852 l 2,29,30
 1057 530 1057 530 698 530 c 2,31,-1
 682 530 l 2,32,33
 515 530 515 530 426 610 c 0,34,35
 338 689 338 689 338 821 c 0,36,37
 338 883 338 883 352 936 c 2,38,-1
 367 989 l 2,39,40
 412 1156 412 1156 519 1233 c 0,41,42
 627 1311 627 1311 809 1311 c 2,43,-1
 825 1311 l 2,44,45
 988 1311 988 1311 1080 1230 c 0,46,47
 1171 1149 1171 1149 1171 1016 c 0,26,27
1905 469 m 0,48,49
 1905 565 1905 565 1810 565 c 2,50,-1
 1790 565 l 2,51,52
 1680 565 1680 565 1642 424 c 2,53,-1
 1628 369 l 2,54,55
 1620 337 1620 337 1620 309 c 0,56,57
 1620 215 1620 215 1714 215 c 2,58,-1
 1737 215 l 2,59,60
 1844 215 1844 215 1882 356 c 2,61,-1
 1896 412 l 2,62,63
 1905 444 1905 444 1905 469 c 0,48,49
897 999 m 0,64,65
 897 1096 897 1096 803 1096 c 2,66,-1
 782 1096 l 2,67,68
 673 1096 673 1096 635 954 c 2,69,-1
 621 899 l 2,70,71
 612 863 612 863 612 840 c 0,72,73
 612 745 612 745 707 745 c 2,74,-1
 729 745 l 2,75,76
 836 745 836 745 874 887 c 2,77,-1
 889 942 l 2,78,79
 897 971 897 971 897 999 c 0,64,65
EndSplineSet
Validated: 1
EndChar

StartChar: ampersand
Encoding: 38 38 10
Width: 1208
GlyphClass: 2
Flags: W
LayerCount: 2
Fore
SplineSet
1356 707 m 1,0,-1
 1288 451 l 1,1,-1
 1165 451 l 1,2,-1
 1044 0 l 1,3,-1
 502 0 l 2,4,5
 349 0 349 0 270 55 c 0,6,7
 190 111 190 111 190 217 c 0,8,9
 190 252 190 252 205 309 c 2,10,-1
 219 362 l 2,11,12
 248 473 248 473 309 524 c 0,13,14
 371 576 371 576 459 598 c 1,15,16
 360 648 360 648 360 768 c 0,17,18
 360 815 360 815 375 866 c 2,19,-1
 387 911 l 2,20,21
 420 1035 420 1035 524 1091 c 0,22,23
 627 1147 627 1147 819 1147 c 2,24,-1
 1075 1147 l 1,25,-1
 1012 911 l 1,26,-1
 797 911 l 2,27,28
 714 911 714 911 682 892 c 0,29,30
 649 872 649 872 641 831 c 2,31,-1
 635 803 l 2,32,33
 631 782 631 782 631 770 c 0,34,35
 631 707 631 707 731 707 c 2,36,-1
 956 707 l 1,37,-1
 1004 881 l 1,38,-1
 1280 881 l 1,39,-1
 1233 707 l 1,40,-1
 1356 707 l 1,0,-1
889 451 m 1,41,-1
 643 451 l 2,42,43
 574 451 574 451 543 429 c 0,44,45
 513 408 513 408 496 358 c 2,46,-1
 487 332 l 2,47,48
 483 323 483 323 483 301 c 0,49,50
 483 236 483 236 586 236 c 2,51,-1
 831 236 l 1,52,-1
 889 451 l 1,41,-1
EndSplineSet
Validated: 1
EndChar

StartChar: quotesingle
Encoding: 39 39 11
Width: 481
GlyphClass: 2
Flags: W
LayerCount: 2
Fore
SplineSet
729 1311 m 5,0,-1
 573 727 l 5,1,-1
 297 727 l 5,2,-1
 453 1311 l 5,3,-1
 729 1311 l 5,0,-1
EndSplineSet
Validated: 1
EndChar

StartChar: parenleft
Encoding: 40 40 12
Width: 665
GlyphClass: 2
Flags: W
LayerCount: 2
Fore
SplineSet
1073 1597 m 1,0,-1
 1014 1372 l 1,1,-1
 952 1372 l 2,2,3
 850 1372 850 1372 793 1312 c 0,4,5
 735 1251 735 1251 696 1106 c 2,6,-1
 455 205 l 2,7,8
 436 134 436 134 436 92 c 0,9,10
 436 -41 436 -41 594 -41 c 2,11,-1
 635 -41 l 1,12,-1
 573 -266 l 1,13,-1
 532 -266 l 2,14,15
 352 -266 352 -266 255 -185 c 128,-1,16
 158 -104 158 -104 158 55 c 0,17,18
 158 137 158 137 186 246 c 2,19,-1
 434 1167 l 2,20,21
 500 1414 500 1414 611 1505 c 0,22,23
 723 1597 723 1597 954 1597 c 2,24,-1
 1073 1597 l 1,0,-1
EndSplineSet
Validated: 1
EndChar

StartChar: parenright
Encoding: 41 41 13
Width: 665
GlyphClass: 2
Flags: W
LayerCount: 2
Fore
SplineSet
866 1276 m 0,0,1
 866 1194 866 1194 838 1085 c 2,2,-1
 590 164 l 2,3,4
 524 -83 524 -83 413 -174 c 0,5,6
 301 -266 301 -266 70 -266 c 2,7,-1
 -49 -266 l 1,8,-1
 10 -41 l 1,9,-1
 72 -41 l 2,10,11
 174 -41 174 -41 231 19 c 0,12,13
 289 80 289 80 328 225 c 2,14,-1
 569 1126 l 2,15,16
 588 1197 588 1197 588 1239 c 0,17,18
 588 1372 588 1372 430 1372 c 2,19,-1
 389 1372 l 1,20,-1
 451 1597 l 1,21,-1
 492 1597 l 2,22,23
 673 1597 673 1597 769 1517 c 0,24,25
 866 1436 866 1436 866 1276 c 0,0,1
EndSplineSet
Validated: 1
EndChar

StartChar: asterisk
Encoding: 42 42 14
Width: 1097
GlyphClass: 2
Flags: W
LayerCount: 2
Fore
SplineSet
1255 975 m 1,0,-1
 999 813 l 1,1,-1
 1204 592 l 1,2,-1
 1024 424 l 1,3,-1
 811 655 l 1,4,-1
 596 424 l 1,5,-1
 416 592 l 1,6,-1
 621 813 l 1,7,-1
 362 975 l 1,8,-1
 496 1182 l 1,9,-1
 688 1063 l 1,10,-1
 688 1311 l 1,11,-1
 934 1311 l 1,12,-1
 934 1063 l 1,13,-1
 1126 1184 l 1,14,-1
 1255 975 l 1,0,-1
EndSplineSet
Validated: 1
EndChar

StartChar: plus
Encoding: 43 43 15
Width: 1075
GlyphClass: 2
Flags: W
LayerCount: 2
Fore
SplineSet
1165 717 m 1,0,-1
 1100 471 l 1,1,-1
 793 471 l 1,2,-1
 705 143 l 1,3,-1
 449 143 l 1,4,-1
 537 471 l 1,5,-1
 229 471 l 1,6,-1
 295 717 l 1,7,-1
 602 717 l 1,8,-1
 690 1044 l 1,9,-1
 946 1044 l 1,10,-1
 858 717 l 1,11,-1
 1165 717 l 1,0,-1
EndSplineSet
Validated: 1
EndChar

StartChar: comma
Encoding: 44 44 16
Width: 501
GlyphClass: 2
Flags: W
LayerCount: 2
Fore
SplineSet
479 297 m 1,0,-1
 233 -348 l 1,1,-1
 8 -348 l 1,2,-1
 182 297 l 1,3,-1
 479 297 l 1,0,-1
EndSplineSet
Validated: 1
EndChar

StartChar: hyphen
Encoding: 45 45 17
Width: 716
GlyphClass: 2
Flags: W
LayerCount: 2
Fore
SplineSet
791 655 m 1,0,-1
 725 410 l 1,1,-1
 213 410 l 1,2,-1
 279 655 l 1,3,-1
 791 655 l 1,0,-1
EndSplineSet
Validated: 1
EndChar

StartChar: period
Encoding: 46 46 18
Width: 501
GlyphClass: 2
Flags: W
LayerCount: 2
Fore
SplineSet
479 297 m 1,0,-1
 399 0 l 1,1,-1
 102 0 l 1,2,-1
 182 297 l 1,3,-1
 479 297 l 1,0,-1
EndSplineSet
Validated: 1
EndChar

StartChar: slash
Encoding: 47 47 19
Width: 870
GlyphClass: 2
Flags: W
LayerCount: 2
Fore
SplineSet
1139 1311 m 1,0,-1
 379 0 l 1,1,-1
 82 0 l 1,2,-1
 842 1311 l 1,3,-1
 1139 1311 l 1,0,-1
EndSplineSet
Validated: 1
EndChar

StartChar: zero
Encoding: 48 48 20
Width: 1187
GlyphClass: 2
Flags: W
LayerCount: 2
Fore
SplineSet
1282 809 m 0,0,1
 1282 738 1282 738 1257 635 c 2,2,-1
 1208 451 l 2,3,4
 1145 209 1145 209 1010 104 c 0,5,6
 876 0 876 0 655 0 c 2,7,-1
 573 0 l 2,8,9
 400 0 400 0 303 80 c 0,10,11
 207 160 207 160 207 315 c 0,12,13
 207 389 207 389 233 492 c 2,14,-1
 283 676 l 2,15,16
 346 916 346 916 480 1022 c 0,17,18
 612 1126 612 1126 834 1126 c 2,19,-1
 915 1126 l 2,20,21
 1091 1126 1091 1126 1186 1046 c 0,22,23
 1282 965 1282 965 1282 809 c 0,0,1
1004 768 m 0,24,25
 1004 891 1004 891 858 891 c 2,26,-1
 797 891 l 2,27,28
 700 891 700 891 644 839 c 0,29,30
 587 787 587 787 559 676 c 2,31,-1
 500 451 l 2,32,33
 485 402 485 402 485 358 c 0,34,35
 485 236 485 236 631 236 c 2,36,-1
 692 236 l 2,37,38
 789 236 789 236 845 288 c 0,39,40
 902 340 902 340 930 451 c 2,41,-1
 989 676 l 2,42,43
 1004 726 1004 726 1004 768 c 0,24,25
EndSplineSet
Validated: 1
EndChar

StartChar: one
Encoding: 49 49 21
Width: 917
GlyphClass: 2
Flags: W
LayerCount: 2
Fore
SplineSet
932 205 m 1,0,-1
 877 0 l 1,1,-1
 68 0 l 1,2,-1
 123 205 l 1,3,-1
 399 205 l 1,4,-1
 584 891 l 1,5,-1
 272 862 l 1,6,-1
 332 1085 l 1,7,-1
 928 1147 l 1,8,-1
 674 205 l 1,9,-1
 932 205 l 1,0,-1
EndSplineSet
Validated: 1
EndChar

StartChar: two
Encoding: 50 50 22
Width: 1054
GlyphClass: 2
Flags: W
LayerCount: 2
Fore
SplineSet
1180 895 m 0,0,1
 1180 855 1180 855 1163 784 c 2,2,-1
 1145 713 l 2,3,4
 1127 645 1127 645 1085 592 c 0,5,6
 1046 542 1046 542 978 507 c 0,7,8
 921 477 921 477 868 459 c 0,9,10
 833 447 833 447 745 422 c 2,11,-1
 664 399 l 2,12,13
 555 370 555 370 518 342 c 128,-1,14
 481 314 481 314 469 262 c 2,15,-1
 463 236 l 1,16,-1
 1016 236 l 1,17,-1
 952 0 l 1,18,-1
 102 0 l 1,19,-1
 172 260 l 2,20,21
 248 545 248 545 590 633 c 1,22,-1
 698 659 l 2,23,24
 728 666 728 666 791 684 c 0,25,26
 815 691 815 691 846 712 c 0,27,28
 875 732 875 732 881 760 c 2,29,-1
 887 788 l 2,30,31
 891 807 891 807 891 819 c 0,32,33
 891 891 891 891 752 891 c 2,34,-1
 342 891 l 1,35,-1
 403 1126 l 1,36,-1
 797 1126 l 2,37,38
 1180 1126 1180 1126 1180 895 c 0,0,1
EndSplineSet
Validated: 1
EndChar

StartChar: three
Encoding: 51 51 23
Width: 1034
GlyphClass: 2
Flags: W
LayerCount: 2
Fore
SplineSet
1114 877 m 0,0,1
 1114 824 1114 824 1096 756 c 2,2,-1
 1083 711 l 2,3,4
 1032 521 1032 521 862 471 c 1,5,6
 997 420 997 420 997 283 c 0,7,8
 997 242 997 242 985 197 c 2,9,-1
 969 129 l 2,10,11
 942 18 942 18 893 -50 c 0,12,13
 843 -119 843 -119 766 -152 c 0,14,15
 690 -184 690 -184 612 -195 c 0,16,17
 539 -205 539 -205 418 -205 c 2,18,-1
 27 -205 l 1,19,-1
 90 31 l 1,20,-1
 455 31 l 2,21,22
 569 31 569 31 626 63 c 0,23,24
 684 96 684 96 702 172 c 2,25,-1
 711 207 l 2,26,27
 717 235 717 235 717 254 c 0,28,29
 717 309 717 309 672 333 c 0,30,31
 629 356 629 356 535 356 c 2,32,-1
 281 356 l 1,33,-1
 342 592 l 1,34,-1
 555 592 l 2,35,36
 675 592 675 592 733 620 c 0,37,38
 789 647 789 647 811 729 c 2,39,-1
 817 752 l 2,40,41
 825 792 825 792 825 803 c 0,42,43
 825 891 825 891 668 891 c 2,44,-1
 322 891 l 1,45,-1
 383 1126 l 1,46,-1
 723 1126 l 2,47,48
 1114 1126 1114 1126 1114 877 c 0,0,1
EndSplineSet
Validated: 1
EndChar

StartChar: four
Encoding: 52 52 24
Width: 1198
GlyphClass: 2
Flags: W
LayerCount: 2
Fore
SplineSet
1204 256 m 1,0,-1
 1137 0 l 1,1,-1
 973 0 l 1,2,-1
 895 -287 l 1,3,-1
 618 -287 l 1,4,-1
 696 0 l 1,5,-1
 82 0 l 1,6,-1
 150 256 l 1,7,8
 311 427 311 427 398 594 c 0,9,10
 485 759 485 759 547 993 c 2,11,-1
 582 1126 l 1,12,-1
 858 1126 l 1,13,-1
 823 993 l 2,14,15
 744 690 744 690 674 552 c 0,16,17
 601 408 601 408 436 256 c 1,18,-1
 764 256 l 1,19,-1
 897 748 l 1,20,-1
 1174 748 l 1,21,-1
 1040 256 l 1,22,-1
 1204 256 l 1,0,-1
EndSplineSet
Validated: 1
EndChar

StartChar: five
Encoding: 53 53 25
Width: 1062
GlyphClass: 2
Flags: W
LayerCount: 2
Fore
SplineSet
1262 1126 m 1,0,-1
 1200 891 l 1,1,-1
 639 891 l 1,2,-1
 565 623 l 1,3,-1
 713 623 l 2,4,5
 865 623 865 623 953 553 c 0,6,7
 1040 484 1040 484 1040 350 c 0,8,9
 1040 279 1040 279 1020 213 c 2,10,-1
 1006 160 l 2,11,12
 949 -51 949 -51 817 -129 c 0,13,14
 687 -205 687 -205 444 -205 c 2,15,-1
 68 -205 l 1,16,-1
 131 31 l 1,17,-1
 483 31 l 2,18,19
 604 31 604 31 658 73 c 0,20,21
 713 116 713 116 741 211 c 2,22,-1
 750 240 l 2,23,24
 758 269 758 269 758 295 c 0,25,26
 758 387 758 387 629 387 c 2,27,-1
 227 387 l 1,28,-1
 424 1126 l 1,29,-1
 1262 1126 l 1,0,-1
EndSplineSet
Validated: 1
EndChar

StartChar: six
Encoding: 54 54 26
Width: 1126
GlyphClass: 2
Flags: W
LayerCount: 2
Fore
SplineSet
1313 1311 m 1,0,-1
 1251 1075 l 1,1,-1
 913 1075 l 2,2,3
 668 1075 668 1075 606 850 c 2,4,-1
 600 827 l 1,5,-1
 864 827 l 2,6,7
 1014 827 1014 827 1087 757 c 0,8,9
 1161 686 1161 686 1161 563 c 0,10,11
 1161 488 1161 488 1141 422 c 2,12,-1
 1128 377 l 2,13,14
 1072 176 1072 176 952 88 c 0,15,16
 831 0 831 0 614 0 c 2,17,-1
 532 0 l 2,18,19
 374 0 374 0 288 83 c 0,20,21
 203 165 203 165 203 309 c 0,22,23
 203 386 203 386 227 471 c 2,24,-1
 322 819 l 2,25,26
 394 1083 394 1083 548 1196 c 0,27,28
 704 1311 704 1311 944 1311 c 2,29,-1
 1313 1311 l 1,0,-1
762 592 m 2,30,-1
 537 592 l 1,31,-1
 492 426 l 2,32,33
 477 369 477 369 477 340 c 0,34,35
 477 236 477 236 596 236 c 2,36,-1
 657 236 l 2,37,38
 740 236 740 236 783 278 c 0,39,40
 828 321 828 321 856 406 c 2,41,-1
 866 438 l 2,42,43
 877 477 877 477 877 500 c 0,44,45
 877 592 877 592 762 592 c 2,30,-1
EndSplineSet
Validated: 1
EndChar

StartChar: seven
Encoding: 55 55 27
Width: 993
GlyphClass: 2
Flags: W
LayerCount: 2
Fore
SplineSet
1233 1126 m 1,0,-1
 1171 891 l 2,1,2
 1138 764 1138 764 1074 664 c 256,3,4
 1010 564 1010 564 939 496 c 0,5,6
 876 436 876 436 798 366 c 0,7,8
 728 303 728 303 666 216 c 0,9,10
 602 126 602 126 575 25 c 2,11,-1
 512 -205 l 1,12,-1
 236 -205 l 1,13,-1
 303 45 l 2,14,15
 341 185 341 185 408 293 c 0,16,17
 476 402 476 402 547 470 c 0,18,19
 619 539 619 539 688 599 c 0,20,21
 758 660 758 660 815 732 c 128,-1,22
 872 804 872 804 895 891 c 1,23,-1
 301 891 l 1,24,-1
 362 1126 l 1,25,-1
 1233 1126 l 1,0,-1
EndSplineSet
Validated: 1
EndChar

StartChar: eight
Encoding: 56 56 28
Width: 1167
GlyphClass: 2
Flags: W
LayerCount: 2
Fore
SplineSet
1315 1049 m 0,0,1
 1315 1000 1315 1000 1300 950 c 2,2,-1
 1288 905 l 2,3,4
 1260 802 1260 802 1206 751 c 0,5,6
 1151 699 1151 699 1063 670 c 1,7,8
 1178 597 1178 597 1178 461 c 0,9,10
 1178 409 1178 409 1163 358 c 2,11,-1
 1155 328 l 2,12,13
 1103 134 1103 134 974 67 c 128,-1,14
 845 0 845 0 629 0 c 2,15,-1
 580 0 l 2,16,17
 406 0 406 0 297 68 c 128,-1,18
 188 136 188 136 188 274 c 0,19,20
 188 330 188 330 205 389 c 2,21,-1
 215 426 l 2,22,23
 245 538 245 538 305 595 c 0,24,25
 364 651 364 651 469 690 c 1,26,27
 367 758 367 758 367 877 c 0,28,29
 367 923 367 923 381 969 c 2,30,-1
 393 1010 l 2,31,32
 444 1184 444 1184 565 1247 c 0,33,34
 688 1311 688 1311 889 1311 c 2,35,-1
 938 1311 l 2,36,37
 1103 1311 1103 1311 1210 1244 c 0,38,39
 1315 1178 1315 1178 1315 1049 c 0,0,1
1026 979 m 0,40,41
 1026 1075 1026 1075 897 1075 c 2,42,-1
 848 1075 l 2,43,44
 690 1075 690 1075 655 956 c 2,45,-1
 647 928 l 2,46,47
 641 910 641 910 641 891 c 0,48,49
 641 793 641 793 801 793 c 0,50,51
 894 793 894 793 943 818 c 0,52,53
 994 844 994 844 1012 905 c 2,54,-1
 1020 934 l 2,55,56
 1026 958 1026 958 1026 979 c 0,40,41
903 444 m 0,57,58
 903 501 903 501 859 536 c 0,59,60
 817 569 817 569 731 569 c 0,61,62
 530 569 530 569 492 422 c 2,63,-1
 485 397 l 2,64,65
 479 370 479 370 479 346 c 0,66,67
 479 236 479 236 625 236 c 2,68,-1
 670 236 l 2,69,70
 764 236 764 236 816 265 c 0,71,72
 870 295 870 295 891 375 c 2,73,-1
 897 399 l 2,74,75
 903 423 903 423 903 444 c 0,57,58
EndSplineSet
Validated: 1
EndChar

StartChar: nine
Encoding: 57 57 29
Width: 1126
GlyphClass: 2
Flags: W
LayerCount: 2
Fore
SplineSet
1223 803 m 0,0,1
 1223 732 1223 732 1202 655 c 2,2,-1
 1104 287 l 2,3,4
 1035 24 1035 24 886 -90 c 0,5,6
 736 -205 736 -205 498 -205 c 2,7,-1
 150 -205 l 1,8,-1
 213 31 l 1,9,-1
 510 31 l 2,10,11
 758 31 758 31 819 266 c 2,12,-1
 827 299 l 1,13,-1
 584 299 l 2,14,15
 430 299 430 299 352 377 c 128,-1,16
 274 455 274 455 274 586 c 0,17,18
 274 653 274 653 291 715 c 2,19,-1
 301 756 l 2,20,21
 351 955 351 955 472 1040 c 0,22,23
 594 1126 594 1126 813 1126 c 2,24,-1
 874 1126 l 2,25,26
 1041 1126 1041 1126 1132 1038 c 128,-1,27
 1223 950 1223 950 1223 803 c 0,0,1
555 635 m 0,28,29
 555 535 555 535 686 535 c 2,30,-1
 891 535 l 1,31,-1
 938 711 l 2,32,33
 950 755 950 755 950 788 c 0,34,35
 950 891 950 891 834 891 c 2,36,-1
 772 891 l 2,37,38
 688 891 688 891 641 849 c 0,39,40
 593 806 593 806 571 721 c 2,41,-1
 563 688 l 2,42,43
 555 645 555 645 555 635 c 0,28,29
EndSplineSet
Validated: 1
EndChar

StartChar: colon
Encoding: 58 58 30
Width: 501
GlyphClass: 2
Flags: W
LayerCount: 2
Fore
SplineSet
651 942 m 1,0,-1
 571 645 l 1,1,-1
 274 645 l 1,2,-1
 313 788 l 2,3,4
 335 869 335 869 380 906 c 0,5,6
 424 942 424 942 508 942 c 2,7,-1
 651 942 l 1,0,-1
479 297 m 1,8,-1
 440 154 l 2,9,10
 418 72 418 72 374 36 c 128,-1,11
 330 0 330 0 246 0 c 2,12,-1
 102 0 l 1,13,-1
 182 297 l 1,14,-1
 479 297 l 1,8,-1
EndSplineSet
Validated: 1
EndChar

StartChar: semicolon
Encoding: 59 59 31
Width: 501
GlyphClass: 2
Flags: W
LayerCount: 2
Fore
SplineSet
651 942 m 1,0,-1
 571 645 l 1,1,-1
 274 645 l 1,2,-1
 313 788 l 2,3,4
 335 869 335 869 380 906 c 0,5,6
 424 942 424 942 508 942 c 2,7,-1
 651 942 l 1,0,-1
479 297 m 1,8,-1
 233 -348 l 1,9,-1
 8 -348 l 1,10,-1
 182 297 l 1,11,-1
 479 297 l 1,8,-1
EndSplineSet
Validated: 1
EndChar

StartChar: less
Encoding: 60 60 32
Width: 1075
GlyphClass: 2
Flags: W
LayerCount: 2
Fore
SplineSet
1270 1106 m 1,0,-1
 1192 809 l 1,1,-1
 559 573 l 1,2,-1
 1065 338 l 1,3,-1
 995 82 l 1,4,-1
 229 471 l 1,5,-1
 295 717 l 1,6,-1
 1270 1106 l 1,0,-1
EndSplineSet
Validated: 1
EndChar

StartChar: equal
Encoding: 61 61 33
Width: 1075
GlyphClass: 2
Flags: W
LayerCount: 2
Fore
SplineSet
1231 963 m 1,0,-1
 1165 717 l 1,1,-1
 295 717 l 1,2,-1
 360 963 l 1,3,-1
 1231 963 l 1,0,-1
1100 471 m 1,4,-1
 1032 225 l 1,5,-1
 162 225 l 1,6,-1
 229 471 l 1,7,-1
 1100 471 l 1,4,-1
EndSplineSet
Validated: 1
EndChar

StartChar: greater
Encoding: 62 62 34
Width: 1075
GlyphClass: 2
Flags: W
LayerCount: 2
Fore
SplineSet
1165 717 m 1,0,-1
 1100 471 l 1,1,-1
 125 82 l 1,2,-1
 203 379 l 1,3,-1
 836 614 l 1,4,-1
 330 850 l 1,5,-1
 399 1106 l 1,6,-1
 1165 717 l 1,0,-1
EndSplineSet
Validated: 1
EndChar

StartChar: question
Encoding: 63 63 35
Width: 931
GlyphClass: 2
Flags: W
LayerCount: 2
Fore
SplineSet
1100 1061 m 0,0,1
 1100 1018 1100 1018 1087 958 c 2,2,-1
 1085 948 l 2,3,4
 1070 873 1070 873 1035 818 c 0,5,6
 1000 762 1000 762 968 735 c 0,7,8
 938 709 938 709 885 678 c 2,9,-1
 821 639 l 2,10,11
 777 612 777 612 751 591 c 0,12,13
 724 569 724 569 701 535 c 0,14,15
 679 502 679 502 662 444 c 2,16,-1
 655 420 l 1,17,-1
 379 420 l 1,18,-1
 387 455 l 2,19,20
 420 597 420 597 471 666 c 0,21,22
 523 736 523 736 616 788 c 2,23,-1
 684 827 l 2,24,25
 718 848 718 848 738 860 c 0,26,27
 756 871 756 871 778 896 c 128,-1,28
 800 921 800 921 807 950 c 2,29,-1
 813 971 l 2,30,31
 817 980 817 980 817 1001 c 0,32,33
 817 1075 817 1075 690 1075 c 2,34,-1
 371 1075 l 1,35,-1
 432 1311 l 1,36,-1
 764 1311 l 2,37,38
 916 1311 916 1311 1009 1247 c 0,39,40
 1100 1184 1100 1184 1100 1061 c 0,0,1
633 297 m 1,41,-1
 553 0 l 1,42,-1
 256 0 l 1,43,-1
 336 297 l 1,44,-1
 633 297 l 1,41,-1
EndSplineSet
Validated: 1
EndChar

StartChar: at
Encoding: 64 64 36
Width: 2007
GlyphClass: 2
Flags: W
LayerCount: 2
Fore
SplineSet
2081 846 m 0,0,1
 2081 733 2081 733 2048 604 c 2,2,-1
 2030 532 l 2,3,4
 1962 262 1962 262 1816 151 c 0,5,6
 1671 41 1671 41 1450 41 c 2,7,-1
 967 41 l 2,8,9
 837 41 837 41 768 110 c 0,10,11
 698 180 698 180 698 291 c 0,12,13
 698 356 698 356 727 440 c 2,14,-1
 784 604 l 2,15,16
 844 776 844 776 949 859 c 0,17,18
 1055 942 1055 942 1225 942 c 2,19,-1
 1677 942 l 1,20,-1
 1438 266 l 1,21,-1
 1513 266 l 2,22,23
 1662 266 1662 266 1741 573 c 2,24,-1
 1759 645 l 2,25,26
 1788 766 1788 766 1788 829 c 0,27,28
 1788 985 1788 985 1681 1066 c 128,-1,29
 1574 1147 1574 1147 1335 1147 c 2,30,-1
 1305 1147 l 2,31,32
 735 1147 735 1147 555 502 c 2,33,-1
 541 451 l 2,34,35
 506 322 506 322 506 223 c 0,36,37
 506 66 506 66 609 -18 c 0,38,39
 713 -102 713 -102 946 -102 c 2,40,-1
 1294 -102 l 1,41,-1
 1227 -348 l 1,42,-1
 909 -348 l 2,43,44
 209 -348 209 -348 209 190 c 0,45,46
 209 338 209 338 252 492 c 2,47,-1
 266 543 l 1,48,49
 506 1393 506 1393 1346 1393 c 2,50,-1
 1366 1393 l 2,51,52
 1714 1393 1714 1393 1897 1249 c 0,53,54
 2081 1104 2081 1104 2081 846 c 0,0,1
1321 717 m 1,55,-1
 1241 717 l 2,56,57
 1168 717 1168 717 1126 686 c 0,58,59
 1086 657 1086 657 1059 584 c 2,60,-1
 1001 430 l 2,61,62
 981 377 981 377 981 342 c 0,63,64
 981 266 981 266 1079 266 c 2,65,-1
 1159 266 l 1,66,-1
 1321 717 l 1,55,-1
EndSplineSet
Validated: 1
EndChar

StartChar: A
Encoding: 65 65 37
Width: 1361
GlyphClass: 2
Flags: W
LayerCount: 2
Fore
SplineSet
1321 0 m 1,0,-1
 1044 0 l 1,1,-1
 1016 184 l 1,2,-1
 489 184 l 1,3,-1
 365 0 l 1,4,-1
 41 0 l 1,5,-1
 813 1126 l 1,6,-1
 1151 1126 l 1,7,-1
 1321 0 l 1,0,-1
981 420 m 1,8,-1
 918 827 l 1,9,-1
 647 420 l 1,10,-1
 981 420 l 1,8,-1
EndSplineSet
Validated: 1
EndChar

StartChar: B
Encoding: 66 66 38
Width: 1228
GlyphClass: 2
Flags: W
LayerCount: 2
Fore
SplineSet
1317 903 m 0,0,1
 1317 851 1317 851 1303 799 c 0,2,3
 1275 693 1275 693 1221 647 c 0,4,5
 1168 602 1168 602 1071 573 c 1,6,7
 1219 526 1219 526 1219 387 c 0,8,9
 1219 339 1219 339 1208 297 c 0,10,11
 1158 116 1158 116 1050 58 c 0,12,13
 941 0 941 0 707 0 c 2,14,-1
 123 0 l 1,15,-1
 424 1126 l 1,16,-1
 946 1126 l 2,17,18
 1317 1126 1317 1126 1317 903 c 0,0,1
1024 823 m 0,19,20
 1024 901 1024 901 877 901 c 2,21,-1
 641 901 l 1,22,-1
 580 676 l 1,23,-1
 815 676 l 2,24,25
 925 676 925 676 963 695 c 128,-1,26
 1001 714 1001 714 1018 778 c 0,27,28
 1024 802 1024 802 1024 823 c 0,19,20
950 389 m 0,29,30
 950 435 950 435 915 453 c 128,-1,31
 880 471 880 471 803 471 c 2,32,-1
 526 471 l 1,33,-1
 459 225 l 1,34,-1
 735 225 l 2,35,36
 839 225 839 225 882 248 c 0,37,38
 924 270 924 270 942 338 c 0,39,40
 950 367 950 367 950 389 c 0,29,30
EndSplineSet
Validated: 1
EndChar

StartChar: C
Encoding: 67 67 39
Width: 1034
GlyphClass: 2
Flags: W
LayerCount: 2
Fore
SplineSet
1253 1126 m 5,0,-1
 1190 885 l 5,1,-1
 842 885 l 6,2,3
 716 885 716 885 649 819 c 4,4,5
 583 754 583 754 545 618 c 6,6,-1
 520 528 l 6,7,8
 498 450 498 450 498 391 c 4,9,10
 498 242 498 242 674 242 c 6,11,-1
 1018 242 l 5,12,-1
 952 0 l 5,13,-1
 625 0 l 6,14,15
 427 0 427 0 322 90 c 132,-1,16
 217 180 217 180 217 350 c 4,17,18
 217 421 217 421 244 532 c 6,19,-1
 270 635 l 6,20,21
 336 890 336 890 486 1008 c 4,22,23
 635 1126 635 1126 885 1126 c 6,24,-1
 1253 1126 l 5,0,-1
EndSplineSet
Validated: 1
EndChar

StartChar: D
Encoding: 68 68 40
Width: 1249
GlyphClass: 2
Flags: W
LayerCount: 2
Fore
SplineSet
1329 760 m 4,0,1
 1329 668 1329 668 1303 573 c 6,2,-1
 1276 471 l 6,3,4
 1213 224 1213 224 1056 112 c 132,-1,5
 899 0 899 0 645 0 c 6,6,-1
 123 0 l 5,7,-1
 424 1126 l 5,8,-1
 905 1126 l 6,9,10
 1108 1126 1108 1126 1218 1032 c 4,11,12
 1329 937 1329 937 1329 760 c 4,0,1
1049 721 m 4,13,14
 1049 891 1049 891 864 891 c 6,15,-1
 639 891 l 5,16,-1
 463 236 l 5,17,-1
 688 236 l 6,18,19
 937 236 937 236 1006 502 c 6,20,-1
 1032 604 l 6,21,22
 1049 675 1049 675 1049 721 c 4,13,14
EndSplineSet
Validated: 1
EndChar

StartChar: E
Encoding: 69 69 41
Width: 1054
GlyphClass: 2
Flags: W
LayerCount: 2
Fore
SplineSet
1253 1126 m 5,0,-1
 1192 891 l 5,1,-1
 639 891 l 5,2,-1
 584 686 l 5,3,-1
 1116 686 l 5,4,-1
 1053 451 l 5,5,-1
 520 451 l 5,6,-1
 463 236 l 5,7,-1
 1016 236 l 5,8,-1
 952 0 l 5,9,-1
 123 0 l 5,10,-1
 424 1126 l 5,11,-1
 1253 1126 l 5,0,-1
EndSplineSet
Validated: 1
EndChar

StartChar: F
Encoding: 70 70 42
Width: 1054
GlyphClass: 2
Flags: W
LayerCount: 2
Fore
SplineSet
1253 1126 m 1,0,-1
 1192 891 l 1,1,-1
 639 891 l 1,2,-1
 561 604 l 1,3,-1
 1114 604 l 1,4,-1
 1051 369 l 1,5,-1
 498 369 l 1,6,-1
 399 0 l 1,7,-1
 123 0 l 1,8,-1
 424 1126 l 1,9,-1
 1253 1126 l 1,0,-1
EndSplineSet
Validated: 1
EndChar

StartChar: G
Encoding: 71 71 43
Width: 1249
GlyphClass: 2
Flags: W
LayerCount: 2
Fore
SplineSet
1386 1126 m 1,0,-1
 1325 891 l 1,1,-1
 895 891 l 2,2,3
 747 891 747 891 662 818 c 0,4,5
 578 746 578 746 537 594 c 2,6,-1
 520 532 l 2,7,8
 500 453 500 453 500 399 c 0,9,10
 500 236 500 236 676 236 c 2,11,-1
 913 236 l 1,12,-1
 965 430 l 1,13,-1
 719 430 l 1,14,-1
 782 666 l 1,15,-1
 1305 666 l 1,16,-1
 1126 0 l 1,17,-1
 625 0 l 2,18,19
 425 0 425 0 321 89 c 128,-1,20
 217 178 217 178 217 346 c 0,21,22
 217 441 217 441 246 543 c 2,23,-1
 260 594 l 2,24,25
 337 865 337 865 499 996 c 0,26,27
 659 1126 659 1126 926 1126 c 2,28,-1
 1386 1126 l 1,0,-1
EndSplineSet
Validated: 1
EndChar

StartChar: H
Encoding: 72 72 44
Width: 1249
GlyphClass: 2
Flags: W
LayerCount: 2
Fore
SplineSet
1427 1126 m 1,0,-1
 1126 0 l 1,1,-1
 850 0 l 1,2,-1
 971 451 l 1,3,-1
 520 451 l 1,4,-1
 399 0 l 1,5,-1
 123 0 l 1,6,-1
 424 1126 l 1,7,-1
 700 1126 l 1,8,-1
 584 686 l 1,9,-1
 1034 686 l 1,10,-1
 1151 1126 l 1,11,-1
 1427 1126 l 1,0,-1
EndSplineSet
Validated: 1
EndChar

StartChar: I
Encoding: 73 73 45
Width: 911
GlyphClass: 2
Flags: W
LayerCount: 2
Fore
SplineSet
1151 1126 m 1,0,-1
 1102 942 l 1,1,-1
 846 942 l 1,2,-1
 643 184 l 1,3,-1
 899 184 l 1,4,-1
 850 0 l 1,5,-1
 61 0 l 1,6,-1
 111 184 l 1,7,-1
 367 184 l 1,8,-1
 569 942 l 1,9,-1
 313 942 l 1,10,-1
 362 1126 l 1,11,-1
 1151 1126 l 1,0,-1
EndSplineSet
Validated: 1
EndChar

StartChar: J
Encoding: 74 74 46
Width: 808
GlyphClass: 2
Flags: W
LayerCount: 2
Fore
SplineSet
987 1126 m 1,0,-1
 803 430 l 2,1,2
 742 202 742 202 620 102 c 0,3,4
 496 0 496 0 276 0 c 2,5,-1
 82 0 l 1,6,-1
 141 225 l 1,7,-1
 256 225 l 2,8,9
 365 225 365 225 432 280 c 0,10,11
 497 333 497 333 530 451 c 2,12,-1
 711 1126 l 1,13,-1
 987 1126 l 1,0,-1
EndSplineSet
Validated: 1
EndChar

StartChar: K
Encoding: 75 75 47
Width: 1126
GlyphClass: 2
Flags: W
LayerCount: 2
Fore
SplineSet
1407 1126 m 1,0,-1
 862 565 l 1,1,-1
 1147 0 l 1,2,-1
 840 0 l 1,3,-1
 555 573 l 1,4,-1
 1069 1126 l 1,5,-1
 1407 1126 l 1,0,-1
700 1126 m 1,6,-1
 399 0 l 1,7,-1
 123 0 l 1,8,-1
 424 1126 l 1,9,-1
 700 1126 l 1,6,-1
EndSplineSet
Validated: 1
EndChar

StartChar: L
Encoding: 76 76 48
Width: 1034
GlyphClass: 2
Flags: W
LayerCount: 2
Fore
SplineSet
1016 236 m 1,0,-1
 952 0 l 1,1,-1
 123 0 l 1,2,-1
 424 1126 l 1,3,-1
 700 1126 l 1,4,-1
 463 236 l 1,5,-1
 1016 236 l 1,0,-1
EndSplineSet
Validated: 1
EndChar

StartChar: M
Encoding: 77 77 49
Width: 1566
GlyphClass: 2
Flags: W
LayerCount: 2
Fore
SplineSet
1745 1126 m 1,0,-1
 1444 0 l 1,1,-1
 1167 0 l 1,2,-1
 1346 668 l 1,3,-1
 975 199 l 1,4,-1
 707 199 l 1,5,-1
 578 668 l 1,6,-1
 399 0 l 1,7,-1
 123 0 l 1,8,-1
 424 1126 l 1,9,-1
 694 1126 l 1,10,-1
 897 498 l 1,11,-1
 1417 1126 l 1,12,-1
 1745 1126 l 1,0,-1
EndSplineSet
Validated: 1
EndChar

StartChar: N
Encoding: 78 78 50
Width: 1249
GlyphClass: 2
Flags: W
LayerCount: 2
Fore
SplineSet
1427 1126 m 1,0,-1
 1126 0 l 1,1,-1
 850 0 l 1,2,-1
 588 705 l 1,3,-1
 399 0 l 1,4,-1
 123 0 l 1,5,-1
 424 1126 l 1,6,-1
 700 1126 l 1,7,-1
 969 442 l 1,8,-1
 1151 1126 l 1,9,-1
 1427 1126 l 1,0,-1
EndSplineSet
Validated: 1
EndChar

StartChar: O
Encoding: 79 79 51
Width: 1269
GlyphClass: 2
Flags: W
LayerCount: 2
Fore
SplineSet
1350 766 m 0,0,1
 1350 672 1350 672 1323 573 c 2,2,-1
 1296 471 l 2,3,4
 1233 223 1233 223 1080 112 c 0,5,6
 926 0 926 0 686 0 c 2,7,-1
 625 0 l 2,8,9
 433 0 433 0 327 95 c 128,-1,10
 221 190 221 190 221 365 c 0,11,12
 221 446 221 446 248 553 c 2,13,-1
 274 655 l 2,14,15
 337 904 337 904 490 1015 c 128,-1,16
 643 1126 643 1126 885 1126 c 2,17,-1
 946 1126 l 2,18,19
 1140 1126 1140 1126 1244 1032 c 0,20,21
 1350 937 1350 937 1350 766 c 0,0,1
1073 735 m 0,22,23
 1073 891 1073 891 905 891 c 2,24,-1
 834 891 l 2,25,26
 617 891 617 891 543 614 c 2,27,-1
 516 512 l 2,28,29
 500 445 500 445 500 393 c 0,30,31
 500 236 500 236 668 236 c 2,32,-1
 739 236 l 2,33,34
 955 236 955 236 1028 512 c 2,35,-1
 1055 614 l 2,36,37
 1073 692 1073 692 1073 735 c 0,22,23
EndSplineSet
Validated: 1
EndChar

StartChar: P
Encoding: 80 80 52
Width: 1187
GlyphClass: 2
Flags: W
LayerCount: 2
Fore
SplineSet
1294 840 m 0,0,1
 1294 769 1294 769 1274 696 c 0,2,3
 1242 581 1242 581 1191 502 c 0,4,5
 1143 428 1143 428 1064 389 c 0,6,7
 989 352 989 352 906 340 c 0,8,9
 825 328 825 328 702 328 c 2,10,-1
 487 328 l 1,11,-1
 399 0 l 1,12,-1
 123 0 l 1,13,-1
 424 1126 l 1,14,-1
 874 1126 l 2,15,16
 1294 1126 1294 1126 1294 840 c 0,0,1
1012 788 m 0,17,18
 1012 851 1012 851 966 876 c 128,-1,19
 920 901 920 901 825 901 c 2,20,-1
 641 901 l 1,21,-1
 547 553 l 1,22,-1
 731 553 l 2,23,24
 853 553 853 553 914 585 c 0,25,26
 974 616 974 616 1001 717 c 0,27,28
 1012 752 1012 752 1012 788 c 0,17,18
EndSplineSet
Validated: 1
EndChar

StartChar: Q
Encoding: 81 81 53
Width: 1269
GlyphClass: 2
Flags: W
LayerCount: 2
Fore
SplineSet
1350 766 m 0,0,1
 1350 672 1350 672 1323 573 c 2,2,-1
 1296 471 l 2,3,4
 1233 223 1233 223 1080 112 c 0,5,6
 926 0 926 0 686 0 c 2,7,-1
 625 0 l 2,8,9
 433 0 433 0 327 95 c 128,-1,10
 221 190 221 190 221 365 c 0,11,12
 221 446 221 446 248 553 c 2,13,-1
 274 655 l 2,14,15
 337 904 337 904 490 1015 c 128,-1,16
 643 1126 643 1126 885 1126 c 2,17,-1
 946 1126 l 2,18,19
 1140 1126 1140 1126 1244 1032 c 0,20,21
 1350 937 1350 937 1350 766 c 0,0,1
1174 -133 m 1,22,-1
 1104 -389 l 1,23,-1
 422 -340 l 1,24,-1
 489 -84 l 1,25,-1
 1174 -133 l 1,22,-1
1073 735 m 0,26,27
 1073 891 1073 891 905 891 c 2,28,-1
 834 891 l 2,29,30
 617 891 617 891 543 614 c 2,31,-1
 516 512 l 2,32,33
 500 445 500 445 500 393 c 0,34,35
 500 236 500 236 668 236 c 2,36,-1
 739 236 l 2,37,38
 955 236 955 236 1028 512 c 2,39,-1
 1055 614 l 2,40,41
 1073 692 1073 692 1073 735 c 0,26,27
EndSplineSet
Validated: 1
EndChar

StartChar: R
Encoding: 82 82 54
Width: 1167
GlyphClass: 2
Flags: W
LayerCount: 2
Fore
SplineSet
1303 866 m 0,0,1
 1303 810 1303 810 1284 737 c 0,2,3
 1244 585 1244 585 1156 509 c 0,4,5
 1069 434 1069 434 915 416 c 1,6,-1
 1147 0 l 1,7,-1
 840 0 l 1,8,-1
 608 410 l 1,9,-1
 510 410 l 1,10,-1
 399 0 l 1,11,-1
 123 0 l 1,12,-1
 424 1126 l 1,13,-1
 926 1126 l 2,14,15
 1303 1126 1303 1126 1303 866 c 0,0,1
1020 807 m 0,16,17
 1020 901 1020 901 856 901 c 2,18,-1
 641 901 l 1,19,-1
 569 635 l 1,20,-1
 784 635 l 2,21,22
 900 635 900 635 945 658 c 0,23,24
 991 682 991 682 1012 758 c 0,25,26
 1020 798 1020 798 1020 807 c 0,16,17
EndSplineSet
Validated: 1
EndChar

StartChar: S
Encoding: 83 83 55
Width: 1075
GlyphClass: 2
Flags: W
LayerCount: 2
Fore
SplineSet
1212 1126 m 1,0,-1
 1151 891 l 1,1,-1
 719 891 l 2,2,3
 620 891 620 891 596 811 c 2,4,-1
 590 791 l 2,5,6
 588 781 588 781 588 766 c 0,7,8
 588 749 588 749 600 737 c 0,9,10
 611 726 611 726 626 721 c 0,11,12
 638 717 638 717 670 709 c 2,13,-1
 811 672 l 2,14,15
 1073 605 1073 605 1073 422 c 0,16,17
 1073 371 1073 371 1063 332 c 2,18,-1
 1053 291 l 2,19,20
 1012 126 1012 126 911 63 c 128,-1,21
 810 0 810 0 580 0 c 2,22,-1
 123 0 l 1,23,-1
 186 236 l 1,24,-1
 647 236 l 2,25,26
 714 236 714 236 740 253 c 0,27,28
 768 272 768 272 780 311 c 2,29,-1
 786 332 l 2,30,31
 791 350 791 350 791 358 c 0,32,33
 791 388 791 388 763 407 c 0,34,35
 741 422 741 422 674 438 c 2,36,-1
 530 473 l 2,37,38
 305 528 305 528 305 713 c 0,39,40
 305 764 305 764 315 803 c 2,41,-1
 324 834 l 2,42,43
 368 999 368 999 477 1062 c 0,44,45
 587 1126 587 1126 788 1126 c 2,46,-1
 1212 1126 l 1,0,-1
EndSplineSet
Validated: 1
EndChar

StartChar: T
Encoding: 84 84 56
Width: 1167
GlyphClass: 2
Flags: W
LayerCount: 2
Fore
SplineSet
1407 1126 m 1,0,-1
 1339 870 l 1,1,-1
 956 870 l 1,2,-1
 723 0 l 1,3,-1
 446 0 l 1,4,-1
 680 870 l 1,5,-1
 295 870 l 1,6,-1
 362 1126 l 1,7,-1
 1407 1126 l 1,0,-1
EndSplineSet
Validated: 1
EndChar

StartChar: U
Encoding: 85 85 57
Width: 1249
GlyphClass: 2
Flags: W
LayerCount: 2
Fore
SplineSet
1427 1126 m 1,0,-1
 1262 492 l 2,1,2
 1196 240 1196 240 1049 120 c 128,-1,3
 902 0 902 0 666 0 c 2,4,-1
 625 0 l 2,5,6
 439 0 439 0 341 94 c 0,7,8
 242 188 242 188 242 358 c 0,9,10
 242 447 242 447 270 553 c 2,11,-1
 424 1126 l 1,12,-1
 700 1126 l 1,13,-1
 543 532 l 2,14,15
 518 434 518 434 518 383 c 0,16,17
 518 236 518 236 662 236 c 2,18,-1
 709 236 l 2,19,20
 915 236 915 236 993 532 c 2,21,-1
 1151 1126 l 1,22,-1
 1427 1126 l 1,0,-1
EndSplineSet
Validated: 1
EndChar

StartChar: V
Encoding: 86 86 58
Width: 1187
GlyphClass: 2
Flags: W
LayerCount: 2
Fore
SplineSet
1468 1126 m 1,0,-1
 768 0 l 1,1,-1
 420 0 l 1,2,-1
 322 1126 l 1,3,-1
 598 1126 l 1,4,-1
 651 291 l 1,5,-1
 1151 1126 l 1,6,-1
 1468 1126 l 1,0,-1
EndSplineSet
Validated: 1
EndChar

StartChar: W
Encoding: 87 87 59
Width: 1916
GlyphClass: 2
Flags: W
LayerCount: 2
Fore
SplineSet
2136 1126 m 1,0,-1
 1552 0 l 1,1,-1
 1217 0 l 1,2,-1
 1178 770 l 1,3,-1
 733 0 l 1,4,-1
 373 0 l 1,5,-1
 393 1126 l 1,6,-1
 680 1126 l 1,7,-1
 635 291 l 1,8,-1
 1110 1126 l 1,9,-1
 1399 1126 l 1,10,-1
 1427 291 l 1,11,-1
 1829 1126 l 1,12,-1
 2136 1126 l 1,0,-1
EndSplineSet
Validated: 1
EndChar

StartChar: X
Encoding: 88 88 60
Width: 1208
GlyphClass: 2
Flags: W
LayerCount: 2
Fore
SplineSet
1489 1126 m 1,0,-1
 932 561 l 1,1,-1
 1208 0 l 1,2,-1
 879 0 l 1,3,-1
 717 344 l 1,4,-1
 379 0 l 1,5,-1
 0 0 l 1,6,-1
 586 594 l 1,7,-1
 322 1126 l 1,8,-1
 651 1126 l 1,9,-1
 801 813 l 1,10,-1
 1110 1126 l 1,11,-1
 1489 1126 l 1,0,-1
EndSplineSet
Validated: 1
EndChar

StartChar: Y
Encoding: 89 89 61
Width: 1177
GlyphClass: 2
Flags: W
LayerCount: 2
Fore
SplineSet
1458 1126 m 1,0,-1
 813 317 l 1,1,-1
 727 0 l 1,2,-1
 451 0 l 1,3,-1
 537 317 l 1,4,-1
 322 1126 l 1,5,-1
 608 1126 l 1,6,-1
 725 584 l 1,7,-1
 1130 1126 l 1,8,-1
 1458 1126 l 1,0,-1
EndSplineSet
Validated: 1
EndChar

StartChar: Z
Encoding: 90 90 62
Width: 993
GlyphClass: 2
Flags: W
LayerCount: 2
Fore
SplineSet
1212 1126 m 1,0,-1
 1151 891 l 1,1,-1
 522 236 l 1,2,-1
 975 236 l 1,3,-1
 911 0 l 1,4,-1
 82 0 l 1,5,-1
 145 236 l 1,6,-1
 772 891 l 1,7,-1
 322 891 l 1,8,-1
 383 1126 l 1,9,-1
 1212 1126 l 1,0,-1
EndSplineSet
Validated: 1
EndChar

StartChar: bracketleft
Encoding: 91 91 63
Width: 665
GlyphClass: 2
Flags: W
LayerCount: 2
Fore
SplineSet
1073 1597 m 1,0,-1
 1014 1372 l 1,1,-1
 768 1372 l 1,2,-1
 389 -41 l 1,3,-1
 635 -41 l 1,4,-1
 573 -266 l 1,5,-1
 51 -266 l 1,6,-1
 551 1597 l 1,7,-1
 1073 1597 l 1,0,-1
EndSplineSet
Validated: 1
EndChar

StartChar: backslash
Encoding: 92 92 64
Width: 870
GlyphClass: 2
Flags: W
LayerCount: 2
Fore
SplineSet
788 0 m 1,0,-1
 502 0 l 1,1,-1
 82 1311 l 1,2,-1
 369 1311 l 1,3,-1
 788 0 l 1,0,-1
EndSplineSet
Validated: 1
EndChar

StartChar: bracketright
Encoding: 93 93 65
Width: 665
GlyphClass: 2
Flags: W
LayerCount: 2
Fore
SplineSet
971 1597 m 1,0,-1
 471 -266 l 1,1,-1
 -51 -266 l 1,2,-1
 10 -41 l 1,3,-1
 256 -41 l 1,4,-1
 635 1372 l 1,5,-1
 389 1372 l 1,6,-1
 449 1597 l 1,7,-1
 971 1597 l 1,0,-1
EndSplineSet
Validated: 1
EndChar

StartChar: asciicircum
Encoding: 94 94 66
Width: 1228
GlyphClass: 2
Flags: W
LayerCount: 2
Fore
SplineSet
1307 676 m 1,0,-1
 1051 676 l 1,1,-1
 915 1051 l 1,2,-1
 580 676 l 1,3,-1
 283 676 l 1,4,-1
 842 1311 l 1,5,-1
 1087 1311 l 1,6,-1
 1307 676 l 1,0,-1
EndSplineSet
Validated: 1
EndChar

StartChar: underscore
Encoding: 95 95 67
Width: 1044
GlyphClass: 2
Flags: W
LayerCount: 2
Fore
SplineSet
1018 -102 m 1,0,-1
 950 -348 l 1,1,-1
 -94 -348 l 1,2,-1
 -27 -102 l 1,3,-1
 1018 -102 l 1,0,-1
EndSplineSet
Validated: 1
EndChar

StartChar: grave
Encoding: 96 96 68
Width: 788
GlyphClass: 2
Flags: W
LayerCount: 2
Fore
SplineSet
995 1270 m 1,0,-1
 963 1044 l 1,1,-1
 395 1106 l 1,2,-1
 428 1331 l 1,3,-1
 995 1270 l 1,0,-1
EndSplineSet
Validated: 1
EndChar

StartChar: a
Encoding: 97 97 69
Width: 1034
GlyphClass: 2
Flags: W
LayerCount: 2
Fore
SplineSet
1085 715 m 0,0,1
 1085 643 1085 643 1061 553 c 2,2,-1
 911 0 l 1,3,-1
 418 0 l 2,4,5
 147 0 147 0 147 205 c 0,6,7
 147 256 147 256 162 307 c 0,8,9
 201 449 201 449 301 501 c 128,-1,10
 401 553 401 553 588 553 c 2,11,-1
 782 553 l 1,12,-1
 791 580 l 2,13,14
 799 606 799 606 799 631 c 0,15,16
 799 707 799 707 674 707 c 2,17,-1
 352 707 l 1,18,-1
 416 942 l 1,19,-1
 762 942 l 2,20,21
 933 942 933 942 1009 887 c 128,-1,22
 1085 832 1085 832 1085 715 c 0,0,1
735 375 m 1,23,-1
 571 375 l 2,24,25
 512 375 512 375 480 359 c 0,26,27
 450 344 450 344 438 297 c 0,28,29
 432 279 432 279 432 262 c 0,30,31
 432 205 432 205 512 205 c 2,32,-1
 690 205 l 1,33,-1
 735 375 l 1,23,-1
EndSplineSet
Validated: 1
EndChar

StartChar: b
Encoding: 98 98 70
Width: 1054
GlyphClass: 2
Flags: W
LayerCount: 2
Fore
SplineSet
1120 690 m 0,0,1
 1120 622 1120 622 1102 553 c 2,2,-1
 1047 348 l 2,3,4
 1002 175 1002 175 902 87 c 0,5,6
 803 0 803 0 635 0 c 2,7,-1
 123 0 l 1,8,-1
 473 1311 l 1,9,-1
 750 1311 l 1,10,-1
 651 942 l 1,11,-1
 846 942 l 2,12,13
 982 942 982 942 1051 876 c 128,-1,14
 1120 810 1120 810 1120 690 c 0,0,1
836 625 m 0,15,16
 836 717 836 717 733 717 c 2,17,-1
 592 717 l 1,18,-1
 459 225 l 1,19,-1
 600 225 l 2,20,21
 737 225 737 225 776 369 c 2,22,-1
 825 553 l 2,23,24
 836 595 836 595 836 625 c 0,15,16
EndSplineSet
Validated: 1
EndChar

StartChar: c
Encoding: 99 99 71
Width: 890
GlyphClass: 2
Flags: W
LayerCount: 2
Fore
SplineSet
1061 942 m 5,0,-1
 1001 717 l 5,1,-1
 729 717 l 6,2,3
 638 717 638 717 594 677 c 4,4,5
 548 636 548 636 526 553 c 6,6,-1
 487 410 l 6,7,8
 477 379 477 379 477 328 c 4,9,10
 477 225 477 225 604 225 c 6,11,-1
 868 225 l 5,12,-1
 809 0 l 5,13,-1
 539 0 l 6,14,15
 376 0 376 0 285 71 c 4,16,17
 195 142 195 142 195 279 c 4,18,19
 195 343 195 343 215 424 c 6,20,-1
 250 559 l 6,21,22
 302 761 302 761 425 852 c 4,23,24
 546 942 546 942 750 942 c 6,25,-1
 1061 942 l 5,0,-1
EndSplineSet
Validated: 1
EndChar

StartChar: d
Encoding: 100 100 72
Width: 1054
GlyphClass: 2
Flags: W
LayerCount: 2
Fore
SplineSet
1282 1311 m 5,0,-1
 932 0 l 5,1,-1
 461 0 l 6,2,3
 326 0 326 0 256 68 c 132,-1,4
 186 136 186 136 186 254 c 4,5,6
 186 316 186 316 205 389 c 6,7,-1
 260 594 l 6,8,9
 305 768 305 768 404 855 c 132,-1,10
 503 942 503 942 672 942 c 6,11,-1
 907 942 l 5,12,-1
 1006 1311 l 5,13,-1
 1282 1311 l 5,0,-1
848 717 m 5,14,-1
 707 717 l 6,15,16
 571 717 571 717 532 573 c 6,17,-1
 483 389 l 6,18,19
 473 350 473 350 473 317 c 4,20,21
 473 225 473 225 573 225 c 6,22,-1
 715 225 l 5,23,-1
 848 717 l 5,14,-1
EndSplineSet
Validated: 1
EndChar

StartChar: e
Encoding: 101 101 73
Width: 1034
GlyphClass: 2
Flags: W
LayerCount: 2
Fore
SplineSet
1085 643 m 4,0,1
 1085 565 1085 565 1067 502 c 6,2,-1
 1032 375 l 5,3,-1
 479 375 l 5,4,5
 477 359 477 359 477 332 c 4,6,7
 477 225 477 225 606 225 c 6,8,-1
 940 225 l 5,9,-1
 881 0 l 5,10,-1
 547 0 l 6,11,12
 383 0 383 0 291 77 c 132,-1,13
 199 154 199 154 199 295 c 4,14,15
 199 380 199 380 219 446 c 6,16,-1
 256 578 l 6,17,18
 308 764 308 764 421 854 c 4,19,20
 531 942 531 942 727 942 c 6,21,-1
 774 942 l 6,22,23
 924 942 924 942 1005 860 c 4,24,25
 1085 779 1085 779 1085 643 c 4,0,1
817 641 m 4,26,27
 817 737 817 737 727 737 c 6,28,-1
 694 737 l 6,29,30
 577 737 577 737 532 575 c 6,31,-1
 524 547 l 5,32,-1
 803 547 l 5,33,-1
 807 563 l 6,34,35
 817 607 817 607 817 641 c 4,26,27
EndSplineSet
Validated: 1
EndChar

StartChar: f
Encoding: 102 102 74
Width: 645
GlyphClass: 2
Flags: W
LayerCount: 2
Fore
SplineSet
985 1311 m 1,0,-1
 924 1075 l 1,1,-1
 834 1075 l 2,2,3
 804 1075 804 1075 786 1072 c 0,4,5
 769 1069 769 1069 748 1050 c 0,6,7
 728 1032 728 1032 717 995 c 2,8,-1
 702 942 l 1,9,-1
 866 942 l 1,10,-1
 807 717 l 1,11,-1
 643 717 l 1,12,-1
 428 -92 l 2,13,14
 389 -237 389 -237 318 -293 c 0,15,16
 248 -348 248 -348 123 -348 c 2,17,-1
 -84 -348 l 1,18,-1
 -23 -123 l 1,19,-1
 72 -123 l 2,20,21
 141 -123 141 -123 162 -45 c 2,22,-1
 367 717 l 1,23,-1
 223 717 l 1,24,-1
 283 942 l 1,25,-1
 426 942 l 1,26,-1
 440 997 l 2,27,28
 486 1174 486 1174 583 1243 c 0,29,30
 678 1311 678 1311 811 1311 c 2,31,-1
 985 1311 l 1,0,-1
EndSplineSet
Validated: 1
EndChar

StartChar: g
Encoding: 103 103 75
Width: 1054
GlyphClass: 2
Flags: W
LayerCount: 2
Fore
SplineSet
1184 942 m 1,0,-1
 952 72 l 2,1,2
 886 -175 886 -175 780 -261 c 0,3,4
 674 -348 674 -348 455 -348 c 2,5,-1
 90 -348 l 1,6,-1
 154 -113 l 1,7,-1
 451 -113 l 2,8,9
 637 -113 637 -113 670 51 c 2,10,-1
 672 61 l 1,11,-1
 477 61 l 2,12,13
 342 61 342 61 272 131 c 0,14,15
 203 200 203 200 203 319 c 0,16,17
 203 382 203 382 221 451 c 2,18,-1
 260 594 l 2,19,20
 306 767 306 767 406 855 c 0,21,22
 505 942 505 942 672 942 c 2,23,-1
 1184 942 l 1,0,-1
848 717 m 1,24,-1
 707 717 l 2,25,26
 571 717 571 717 532 573 c 2,27,-1
 500 451 l 2,28,29
 489 409 489 409 489 383 c 0,30,31
 489 287 489 287 592 287 c 2,32,-1
 733 287 l 1,33,-1
 848 717 l 1,24,-1
EndSplineSet
Validated: 1
EndChar

StartChar: h
Encoding: 104 104 76
Width: 1075
GlyphClass: 2
Flags: W
LayerCount: 2
Fore
SplineSet
1120 690 m 0,0,1
 1120 622 1120 622 1102 553 c 2,2,-1
 952 0 l 1,3,-1
 676 0 l 1,4,-1
 827 563 l 2,5,6
 838 605 838 605 838 633 c 0,7,8
 838 717 838 717 733 717 c 2,9,-1
 592 717 l 1,10,-1
 399 0 l 1,11,-1
 123 0 l 1,12,-1
 473 1311 l 1,13,-1
 750 1311 l 1,14,-1
 651 942 l 1,15,-1
 846 942 l 2,16,17
 980 942 980 942 1050 876 c 256,18,19
 1120 810 1120 810 1120 690 c 0,0,1
EndSplineSet
Validated: 1
EndChar

StartChar: i
Encoding: 105 105 77
Width: 522
GlyphClass: 2
Flags: W
LayerCount: 2
Fore
SplineSet
750 1311 m 1,0,-1
 676 1034 l 1,1,-1
 399 1034 l 1,2,-1
 432 1157 l 2,3,4
 454 1238 454 1238 499 1275 c 0,5,6
 542 1311 542 1311 627 1311 c 2,7,-1
 750 1311 l 1,0,-1
651 942 m 1,8,-1
 399 0 l 1,9,-1
 123 0 l 1,10,-1
 375 942 l 1,11,-1
 651 942 l 1,8,-1
EndSplineSet
Validated: 1
EndChar

StartChar: j
Encoding: 106 106 78
Width: 522
GlyphClass: 2
Flags: W
LayerCount: 2
Fore
SplineSet
750 1311 m 1,0,-1
 676 1034 l 1,1,-1
 399 1034 l 1,2,-1
 432 1157 l 2,3,4
 454 1238 454 1238 499 1275 c 0,5,6
 542 1311 542 1311 627 1311 c 2,7,-1
 750 1311 l 1,0,-1
651 942 m 1,8,-1
 377 -92 l 2,9,10
 338 -237 338 -237 267 -293 c 0,11,12
 197 -348 197 -348 72 -348 c 2,13,-1
 -135 -348 l 1,14,-1
 -74 -123 l 1,15,-1
 20 -123 l 2,16,17
 90 -123 90 -123 111 -45 c 2,18,-1
 375 942 l 1,19,-1
 651 942 l 1,8,-1
EndSplineSet
Validated: 1
EndChar

StartChar: k
Encoding: 107 107 79
Width: 993
GlyphClass: 2
Flags: W
LayerCount: 2
Fore
SplineSet
1184 942 m 1,0,-1
 821 489 l 1,1,-1
 973 0 l 1,2,-1
 696 0 l 1,3,-1
 539 512 l 1,4,-1
 877 942 l 1,5,-1
 1184 942 l 1,0,-1
750 1311 m 1,6,-1
 399 0 l 1,7,-1
 123 0 l 1,8,-1
 473 1311 l 1,9,-1
 750 1311 l 1,6,-1
EndSplineSet
Validated: 1
EndChar

StartChar: l
Encoding: 108 108 80
Width: 522
GlyphClass: 2
Flags: W
LayerCount: 2
Fore
SplineSet
750 1311 m 1,0,-1
 399 0 l 1,1,-1
 123 0 l 1,2,-1
 473 1311 l 1,3,-1
 750 1311 l 1,0,-1
EndSplineSet
Validated: 1
EndChar

StartChar: m
Encoding: 109 109 81
Width: 1607
GlyphClass: 2
Flags: W
LayerCount: 2
Fore
SplineSet
1657 666 m 0,0,1
 1657 594 1657 594 1636 522 c 2,2,-1
 1495 0 l 1,3,-1
 1219 0 l 1,4,-1
 1368 559 l 2,5,6
 1376 588 1376 588 1376 621 c 0,7,8
 1376 707 1376 707 1282 707 c 2,9,-1
 1247 707 l 2,10,11
 1131 707 1131 707 1092 559 c 2,12,-1
 942 0 l 1,13,-1
 666 0 l 1,14,-1
 817 563 l 2,15,16
 823 584 823 584 823 621 c 0,17,18
 823 707 823 707 729 707 c 2,19,-1
 694 707 l 2,20,21
 578 707 578 707 539 559 c 2,22,-1
 389 0 l 1,23,-1
 113 0 l 1,24,-1
 262 563 l 2,25,26
 312 744 312 744 421 843 c 128,-1,27
 530 942 530 942 731 942 c 2,28,-1
 786 942 l 2,29,30
 922 942 922 942 1012 848 c 1,31,32
 1155 942 1155 942 1284 942 c 2,33,-1
 1339 942 l 2,34,35
 1501 942 1501 942 1579 867 c 128,-1,36
 1657 792 1657 792 1657 666 c 0,0,1
EndSplineSet
Validated: 1
EndChar

StartChar: n
Encoding: 110 110 82
Width: 1075
GlyphClass: 2
Flags: W
LayerCount: 2
Fore
SplineSet
1120 690 m 0,0,1
 1120 622 1120 622 1102 553 c 2,2,-1
 952 0 l 1,3,-1
 676 0 l 1,4,-1
 827 563 l 2,5,6
 838 605 838 605 838 633 c 0,7,8
 838 717 838 717 733 717 c 2,9,-1
 592 717 l 1,10,-1
 399 0 l 1,11,-1
 123 0 l 1,12,-1
 375 942 l 1,13,-1
 846 942 l 2,14,15
 980 942 980 942 1050 876 c 256,16,17
 1120 810 1120 810 1120 690 c 0,0,1
EndSplineSet
Validated: 1
EndChar

StartChar: o
Encoding: 111 111 83
Width: 1118
GlyphClass: 2
Flags: W
LayerCount: 2
Fore
SplineSet
1171 649 m 0,0,1
 1171 568 1171 568 1151 502 c 2,2,-1
 1112 358 l 2,3,4
 1062 178 1062 178 948 89 c 0,5,6
 833 0 833 0 629 0 c 2,7,-1
 530 0 l 2,8,9
 368 0 368 0 283 80 c 0,10,11
 199 160 199 160 199 295 c 0,12,13
 199 374 199 374 219 440 c 2,14,-1
 258 584 l 2,15,16
 308 764 308 764 422 853 c 0,17,18
 537 942 537 942 741 942 c 2,19,-1
 840 942 l 2,20,21
 1004 942 1004 942 1087 863 c 0,22,23
 1171 784 1171 784 1171 649 c 0,0,1
899 629 m 0,24,25
 899 721 899 721 795 721 c 2,26,-1
 696 721 l 2,27,28
 630 721 630 721 593 688 c 128,-1,29
 556 655 556 655 535 584 c 2,30,-1
 479 379 l 2,31,32
 471 347 471 347 471 315 c 0,33,34
 471 221 471 221 575 221 c 2,35,-1
 674 221 l 2,36,37
 740 221 740 221 777 254 c 0,38,39
 816 288 816 288 836 358 c 2,40,-1
 891 563 l 2,41,42
 899 595 899 595 899 629 c 0,24,25
EndSplineSet
Validated: 1
EndChar

StartChar: p
Encoding: 112 112 84
Width: 1054
GlyphClass: 2
Flags: W
LayerCount: 2
Fore
SplineSet
1120 690 m 0,0,1
 1120 622 1120 622 1102 553 c 2,2,-1
 1047 348 l 2,3,4
 1002 175 1002 175 902 87 c 0,5,6
 803 0 803 0 635 0 c 2,7,-1
 399 0 l 1,8,-1
 305 -348 l 1,9,-1
 29 -348 l 1,10,-1
 375 942 l 1,11,-1
 846 942 l 2,12,13
 982 942 982 942 1051 876 c 128,-1,14
 1120 810 1120 810 1120 690 c 0,0,1
836 625 m 0,15,16
 836 717 836 717 733 717 c 2,17,-1
 592 717 l 1,18,-1
 459 225 l 1,19,-1
 600 225 l 2,20,21
 737 225 737 225 776 369 c 2,22,-1
 825 553 l 2,23,24
 836 595 836 595 836 625 c 0,15,16
EndSplineSet
Validated: 1
EndChar

StartChar: q
Encoding: 113 113 85
Width: 1054
GlyphClass: 2
Flags: W
LayerCount: 2
Fore
SplineSet
1184 942 m 1,0,-1
 838 -348 l 1,1,-1
 561 -348 l 1,2,-1
 655 0 l 1,3,-1
 461 0 l 2,4,5
 326 0 326 0 256 67 c 128,-1,6
 186 134 186 134 186 252 c 0,7,8
 186 316 186 316 205 389 c 2,9,-1
 260 594 l 2,10,11
 305 768 305 768 404 855 c 128,-1,12
 503 942 503 942 672 942 c 2,13,-1
 1184 942 l 1,0,-1
848 717 m 1,14,-1
 707 717 l 2,15,16
 571 717 571 717 532 573 c 2,17,-1
 483 389 l 2,18,19
 473 350 473 350 473 317 c 0,20,21
 473 225 473 225 573 225 c 2,22,-1
 715 225 l 1,23,-1
 848 717 l 1,14,-1
EndSplineSet
Validated: 1
EndChar

StartChar: r
Encoding: 114 114 86
Width: 686
GlyphClass: 2
Flags: W
LayerCount: 2
Fore
SplineSet
897 942 m 5,0,-1
 831 696 l 5,1,-1
 715 696 l 6,2,3
 641 696 641 696 605 663 c 4,4,5
 568 629 568 629 547 553 c 6,6,-1
 399 0 l 5,7,-1
 123 0 l 5,8,-1
 281 594 l 6,9,10
 326 768 326 768 425 855 c 132,-1,11
 524 942 524 942 692 942 c 6,12,-1
 897 942 l 5,0,-1
EndSplineSet
Validated: 1
EndChar

StartChar: s
Encoding: 115 115 87
Width: 972
GlyphClass: 2
Flags: W
LayerCount: 2
Fore
SplineSet
1071 942 m 1,0,-1
 1012 717 l 1,1,-1
 664 717 l 2,2,3
 543 717 543 717 543 647 c 0,4,5
 543 610 543 610 616 598 c 2,6,-1
 729 580 l 2,7,8
 969 541 969 541 969 365 c 0,9,10
 969 315 969 315 954 264 c 0,11,12
 930 174 930 174 893 119 c 0,13,14
 855 63 855 63 796 39 c 0,15,16
 734 14 734 14 677 7 c 0,17,18
 622 0 622 0 516 0 c 2,19,-1
 133 0 l 1,20,-1
 193 225 l 1,21,-1
 575 225 l 2,22,23
 608 225 608 225 628 228 c 0,24,25
 646 231 646 231 665 248 c 0,26,27
 682 264 682 264 682 293 c 0,28,29
 682 337 682 337 588 352 c 2,30,-1
 502 367 l 2,31,32
 258 408 258 408 258 586 c 0,33,34
 258 626 258 626 270 676 c 0,35,36
 292 762 292 762 335 819 c 0,37,38
 377 875 377 875 442 900 c 0,39,40
 512 927 512 927 570 934 c 0,41,42
 637 942 637 942 729 942 c 2,43,-1
 1071 942 l 1,0,-1
EndSplineSet
Validated: 1
EndChar

StartChar: t
Encoding: 116 116 88
Width: 747
GlyphClass: 2
Flags: W
LayerCount: 2
Fore
SplineSet
958 942 m 5,0,-1
 899 717 l 5,1,-1
 653 717 l 5,2,-1
 553 344 l 6,3,4
 545 309 545 309 545 297 c 4,5,6
 545 236 545 236 635 236 c 6,7,-1
 770 236 l 5,8,-1
 707 0 l 5,9,-1
 528 0 l 6,10,11
 256 0 256 0 256 215 c 4,12,13
 256 277 256 277 272 332 c 6,14,-1
 377 717 l 5,15,-1
 213 717 l 5,16,-1
 272 942 l 5,17,-1
 436 942 l 5,18,-1
 518 1249 l 5,19,-1
 795 1249 l 5,20,-1
 713 942 l 5,21,-1
 958 942 l 5,0,-1
EndSplineSet
Validated: 1
EndChar

StartChar: u
Encoding: 117 117 89
Width: 1075
GlyphClass: 2
Flags: W
LayerCount: 2
Fore
SplineSet
1204 942 m 1,0,-1
 952 0 l 1,1,-1
 481 0 l 2,2,3
 350 0 350 0 278 67 c 0,4,5
 207 133 207 133 207 252 c 0,6,7
 207 320 207 320 225 389 c 2,8,-1
 375 942 l 1,9,-1
 651 942 l 1,10,-1
 500 369 l 2,11,12
 489 327 489 327 489 303 c 0,13,14
 489 225 489 225 594 225 c 2,15,-1
 735 225 l 1,16,-1
 928 942 l 1,17,-1
 1204 942 l 1,0,-1
EndSplineSet
Validated: 1
EndChar

StartChar: v
Encoding: 118 118 90
Width: 972
GlyphClass: 2
Flags: W
LayerCount: 2
Fore
SplineSet
1225 942 m 1,0,-1
 649 0 l 1,1,-1
 328 0 l 1,2,-1
 252 942 l 1,3,-1
 508 942 l 1,4,-1
 555 305 l 1,5,-1
 928 942 l 1,6,-1
 1225 942 l 1,0,-1
EndSplineSet
Validated: 1
EndChar

StartChar: w
Encoding: 119 119 91
Width: 1607
GlyphClass: 2
Flags: W
LayerCount: 2
Fore
SplineSet
1747 942 m 1,0,-1
 1597 379 l 2,1,2
 1547 196 1547 196 1439 99 c 0,3,4
 1330 0 1330 0 1128 0 c 2,5,-1
 1073 0 l 2,6,7
 934 0 934 0 848 86 c 1,8,9
 718 0 718 0 575 0 c 2,10,-1
 520 0 l 2,11,12
 203 0 203 0 203 270 c 0,13,14
 203 350 203 350 223 420 c 2,15,-1
 365 942 l 1,16,-1
 641 942 l 1,17,-1
 489 373 l 2,18,19
 479 337 479 337 479 309 c 0,20,21
 479 225 479 225 569 225 c 2,22,-1
 608 225 l 2,23,24
 725 225 725 225 764 369 c 2,25,-1
 918 942 l 1,26,-1
 1194 942 l 1,27,-1
 1042 373 l 2,28,29
 1032 337 1032 337 1032 309 c 0,30,31
 1032 225 1032 225 1122 225 c 2,32,-1
 1161 225 l 2,33,34
 1280 225 1280 225 1319 373 c 2,35,-1
 1470 942 l 1,36,-1
 1747 942 l 1,0,-1
EndSplineSet
Validated: 1
EndChar

StartChar: x
Encoding: 120 120 92
Width: 1024
GlyphClass: 2
Flags: W
LayerCount: 2
Fore
SplineSet
1255 942 m 1,0,-1
 813 471 l 1,1,-1
 1024 0 l 1,2,-1
 696 0 l 1,3,-1
 596 242 l 1,4,-1
 369 0 l 1,5,-1
 0 0 l 1,6,-1
 471 500 l 1,7,-1
 272 942 l 1,8,-1
 600 942 l 1,9,-1
 686 729 l 1,10,-1
 887 942 l 1,11,-1
 1255 942 l 1,0,-1
EndSplineSet
Validated: 1
EndChar

StartChar: y
Encoding: 121 121 93
Width: 1075
GlyphClass: 2
Flags: W
LayerCount: 2
Fore
SplineSet
1204 942 m 1,0,-1
 967 51 l 2,1,2
 904 -189 904 -189 800 -269 c 0,3,4
 697 -348 697 -348 475 -348 c 2,5,-1
 111 -348 l 1,6,-1
 174 -113 l 1,7,-1
 471 -113 l 2,8,9
 574 -113 574 -113 621 -80 c 256,10,11
 668 -47 668 -47 684 31 c 2,12,-1
 686 41 l 1,13,-1
 492 41 l 2,14,15
 360 41 360 41 288 108 c 0,16,17
 217 174 217 174 217 293 c 0,18,19
 217 352 217 352 238 430 c 2,20,-1
 375 942 l 1,21,-1
 651 942 l 1,22,-1
 510 410 l 2,23,24
 500 371 500 371 500 344 c 0,25,26
 500 266 500 266 606 266 c 2,27,-1
 748 266 l 1,28,-1
 928 942 l 1,29,-1
 1204 942 l 1,0,-1
EndSplineSet
Validated: 1
EndChar

StartChar: z
Encoding: 122 122 94
Width: 993
GlyphClass: 2
Flags: W
LayerCount: 2
Fore
SplineSet
1163 942 m 1,0,-1
 1104 717 l 1,1,-1
 563 225 l 1,2,-1
 971 225 l 1,3,-1
 911 0 l 1,4,-1
 82 0 l 1,5,-1
 141 225 l 1,6,-1
 682 717 l 1,7,-1
 274 717 l 1,8,-1
 334 942 l 1,9,-1
 1163 942 l 1,0,-1
EndSplineSet
Validated: 1
EndChar

StartChar: braceleft
Encoding: 123 123 95
Width: 727
GlyphClass: 2
Flags: W
LayerCount: 2
Fore
SplineSet
1135 1597 m 1,0,-1
 1075 1372 l 1,1,-1
 973 1372 l 2,2,3
 892 1372 892 1372 848 1331 c 0,4,5
 805 1291 805 1291 784 1208 c 2,6,-1
 698 881 l 2,7,8
 647 684 647 684 516 645 c 1,9,10
 592 618 592 618 592 528 c 0,11,12
 592 486 592 486 571 410 c 2,13,-1
 494 123 l 2,14,15
 481 76 481 76 481 47 c 0,16,17
 481 -41 481 -41 594 -41 c 2,18,-1
 696 -41 l 1,19,-1
 635 -266 l 1,20,-1
 553 -266 l 2,21,22
 199 -266 199 -266 199 -6 c 0,23,24
 199 59 199 59 221 143 c 2,25,-1
 289 389 l 2,26,27
 303 442 303 442 303 473 c 0,28,29
 303 553 303 553 199 553 c 2,30,-1
 168 553 l 1,31,-1
 229 778 l 1,32,-1
 260 778 l 2,33,34
 340 778 340 778 377 817 c 0,35,36
 413 854 413 854 436 942 c 2,37,-1
 512 1229 l 2,38,39
 564 1432 564 1432 677 1516 c 0,40,41
 786 1597 786 1597 1012 1597 c 2,42,-1
 1135 1597 l 1,0,-1
EndSplineSet
Validated: 1
EndChar

StartChar: bar
Encoding: 124 124 96
Width: 604
GlyphClass: 2
Flags: W
LayerCount: 2
Fore
SplineSet
852 1536 m 1,0,-1
 330 -410 l 1,1,-1
 53 -410 l 1,2,-1
 575 1536 l 1,3,-1
 852 1536 l 1,0,-1
EndSplineSet
Validated: 1
EndChar

StartChar: braceright
Encoding: 125 125 97
Width: 727
GlyphClass: 2
Flags: W
LayerCount: 2
Fore
SplineSet
915 778 m 1,0,-1
 856 553 l 1,1,-1
 825 553 l 2,2,3
 745 553 745 553 708 513 c 0,4,5
 669 471 669 471 647 389 c 2,6,-1
 571 102 l 2,7,8
 519 -101 519 -101 407 -184 c 0,9,10
 297 -266 297 -266 72 -266 c 2,11,-1
 -51 -266 l 1,12,-1
 10 -41 l 1,13,-1
 113 -41 l 2,14,15
 194 -41 194 -41 237 0 c 0,16,17
 278 39 278 39 299 123 c 2,18,-1
 385 451 l 2,19,20
 436 647 436 647 567 686 c 1,21,22
 492 712 492 712 492 803 c 0,23,24
 492 849 492 849 512 922 c 2,25,-1
 590 1208 l 2,26,27
 602 1252 602 1252 602 1286 c 0,28,29
 602 1372 602 1372 492 1372 c 2,30,-1
 389 1372 l 1,31,-1
 449 1597 l 1,32,-1
 530 1597 l 2,33,34
 885 1597 885 1597 885 1337 c 0,35,36
 885 1275 885 1275 862 1188 c 2,37,-1
 795 942 l 2,38,39
 780 885 780 885 780 858 c 0,40,41
 780 778 780 778 885 778 c 2,42,-1
 915 778 l 1,0,-1
EndSplineSet
Validated: 1
EndChar

StartChar: asciitilde
Encoding: 126 126 98
Width: 1075
GlyphClass: 2
Flags: W
LayerCount: 2
Fore
SplineSet
1190 809 m 1,0,-1
 1141 625 l 1,1,2
 1017 563 1017 563 899 563 c 0,3,4
 829 563 829 563 693 594 c 128,-1,5
 557 625 557 625 492 625 c 2,6,-1
 270 625 l 1,7,-1
 319 809 l 1,8,9
 441 870 441 870 561 870 c 0,10,11
 635 870 635 870 769 840 c 0,12,13
 907 809 907 809 969 809 c 2,14,-1
 1190 809 l 1,0,-1
EndSplineSet
Validated: 1
EndChar

StartChar: exclamdown
Encoding: 161 161 100
Width: 522
GlyphClass: 2
Flags: W
LayerCount: 2
Fore
SplineSet
668 963 m 1,0,-1
 588 666 l 1,1,-1
 291 666 l 1,2,-1
 371 963 l 1,3,-1
 668 963 l 1,0,-1
545 543 m 1,4,-1
 346 -201 l 2,5,6
 324 -283 324 -283 284 -315 c 0,7,8
 244 -348 244 -348 164 -348 c 2,9,-1
 31 -348 l 1,10,-1
 268 543 l 1,11,-1
 545 543 l 1,4,-1
EndSplineSet
Validated: 1
EndChar

StartChar: cent
Encoding: 162 162 101
Width: 890
GlyphClass: 2
Flags: W
LayerCount: 2
Fore
SplineSet
1061 942 m 1,0,-1
 1001 717 l 1,1,-1
 729 717 l 2,2,3
 638 717 638 717 594 677 c 0,4,5
 548 636 548 636 526 553 c 2,6,-1
 487 410 l 2,7,8
 477 379 477 379 477 328 c 0,9,10
 477 225 477 225 604 225 c 2,11,-1
 868 225 l 1,12,-1
 809 0 l 1,13,-1
 645 0 l 1,14,-1
 580 -246 l 1,15,-1
 303 -246 l 1,16,-1
 375 23 l 1,17,18
 195 84 195 84 195 279 c 0,19,20
 195 343 195 343 215 424 c 2,21,-1
 250 559 l 2,22,23
 334 883 334 883 618 932 c 1,24,-1
 686 1188 l 1,25,-1
 963 1188 l 1,26,-1
 897 942 l 1,27,-1
 1061 942 l 1,0,-1
EndSplineSet
Validated: 1
EndChar

StartChar: sterling
Encoding: 163 163 102
Width: 1054
GlyphClass: 2
Flags: W
LayerCount: 2
Fore
SplineSet
1253 1126 m 1,0,-1
 1192 891 l 1,1,-1
 854 891 l 2,2,3
 630 891 630 891 586 700 c 2,4,-1
 575 655 l 1,5,-1
 1067 655 l 1,6,-1
 1004 420 l 1,7,-1
 512 420 l 1,8,-1
 463 236 l 1,9,-1
 1016 236 l 1,10,-1
 952 0 l 1,11,-1
 123 0 l 1,12,-1
 307 700 l 2,13,14
 364 919 364 919 506 1023 c 0,15,16
 646 1126 646 1126 891 1126 c 2,17,-1
 1253 1126 l 1,0,-1
EndSplineSet
Validated: 1
EndChar

StartChar: currency
Encoding: 164 164 103
Width: 481
GlyphClass: 2
Flags: W
LayerCount: 2
Fore
SplineSet
567 707 m 1,0,-1
 494 430 l 1,1,-1
 217 430 l 1,2,-1
 291 707 l 1,3,-1
 567 707 l 1,0,-1
EndSplineSet
Validated: 1
EndChar

StartChar: yen
Encoding: 165 165 104
Width: 1218
GlyphClass: 2
Flags: W
LayerCount: 2
Fore
SplineSet
1479 1126 m 1,0,-1
 1176 748 l 1,1,-1
 1337 748 l 1,2,-1
 1280 532 l 1,3,-1
 1006 532 l 1,4,-1
 891 389 l 1,5,-1
 1241 389 l 1,6,-1
 1184 174 l 1,7,-1
 795 174 l 1,8,-1
 748 0 l 1,9,-1
 471 0 l 1,10,-1
 518 174 l 1,11,-1
 129 174 l 1,12,-1
 186 389 l 1,13,-1
 539 389 l 1,14,-1
 500 532 l 1,15,-1
 225 532 l 1,16,-1
 283 748 l 1,17,-1
 442 748 l 1,18,-1
 342 1126 l 1,19,-1
 629 1126 l 1,20,-1
 745 584 l 1,21,-1
 1151 1126 l 1,22,-1
 1479 1126 l 1,0,-1
EndSplineSet
Validated: 1
EndChar

StartChar: brokenbar
Encoding: 166 166 105
Width: 522
GlyphClass: 2
Flags: W
LayerCount: 2
Fore
SplineSet
852 1536 m 1,0,-1
 627 696 l 1,1,-1
 350 696 l 1,2,-1
 575 1536 l 1,3,-1
 852 1536 l 1,0,-1
555 430 m 1,4,-1
 330 -410 l 1,5,-1
 53 -410 l 1,6,-1
 279 430 l 1,7,-1
 555 430 l 1,4,-1
EndSplineSet
Validated: 1
EndChar

StartChar: section
Encoding: 167 167 106
Width: 993
GlyphClass: 2
Flags: W
LayerCount: 2
Fore
SplineSet
1182 1331 m 1,0,-1
 1120 1096 l 1,1,-1
 729 1096 l 2,2,3
 630 1096 630 1096 606 1016 c 2,4,-1
 600 995 l 2,5,6
 598 985 598 985 598 971 c 0,7,8
 598 954 598 954 610 942 c 0,9,10
 621 931 621 931 636 926 c 0,11,12
 660 918 660 918 680 913 c 2,13,-1
 821 877 l 2,14,15
 1083 810 1083 810 1083 621 c 0,16,17
 1083 435 1083 435 946 330 c 1,18,19
 991 274 991 274 991 197 c 0,20,21
 991 145 991 145 981 106 c 2,22,-1
 971 66 l 2,23,24
 930 -99 930 -99 829 -162 c 128,-1,25
 728 -225 728 -225 498 -225 c 2,26,-1
 82 -225 l 1,27,-1
 145 10 l 1,28,-1
 565 10 l 2,29,30
 631 10 631 10 658 28 c 0,31,32
 686 47 686 47 698 86 c 2,33,-1
 705 106 l 2,34,35
 709 121 709 121 709 133 c 0,36,37
 709 162 709 162 681 181 c 0,38,39
 657 197 657 197 592 213 c 2,40,-1
 449 248 l 2,41,42
 223 304 223 304 223 487 c 0,43,44
 223 675 223 675 373 766 c 1,45,46
 315 829 315 829 315 918 c 0,47,48
 315 966 315 966 326 1008 c 2,49,-1
 334 1038 l 2,50,51
 378 1204 378 1204 487 1267 c 0,52,53
 597 1331 597 1331 799 1331 c 2,54,-1
 1182 1331 l 1,0,-1
801 547 m 0,55,56
 801 585 801 585 773 607 c 0,57,58
 746 628 746 628 684 643 c 2,59,-1
 539 678 l 1,60,61
 506 612 506 612 506 559 c 0,62,63
 506 524 506 524 525 509 c 0,64,65
 545 493 545 493 588 483 c 2,66,-1
 770 434 l 1,67,68
 801 505 801 505 801 547 c 0,55,56
EndSplineSet
Validated: 1
EndChar

StartChar: dieresis
Encoding: 168 168 107
Width: 931
GlyphClass: 2
Flags: W
LayerCount: 2
Fore
SplineSet
1180 1311 m 1,0,-1
 1106 1034 l 1,1,-1
 829 1034 l 1,2,-1
 862 1157 l 2,3,4
 884 1238 884 1238 929 1275 c 0,5,6
 972 1311 972 1311 1057 1311 c 2,7,-1
 1180 1311 l 1,0,-1
729 1311 m 1,8,-1
 655 1034 l 1,9,-1
 379 1034 l 1,10,-1
 412 1157 l 2,11,12
 434 1239 434 1239 478 1275 c 128,-1,13
 522 1311 522 1311 606 1311 c 2,14,-1
 729 1311 l 1,8,-1
EndSplineSet
Validated: 1
EndChar

StartChar: copyright
Encoding: 169 169 108
Width: 1597
GlyphClass: 2
Flags: W
LayerCount: 2
Fore
SplineSet
1702 864 m 0,0,1
 1702 765 1702 765 1673 655 c 2,2,-1
 1651 571 l 2,3,4
 1500 0 1500 0 870 0 c 2,5,-1
 768 0 l 2,6,7
 516 0 516 0 380 117 c 128,-1,8
 244 234 244 234 244 440 c 0,9,10
 244 548 244 548 274 655 c 2,11,-1
 297 739 l 1,12,13
 449 1311 449 1311 1077 1311 c 2,14,-1
 1180 1311 l 2,15,16
 1430 1311 1430 1311 1566 1191 c 128,-1,17
 1702 1071 1702 1071 1702 864 c 0,0,1
1401 829 m 0,18,19
 1401 1065 1401 1065 1135 1065 c 2,20,-1
 1032 1065 l 2,21,22
 684 1065 684 1065 588 707 c 2,23,-1
 571 645 l 2,24,25
 549 563 549 563 549 481 c 0,26,27
 549 246 549 246 813 246 c 2,28,-1
 915 246 l 2,29,30
 1266 246 1266 246 1362 604 c 2,31,-1
 1378 666 l 2,32,33
 1401 752 1401 752 1401 829 c 0,18,19
1262 1004 m 1,34,-1
 1204 788 l 1,35,-1
 1116 788 l 2,36,37
 1042 788 1042 788 1002 763 c 0,38,39
 963 739 963 739 948 676 c 2,40,-1
 944 657 l 2,41,42
 938 628 938 628 938 606 c 0,43,44
 938 524 938 524 1047 524 c 2,45,-1
 1135 524 l 1,46,-1
 1075 309 l 1,47,-1
 1010 309 l 2,48,49
 676 309 676 309 676 557 c 0,50,51
 676 616 676 616 690 668 c 2,52,-1
 700 709 l 2,53,54
 740 865 740 865 854 935 c 0,55,56
 966 1004 966 1004 1155 1004 c 2,57,-1
 1262 1004 l 1,34,-1
EndSplineSet
Validated: 1
EndChar

StartChar: ordfeminine
Encoding: 170 170 109
Width: 1054
GlyphClass: 2
Flags: W
LayerCount: 2
Fore
SplineSet
1135 895 m 0,0,1
 1135 831 1135 831 1110 737 c 2,2,-1
 961 184 l 1,3,-1
 467 184 l 2,4,5
 341 184 341 184 268 237 c 0,6,7
 197 289 197 289 197 391 c 0,8,9
 197 444 197 444 211 492 c 0,10,11
 250 633 250 633 350 685 c 128,-1,12
 450 737 450 737 637 737 c 2,13,-1
 831 737 l 1,14,-1
 840 764 l 2,15,16
 848 790 848 790 848 813 c 0,17,18
 848 891 848 891 723 891 c 2,19,-1
 401 891 l 1,20,-1
 465 1126 l 1,21,-1
 811 1126 l 2,22,23
 982 1126 982 1126 1058 1069 c 0,24,25
 1135 1012 1135 1012 1135 895 c 0,0,1
784 559 m 1,26,-1
 621 559 l 2,27,28
 559 559 559 559 529 544 c 128,-1,29
 499 529 499 529 487 481 c 0,30,31
 481 463 481 463 481 449 c 0,32,33
 481 389 481 389 561 389 c 2,34,-1
 739 389 l 1,35,-1
 784 559 l 1,26,-1
EndSplineSet
Validated: 1
EndChar

StartChar: guillemotleft
Encoding: 171 171 110
Width: 1064
GlyphClass: 2
Flags: W
LayerCount: 2
Fore
SplineSet
1219 881 m 1,0,-1
 977 512 l 1,1,-1
 1022 143 l 1,2,-1
 766 143 l 1,3,-1
 680 512 l 1,4,-1
 942 881 l 1,5,-1
 1219 881 l 1,0,-1
778 881 m 1,6,-1
 537 512 l 1,7,-1
 582 143 l 1,8,-1
 326 143 l 1,9,-1
 240 512 l 1,10,-1
 502 881 l 1,11,-1
 778 881 l 1,6,-1
EndSplineSet
Validated: 1
EndChar

StartChar: logicalnot
Encoding: 172 172 111
Width: 1075
GlyphClass: 2
Flags: W
LayerCount: 2
Fore
SplineSet
1198 840 m 1,0,-1
 1044 266 l 1,1,-1
 788 266 l 1,2,-1
 877 594 l 1,3,-1
 262 594 l 1,4,-1
 328 840 l 1,5,-1
 1198 840 l 1,0,-1
EndSplineSet
Validated: 1
EndChar

StartChar: uni00AD
Encoding: 173 173 112
Width: 716
GlyphClass: 2
Flags: W
LayerCount: 2
Fore
SplineSet
791 655 m 1,0,-1
 725 410 l 1,1,-1
 213 410 l 1,2,-1
 279 655 l 1,3,-1
 791 655 l 1,0,-1
EndSplineSet
Validated: 1
EndChar

StartChar: registered
Encoding: 174 174 113
Width: 1064
GlyphClass: 2
Flags: W
LayerCount: 2
Fore
SplineSet
1147 838 m 0,0,1
 1147 795 1147 795 1128 713 c 2,2,-1
 1116 662 l 2,3,4
 1033 319 1033 319 647 319 c 2,5,-1
 586 319 l 2,6,7
 436 319 436 319 352 389 c 0,8,9
 270 458 270 458 270 584 c 0,10,11
 270 643 270 643 289 713 c 2,12,-1
 303 764 l 2,13,14
 399 1106 399 1106 772 1106 c 2,15,-1
 834 1106 l 2,16,17
 982 1106 982 1106 1065 1034 c 0,18,19
 1147 962 1147 962 1147 838 c 0,0,1
965 817 m 0,20,21
 965 958 965 958 805 958 c 2,22,-1
 743 958 l 2,23,24
 537 958 537 958 477 743 c 2,25,-1
 467 707 l 2,26,27
 455 658 455 658 455 608 c 0,28,29
 455 467 455 467 612 467 c 2,30,-1
 674 467 l 2,31,32
 882 467 882 467 942 682 c 2,33,-1
 952 719 l 2,34,35
 965 773 965 773 965 817 c 0,20,21
918 809 m 0,36,37
 918 790 918 790 911 762 c 0,38,39
 893 685 893 685 788 662 c 1,40,-1
 840 522 l 1,41,-1
 717 522 l 1,42,-1
 678 651 l 1,43,-1
 670 651 l 1,44,-1
 637 522 l 1,45,-1
 520 522 l 1,46,-1
 623 903 l 1,47,-1
 784 903 l 2,48,49
 918 903 918 903 918 809 c 0,36,37
799 786 m 0,50,51
 799 817 799 817 756 817 c 2,52,-1
 717 817 l 1,53,-1
 692 731 l 1,54,-1
 731 731 l 2,55,56
 787 731 787 731 797 768 c 0,57,58
 799 776 799 776 799 786 c 0,50,51
EndSplineSet
Validated: 1
EndChar

StartChar: macron
Encoding: 175 175 114
Width: 788
GlyphClass: 2
Flags: W
LayerCount: 2
Fore
SplineSet
1026 1290 m 1,0,-1
 965 1065 l 1,1,-1
 381 1065 l 1,2,-1
 442 1290 l 1,3,-1
 1026 1290 l 1,0,-1
EndSplineSet
Validated: 1
EndChar

StartChar: degree
Encoding: 176 176 115
Width: 1036
GlyphClass: 2
Flags: W
LayerCount: 2
Fore
SplineSet
1171 1036 m 4,0,1
 1171 969 1171 969 1157 926 c 6,2,-1
 1143 872 l 6,3,4
 1058 551 1058 551 698 551 c 6,5,-1
 682 551 l 6,6,7
 515 551 515 551 426 631 c 4,8,9
 338 710 338 710 338 842 c 4,10,11
 338 903 338 903 352 956 c 6,12,-1
 367 1010 l 6,13,14
 412 1176 412 1176 519 1253 c 4,15,16
 627 1331 627 1331 809 1331 c 6,17,-1
 825 1331 l 6,18,19
 988 1331 988 1331 1080 1250 c 4,20,21
 1171 1169 1171 1169 1171 1036 c 4,0,1
897 1020 m 4,22,23
 897 1116 897 1116 803 1116 c 6,24,-1
 782 1116 l 6,25,26
 672 1116 672 1116 635 975 c 6,27,-1
 621 920 l 6,28,29
 612 884 612 884 612 860 c 4,30,31
 612 766 612 766 707 766 c 6,32,-1
 729 766 l 6,33,34
 836 766 836 766 874 907 c 6,35,-1
 889 963 l 6,36,37
 897 992 897 992 897 1020 c 4,22,23
EndSplineSet
Validated: 1
EndChar

StartChar: plusminus
Encoding: 177 177 116
Width: 1075
GlyphClass: 2
Flags: W
LayerCount: 2
Fore
SplineSet
1204 860 m 1,0,-1
 1137 614 l 1,1,-1
 829 614 l 1,2,-1
 748 307 l 1,3,-1
 492 307 l 1,4,-1
 573 614 l 1,5,-1
 266 614 l 1,6,-1
 334 860 l 1,7,-1
 641 860 l 1,8,-1
 723 1167 l 1,9,-1
 979 1167 l 1,10,-1
 897 860 l 1,11,-1
 1204 860 l 1,0,-1
1038 246 m 1,12,-1
 973 0 l 1,13,-1
 102 0 l 1,14,-1
 168 246 l 1,15,-1
 1038 246 l 1,12,-1
EndSplineSet
Validated: 1
EndChar

StartChar: twosuperior
Encoding: 178 178 117
Width: 481
GlyphClass: 2
Flags: W
LayerCount: 2
Fore
SplineSet
567 707 m 1,0,-1
 494 430 l 1,1,-1
 217 430 l 1,2,-1
 291 707 l 1,3,-1
 567 707 l 1,0,-1
EndSplineSet
Validated: 1
EndChar

StartChar: threesuperior
Encoding: 179 179 118
Width: 481
GlyphClass: 2
Flags: W
LayerCount: 2
Fore
SplineSet
567 707 m 1,0,-1
 494 430 l 1,1,-1
 217 430 l 1,2,-1
 291 707 l 1,3,-1
 567 707 l 1,0,-1
EndSplineSet
Validated: 1
EndChar

StartChar: acute
Encoding: 180 180 119
Width: 788
GlyphClass: 2
Flags: W
LayerCount: 2
Fore
SplineSet
987 1106 m 1,0,-1
 420 1044 l 1,1,-1
 387 1270 l 1,2,-1
 954 1331 l 1,3,-1
 987 1106 l 1,0,-1
EndSplineSet
Validated: 1
EndChar

StartChar: uni00B5
Encoding: 181 181 120
Width: 1075
GlyphClass: 2
Flags: W
LayerCount: 2
Fore
SplineSet
1204 942 m 1,0,-1
 952 0 l 1,1,-1
 481 0 l 2,2,3
 350 0 350 0 278 67 c 0,4,5
 207 133 207 133 207 252 c 0,6,7
 207 320 207 320 225 389 c 2,8,-1
 375 942 l 1,9,-1
 651 942 l 1,10,-1
 500 369 l 2,11,12
 489 327 489 327 489 303 c 0,13,14
 489 225 489 225 594 225 c 2,15,-1
 735 225 l 1,16,-1
 928 942 l 1,17,-1
 1204 942 l 1,0,-1
399 0 m 1,18,-1
 307 -348 l 1,19,-1
 31 -348 l 1,20,-1
 123 0 l 1,21,-1
 399 0 l 1,18,-1
EndSplineSet
Validated: 1
EndChar

StartChar: paragraph
Encoding: 182 182 121
Width: 1402
GlyphClass: 2
Flags: W
LayerCount: 2
Fore
SplineSet
1581 1126 m 1,0,-1
 1280 0 l 1,1,-1
 625 0 l 1,2,-1
 690 246 l 1,3,-1
 672 246 l 2,4,5
 268 246 268 246 268 551 c 0,6,7
 268 626 268 626 291 707 c 0,8,9
 354 939 354 939 497 1033 c 0,10,11
 640 1126 640 1126 874 1126 c 2,12,-1
 1581 1126 l 1,0,-1
1272 922 m 1,13,-1
 1128 922 l 1,14,-1
 936 205 l 1,15,-1
 1079 205 l 1,16,-1
 1272 922 l 1,13,-1
866 901 m 1,17,-1
 815 901 l 2,18,19
 620 901 620 901 565 696 c 0,20,21
 553 647 553 647 553 608 c 0,22,23
 553 471 553 471 700 471 c 2,24,-1
 752 471 l 1,25,-1
 866 901 l 1,17,-1
EndSplineSet
Validated: 1
EndChar

StartChar: periodcentered
Encoding: 183 183 122
Width: 481
GlyphClass: 2
Flags: W
LayerCount: 2
Fore
SplineSet
567 707 m 1,0,-1
 494 430 l 1,1,-1
 217 430 l 1,2,-1
 291 707 l 1,3,-1
 567 707 l 1,0,-1
EndSplineSet
Validated: 1
EndChar

StartChar: cedilla
Encoding: 184 184 123
Width: 604
GlyphClass: 2
Flags: W
LayerCount: 2
Fore
SplineSet
440 -158 m 0,0,1
 440 -266 440 -266 380 -307 c 0,2,3
 319 -348 319 -348 193 -348 c 2,4,-1
 8 -348 l 1,5,-1
 43 -225 l 1,6,-1
 121 -225 l 2,7,8
 213 -225 213 -225 213 -166 c 0,9,10
 213 -123 213 -123 154 -123 c 2,11,-1
 84 -123 l 1,12,-1
 182 123 l 1,13,-1
 367 123 l 1,14,-1
 307 -37 l 1,15,-1
 322 -37 l 2,16,17
 371 -37 371 -37 407 -68 c 0,18,19
 440 -97 440 -97 440 -158 c 0,0,1
EndSplineSet
Validated: 1
EndChar

StartChar: onesuperior
Encoding: 185 185 124
Width: 481
GlyphClass: 2
Flags: W
LayerCount: 2
Fore
SplineSet
567 707 m 1,0,-1
 494 430 l 1,1,-1
 217 430 l 1,2,-1
 291 707 l 1,3,-1
 567 707 l 1,0,-1
EndSplineSet
Validated: 1
EndChar

StartChar: ordmasculine
Encoding: 186 186 125
Width: 1118
GlyphClass: 2
Flags: W
LayerCount: 2
Fore
SplineSet
1221 829 m 0,0,1
 1221 755 1221 755 1200 686 c 2,2,-1
 1161 543 l 2,3,4
 1111 362 1111 362 997 273 c 0,5,6
 882 184 882 184 678 184 c 2,7,-1
 580 184 l 2,8,9
 415 184 415 184 332 266 c 0,10,11
 248 348 248 348 248 483 c 0,12,13
 248 559 248 559 268 625 c 2,14,-1
 307 768 l 2,15,16
 357 948 357 948 471 1037 c 0,17,18
 586 1126 586 1126 791 1126 c 2,19,-1
 889 1126 l 2,20,21
 1054 1126 1054 1126 1137 1046 c 0,22,23
 1221 965 1221 965 1221 829 c 0,0,1
948 809 m 0,24,25
 948 905 948 905 844 905 c 2,26,-1
 745 905 l 2,27,28
 680 905 680 905 642 872 c 0,29,30
 605 839 605 839 584 768 c 2,31,-1
 528 563 l 2,32,33
 520 531 520 531 520 502 c 0,34,35
 520 406 520 406 625 406 c 2,36,-1
 723 406 l 2,37,38
 790 406 790 406 826 438 c 0,39,40
 864 472 864 472 885 543 c 2,41,-1
 940 748 l 2,42,43
 948 780 948 780 948 809 c 0,24,25
EndSplineSet
Validated: 1
EndChar

StartChar: guillemotright
Encoding: 187 187 126
Width: 1064
GlyphClass: 2
Flags: W
LayerCount: 2
Fore
SplineSet
1100 512 m 1,0,-1
 838 143 l 1,1,-1
 561 143 l 1,2,-1
 803 512 l 1,3,-1
 758 881 l 1,4,-1
 1014 881 l 1,5,-1
 1100 512 l 1,0,-1
659 512 m 1,6,-1
 397 143 l 1,7,-1
 121 143 l 1,8,-1
 362 512 l 1,9,-1
 317 881 l 1,10,-1
 573 881 l 1,11,-1
 659 512 l 1,6,-1
EndSplineSet
Validated: 1
EndChar

StartChar: onequarter
Encoding: 188 188 127
Width: 481
GlyphClass: 2
Flags: W
LayerCount: 2
Fore
SplineSet
567 707 m 1,0,-1
 494 430 l 1,1,-1
 217 430 l 1,2,-1
 291 707 l 1,3,-1
 567 707 l 1,0,-1
EndSplineSet
Validated: 1
EndChar

StartChar: onehalf
Encoding: 189 189 128
Width: 481
GlyphClass: 2
Flags: W
LayerCount: 2
Fore
SplineSet
567 707 m 1,0,-1
 494 430 l 1,1,-1
 217 430 l 1,2,-1
 291 707 l 1,3,-1
 567 707 l 1,0,-1
EndSplineSet
Validated: 1
EndChar

StartChar: threequarters
Encoding: 190 190 129
Width: 481
GlyphClass: 2
Flags: W
LayerCount: 2
Fore
SplineSet
567 707 m 1,0,-1
 494 430 l 1,1,-1
 217 430 l 1,2,-1
 291 707 l 1,3,-1
 567 707 l 1,0,-1
EndSplineSet
Validated: 1
EndChar

StartChar: questiondown
Encoding: 191 191 130
Width: 931
GlyphClass: 2
Flags: W
LayerCount: 2
Fore
SplineSet
934 963 m 1,0,-1
 854 666 l 1,1,-1
 557 666 l 1,2,-1
 637 963 l 1,3,-1
 934 963 l 1,0,-1
819 -113 m 1,4,-1
 758 -348 l 1,5,-1
 426 -348 l 2,6,7
 272 -348 272 -348 181 -285 c 128,-1,8
 90 -222 90 -222 90 -98 c 0,9,10
 90 -52 90 -52 102 4 c 2,11,-1
 104 14 l 2,12,13
 119 87 119 87 155 144 c 0,14,15
 190 200 190 200 222 227 c 0,16,17
 256 256 256 256 305 285 c 2,18,-1
 369 324 l 2,19,20
 413 351 413 351 439 372 c 0,21,22
 463 392 463 392 488 428 c 128,-1,23
 513 464 513 464 528 518 c 2,24,-1
 535 543 l 1,25,-1
 811 543 l 1,26,-1
 803 508 l 2,27,28
 770 366 770 366 719 297 c 0,29,30
 666 226 666 226 573 174 c 2,31,-1
 506 135 l 2,32,33
 472 114 472 114 452 102 c 256,34,35
 432 90 432 90 412 67 c 0,36,37
 391 43 391 43 383 12 c 2,38,-1
 377 -8 l 2,39,40
 373 -17 373 -17 373 -39 c 0,41,42
 373 -113 373 -113 500 -113 c 2,43,-1
 819 -113 l 1,4,-1
EndSplineSet
Validated: 1
EndChar

StartChar: Agrave
Encoding: 192 192 131
Width: 1361
GlyphClass: 2
Flags: W
LayerCount: 2
Fore
SplineSet
1303 1434 m 1,0,-1
 1270 1208 l 1,1,-1
 702 1270 l 1,2,-1
 735 1495 l 1,3,-1
 1303 1434 l 1,0,-1
1321 0 m 1,4,-1
 1044 0 l 1,5,-1
 1016 184 l 1,6,-1
 489 184 l 1,7,-1
 365 0 l 1,8,-1
 41 0 l 1,9,-1
 813 1126 l 1,10,-1
 1151 1126 l 1,11,-1
 1321 0 l 1,4,-1
981 420 m 1,12,-1
 918 827 l 1,13,-1
 647 420 l 1,14,-1
 981 420 l 1,12,-1
EndSplineSet
Validated: 1
EndChar

StartChar: Aacute
Encoding: 193 193 132
Width: 1361
GlyphClass: 2
Flags: W
LayerCount: 2
Fore
SplineSet
1274 1270 m 1,0,-1
 707 1208 l 1,1,-1
 674 1434 l 1,2,-1
 1241 1495 l 1,3,-1
 1274 1270 l 1,0,-1
1321 0 m 1,4,-1
 1044 0 l 1,5,-1
 1016 184 l 1,6,-1
 489 184 l 1,7,-1
 365 0 l 1,8,-1
 41 0 l 1,9,-1
 813 1126 l 1,10,-1
 1151 1126 l 1,11,-1
 1321 0 l 1,4,-1
981 420 m 1,12,-1
 918 827 l 1,13,-1
 647 420 l 1,14,-1
 981 420 l 1,12,-1
EndSplineSet
Validated: 1
EndChar

StartChar: Acircumflex
Encoding: 194 194 133
Width: 1361
GlyphClass: 2
Flags: W
LayerCount: 2
Fore
SplineSet
1384 1425 m 1,0,-1
 1325 1208 l 1,1,-1
 1006 1311 l 1,2,-1
 588 1208 l 1,3,-1
 651 1444 l 1,4,-1
 1032 1556 l 1,5,-1
 1384 1425 l 1,0,-1
1321 0 m 1,6,-1
 1044 0 l 1,7,-1
 1016 184 l 1,8,-1
 489 184 l 1,9,-1
 365 0 l 1,10,-1
 41 0 l 1,11,-1
 813 1126 l 1,12,-1
 1151 1126 l 1,13,-1
 1321 0 l 1,6,-1
981 420 m 1,14,-1
 918 827 l 1,15,-1
 647 420 l 1,16,-1
 981 420 l 1,14,-1
EndSplineSet
Validated: 1
EndChar

StartChar: Atilde
Encoding: 195 195 134
Width: 1361
GlyphClass: 2
Flags: W
LayerCount: 2
Fore
SplineSet
1386 1444 m 1,0,-1
 1343 1280 l 1,1,2
 1241 1208 1241 1208 1128 1208 c 0,3,4
 1079 1208 1079 1208 954 1234 c 128,-1,5
 829 1260 829 1260 791 1260 c 2,6,-1
 600 1260 l 1,7,-1
 645 1423 l 1,8,9
 744 1495 744 1495 858 1495 c 0,10,11
 923 1495 923 1495 1044 1469 c 0,12,13
 1160 1444 1160 1444 1196 1444 c 2,14,-1
 1386 1444 l 1,0,-1
1321 0 m 1,15,-1
 1044 0 l 1,16,-1
 1016 184 l 1,17,-1
 489 184 l 1,18,-1
 365 0 l 1,19,-1
 41 0 l 1,20,-1
 813 1126 l 1,21,-1
 1151 1126 l 1,22,-1
 1321 0 l 1,15,-1
981 420 m 1,23,-1
 918 827 l 1,24,-1
 647 420 l 1,25,-1
 981 420 l 1,23,-1
EndSplineSet
Validated: 1
EndChar

StartChar: Adieresis
Encoding: 196 196 135
Width: 1361
GlyphClass: 2
Flags: W
LayerCount: 2
Fore
SplineSet
1436 1485 m 1,0,-1
 1362 1208 l 1,1,-1
 1085 1208 l 1,2,-1
 1118 1331 l 2,3,4
 1140 1412 1140 1412 1185 1449 c 0,5,6
 1228 1485 1228 1485 1313 1485 c 2,7,-1
 1436 1485 l 1,0,-1
985 1485 m 1,8,-1
 911 1208 l 1,9,-1
 635 1208 l 1,10,-1
 668 1331 l 2,11,12
 690 1413 690 1413 734 1449 c 128,-1,13
 778 1485 778 1485 862 1485 c 2,14,-1
 985 1485 l 1,8,-1
1321 0 m 1,15,-1
 1044 0 l 1,16,-1
 1016 184 l 1,17,-1
 489 184 l 1,18,-1
 365 0 l 1,19,-1
 41 0 l 1,20,-1
 813 1126 l 1,21,-1
 1151 1126 l 1,22,-1
 1321 0 l 1,15,-1
981 420 m 1,23,-1
 918 827 l 1,24,-1
 647 420 l 1,25,-1
 981 420 l 1,23,-1
EndSplineSet
Validated: 1
EndChar

StartChar: Aring
Encoding: 197 197 136
Width: 1361
GlyphClass: 2
Flags: W
LayerCount: 2
Fore
SplineSet
1272 1417 m 0,0,1
 1272 1288 1272 1288 1184 1218 c 0,2,3
 1095 1147 1095 1147 963 1147 c 0,4,5
 863 1147 863 1147 802 1194 c 128,-1,6
 741 1241 741 1241 741 1327 c 0,7,8
 741 1454 741 1454 829 1526 c 0,9,10
 916 1597 916 1597 1051 1597 c 0,11,12
 1157 1597 1157 1597 1215 1547 c 0,13,14
 1272 1498 1272 1498 1272 1417 c 0,0,1
1321 0 m 1,15,-1
 1044 0 l 1,16,-1
 1016 184 l 1,17,-1
 489 184 l 1,18,-1
 365 0 l 1,19,-1
 41 0 l 1,20,-1
 813 1126 l 1,21,-1
 1151 1126 l 1,22,-1
 1321 0 l 1,15,-1
1094 1399 m 0,23,24
 1094 1464 1094 1464 1026 1464 c 0,25,26
 975 1464 975 1464 948 1431 c 0,27,28
 920 1397 920 1397 920 1346 c 0,29,30
 920 1280 920 1280 989 1280 c 0,31,32
 1042 1280 1042 1280 1068 1313 c 0,33,34
 1094 1347 1094 1347 1094 1399 c 0,23,24
981 420 m 1,35,-1
 918 827 l 1,36,-1
 647 420 l 1,37,-1
 981 420 l 1,35,-1
EndSplineSet
Validated: 1
EndChar

StartChar: AE
Encoding: 198 198 137
Width: 1679
GlyphClass: 2
Flags: W
LayerCount: 2
Fore
SplineSet
1878 1126 m 1,0,-1
 1817 891 l 1,1,-1
 1325 891 l 1,2,-1
 1270 686 l 1,3,-1
 1741 686 l 1,4,-1
 1677 451 l 1,5,-1
 1206 451 l 1,6,-1
 1149 236 l 1,7,-1
 1640 236 l 1,8,-1
 1577 0 l 1,9,-1
 809 0 l 1,10,-1
 866 215 l 1,11,-1
 516 215 l 1,12,-1
 360 0 l 1,13,-1
 20 0 l 1,14,-1
 868 1126 l 1,15,-1
 1878 1126 l 1,0,-1
1069 975 m 1,16,-1
 688 451 l 1,17,-1
 930 451 l 1,18,-1
 1069 975 l 1,16,-1
EndSplineSet
Validated: 1
EndChar

StartChar: Ccedilla
Encoding: 199 199 138
Width: 1034
GlyphClass: 2
Flags: W
LayerCount: 2
Fore
SplineSet
1253 1126 m 1,0,-1
 1190 885 l 1,1,-1
 842 885 l 2,2,3
 716 885 716 885 649 819 c 0,4,5
 583 754 583 754 545 618 c 2,6,-1
 520 528 l 2,7,8
 498 450 498 450 498 391 c 0,9,10
 498 242 498 242 674 242 c 2,11,-1
 1018 242 l 1,12,-1
 952 0 l 1,13,-1
 711 0 l 1,14,-1
 696 -37 l 1,15,-1
 711 -37 l 2,16,17
 760 -37 760 -37 796 -68 c 0,18,19
 829 -97 829 -97 829 -158 c 0,20,21
 829 -266 829 -266 769 -307 c 0,22,23
 708 -348 708 -348 582 -348 c 2,24,-1
 397 -348 l 1,25,-1
 432 -225 l 1,26,-1
 510 -225 l 2,27,28
 602 -225 602 -225 602 -166 c 0,29,30
 602 -123 602 -123 543 -123 c 2,31,-1
 473 -123 l 1,32,-1
 524 6 l 1,33,34
 376 27 376 27 296 116 c 0,35,36
 217 204 217 204 217 350 c 0,37,38
 217 421 217 421 244 532 c 2,39,-1
 270 635 l 2,40,41
 336 890 336 890 486 1008 c 0,42,43
 635 1126 635 1126 885 1126 c 2,44,-1
 1253 1126 l 1,0,-1
EndSplineSet
Validated: 1
EndChar

StartChar: Egrave
Encoding: 200 200 139
Width: 1054
GlyphClass: 2
Flags: W
LayerCount: 2
Fore
SplineSet
1159 1434 m 1,0,-1
 1126 1208 l 1,1,-1
 559 1270 l 1,2,-1
 592 1495 l 1,3,-1
 1159 1434 l 1,0,-1
1253 1126 m 1,4,-1
 1192 891 l 1,5,-1
 639 891 l 1,6,-1
 584 686 l 1,7,-1
 1116 686 l 1,8,-1
 1053 451 l 1,9,-1
 520 451 l 1,10,-1
 463 236 l 1,11,-1
 1016 236 l 1,12,-1
 952 0 l 1,13,-1
 123 0 l 1,14,-1
 424 1126 l 1,15,-1
 1253 1126 l 1,4,-1
EndSplineSet
Validated: 1
EndChar

StartChar: Eacute
Encoding: 201 201 140
Width: 1054
GlyphClass: 2
Flags: W
LayerCount: 2
Fore
SplineSet
1171 1270 m 1,0,-1
 604 1208 l 1,1,-1
 571 1434 l 1,2,-1
 1139 1495 l 1,3,-1
 1171 1270 l 1,0,-1
1253 1126 m 1,4,-1
 1192 891 l 1,5,-1
 639 891 l 1,6,-1
 584 686 l 1,7,-1
 1116 686 l 1,8,-1
 1053 451 l 1,9,-1
 520 451 l 1,10,-1
 463 236 l 1,11,-1
 1016 236 l 1,12,-1
 952 0 l 1,13,-1
 123 0 l 1,14,-1
 424 1126 l 1,15,-1
 1253 1126 l 1,4,-1
EndSplineSet
Validated: 1
EndChar

StartChar: Ecircumflex
Encoding: 202 202 141
Width: 1054
GlyphClass: 2
Flags: W
LayerCount: 2
Fore
SplineSet
1282 1425 m 1,0,-1
 1223 1208 l 1,1,-1
 903 1311 l 1,2,-1
 485 1208 l 1,3,-1
 549 1444 l 1,4,-1
 930 1556 l 1,5,-1
 1282 1425 l 1,0,-1
1253 1126 m 1,6,-1
 1192 891 l 1,7,-1
 639 891 l 1,8,-1
 584 686 l 1,9,-1
 1116 686 l 1,10,-1
 1053 451 l 1,11,-1
 520 451 l 1,12,-1
 463 236 l 1,13,-1
 1016 236 l 1,14,-1
 952 0 l 1,15,-1
 123 0 l 1,16,-1
 424 1126 l 1,17,-1
 1253 1126 l 1,6,-1
EndSplineSet
Validated: 1
EndChar

StartChar: Edieresis
Encoding: 203 203 142
Width: 1054
GlyphClass: 2
Flags: W
LayerCount: 2
Fore
SplineSet
1303 1485 m 1,0,-1
 1229 1208 l 1,1,-1
 952 1208 l 1,2,-1
 985 1331 l 2,3,4
 1007 1412 1007 1412 1052 1449 c 0,5,6
 1096 1485 1096 1485 1180 1485 c 2,7,-1
 1303 1485 l 1,0,-1
852 1485 m 1,8,-1
 778 1208 l 1,9,-1
 502 1208 l 1,10,-1
 535 1331 l 2,11,12
 557 1413 557 1413 601 1449 c 0,13,14
 644 1485 644 1485 729 1485 c 2,15,-1
 852 1485 l 1,8,-1
1253 1126 m 1,16,-1
 1192 891 l 1,17,-1
 639 891 l 1,18,-1
 584 686 l 1,19,-1
 1116 686 l 1,20,-1
 1053 451 l 1,21,-1
 520 451 l 1,22,-1
 463 236 l 1,23,-1
 1016 236 l 1,24,-1
 952 0 l 1,25,-1
 123 0 l 1,26,-1
 424 1126 l 1,27,-1
 1253 1126 l 1,16,-1
EndSplineSet
Validated: 1
EndChar

StartChar: Igrave
Encoding: 204 204 143
Width: 911
GlyphClass: 2
Flags: W
LayerCount: 2
Fore
SplineSet
1077 1434 m 1,0,-1
 1044 1208 l 1,1,-1
 477 1270 l 1,2,-1
 510 1495 l 1,3,-1
 1077 1434 l 1,0,-1
1151 1126 m 1,4,-1
 1102 942 l 1,5,-1
 846 942 l 1,6,-1
 643 184 l 1,7,-1
 899 184 l 1,8,-1
 850 0 l 1,9,-1
 61 0 l 1,10,-1
 111 184 l 1,11,-1
 367 184 l 1,12,-1
 569 942 l 1,13,-1
 313 942 l 1,14,-1
 362 1126 l 1,15,-1
 1151 1126 l 1,4,-1
EndSplineSet
Validated: 1
EndChar

StartChar: Iacute
Encoding: 205 205 144
Width: 911
GlyphClass: 2
Flags: W
LayerCount: 2
Fore
SplineSet
1090 1270 m 1,0,-1
 522 1208 l 1,1,-1
 489 1434 l 1,2,-1
 1057 1495 l 1,3,-1
 1090 1270 l 1,0,-1
1151 1126 m 1,4,-1
 1102 942 l 1,5,-1
 846 942 l 1,6,-1
 643 184 l 1,7,-1
 899 184 l 1,8,-1
 850 0 l 1,9,-1
 61 0 l 1,10,-1
 111 184 l 1,11,-1
 367 184 l 1,12,-1
 569 942 l 1,13,-1
 313 942 l 1,14,-1
 362 1126 l 1,15,-1
 1151 1126 l 1,4,-1
EndSplineSet
Validated: 1
EndChar

StartChar: Icircumflex
Encoding: 206 206 145
Width: 911
GlyphClass: 2
Flags: W
LayerCount: 2
Fore
SplineSet
1196 1425 m 1,0,-1
 1137 1208 l 1,1,-1
 817 1311 l 1,2,-1
 399 1208 l 1,3,-1
 463 1444 l 1,4,-1
 844 1556 l 1,5,-1
 1196 1425 l 1,0,-1
1151 1126 m 1,6,-1
 1102 942 l 1,7,-1
 846 942 l 1,8,-1
 643 184 l 1,9,-1
 899 184 l 1,10,-1
 850 0 l 1,11,-1
 61 0 l 1,12,-1
 111 184 l 1,13,-1
 367 184 l 1,14,-1
 569 942 l 1,15,-1
 313 942 l 1,16,-1
 362 1126 l 1,17,-1
 1151 1126 l 1,6,-1
EndSplineSet
Validated: 1
EndChar

StartChar: Idieresis
Encoding: 207 207 146
Width: 911
GlyphClass: 2
Flags: W
LayerCount: 2
Fore
SplineSet
1206 1485 m 1,0,-1
 1133 1208 l 1,1,-1
 856 1208 l 1,2,-1
 889 1331 l 2,3,4
 911 1413 911 1413 955 1449 c 0,5,6
 998 1485 998 1485 1083 1485 c 2,7,-1
 1206 1485 l 1,0,-1
756 1485 m 1,8,-1
 682 1208 l 1,9,-1
 406 1208 l 1,10,-1
 438 1331 l 2,11,12
 460 1412 460 1412 505 1449 c 0,13,14
 548 1485 548 1485 633 1485 c 2,15,-1
 756 1485 l 1,8,-1
1151 1126 m 1,16,-1
 1102 942 l 1,17,-1
 846 942 l 1,18,-1
 643 184 l 1,19,-1
 899 184 l 1,20,-1
 850 0 l 1,21,-1
 61 0 l 1,22,-1
 111 184 l 1,23,-1
 367 184 l 1,24,-1
 569 942 l 1,25,-1
 313 942 l 1,26,-1
 363 1126 l 1,27,-1
 1151 1126 l 1,16,-1
EndSplineSet
Validated: 1
EndChar

StartChar: Eth
Encoding: 208 208 147
Width: 1249
GlyphClass: 2
Flags: W
LayerCount: 2
Fore
SplineSet
1329 760 m 0,0,1
 1329 668 1329 668 1303 573 c 2,2,-1
 1276 471 l 2,3,4
 1213 224 1213 224 1056 112 c 128,-1,5
 899 0 899 0 645 0 c 2,6,-1
 123 0 l 1,7,-1
 424 1126 l 1,8,-1
 905 1126 l 2,9,10
 1108 1126 1108 1126 1218 1032 c 0,11,12
 1329 937 1329 937 1329 760 c 0,0,1
1049 721 m 0,13,14
 1049 891 1049 891 864 891 c 2,15,-1
 639 891 l 1,16,-1
 584 686 l 1,17,-1
 911 686 l 1,18,-1
 848 451 l 1,19,-1
 520 451 l 1,20,-1
 463 236 l 1,21,-1
 688 236 l 2,22,23
 937 236 937 236 1006 502 c 2,24,-1
 1032 604 l 2,25,26
 1049 675 1049 675 1049 721 c 0,13,14
EndSplineSet
Validated: 1
EndChar

StartChar: Ntilde
Encoding: 209 209 148
Width: 1249
GlyphClass: 2
Flags: W
LayerCount: 2
Fore
SplineSet
1346 1444 m 1,0,-1
 1303 1280 l 1,1,2
 1201 1208 1201 1208 1087 1208 c 0,3,4
 1038 1208 1038 1208 913 1234 c 128,-1,5
 788 1260 788 1260 750 1260 c 2,6,-1
 559 1260 l 1,7,-1
 604 1423 l 1,8,9
 703 1495 703 1495 817 1495 c 0,10,11
 883 1495 883 1495 1004 1469 c 0,12,13
 1120 1444 1120 1444 1155 1444 c 2,14,-1
 1346 1444 l 1,0,-1
1427 1126 m 1,15,-1
 1126 0 l 1,16,-1
 850 0 l 1,17,-1
 588 705 l 1,18,-1
 399 0 l 1,19,-1
 123 0 l 1,20,-1
 424 1126 l 1,21,-1
 700 1126 l 1,22,-1
 969 442 l 1,23,-1
 1151 1126 l 1,24,-1
 1427 1126 l 1,15,-1
EndSplineSet
Validated: 1
EndChar

StartChar: Ograve
Encoding: 210 210 149
Width: 1269
GlyphClass: 2
Flags: W
LayerCount: 2
Fore
SplineSet
1262 1434 m 1,0,-1
 1229 1208 l 1,1,-1
 662 1270 l 1,2,-1
 694 1495 l 1,3,-1
 1262 1434 l 1,0,-1
1350 766 m 0,4,5
 1350 672 1350 672 1323 573 c 2,6,-1
 1296 471 l 2,7,8
 1233 223 1233 223 1080 112 c 0,9,10
 926 0 926 0 686 0 c 2,11,-1
 625 0 l 2,12,13
 433 0 433 0 327 95 c 128,-1,14
 221 190 221 190 221 365 c 0,15,16
 221 446 221 446 248 553 c 2,17,-1
 274 655 l 2,18,19
 337 904 337 904 490 1015 c 128,-1,20
 643 1126 643 1126 885 1126 c 2,21,-1
 946 1126 l 2,22,23
 1140 1126 1140 1126 1244 1032 c 0,24,25
 1350 937 1350 937 1350 766 c 0,4,5
1073 735 m 0,26,27
 1073 891 1073 891 905 891 c 2,28,-1
 834 891 l 2,29,30
 617 891 617 891 543 614 c 2,31,-1
 516 512 l 2,32,33
 500 445 500 445 500 393 c 0,34,35
 500 236 500 236 668 236 c 2,36,-1
 739 236 l 2,37,38
 955 236 955 236 1028 512 c 2,39,-1
 1055 614 l 2,40,41
 1073 692 1073 692 1073 735 c 0,26,27
EndSplineSet
Validated: 1
EndChar

StartChar: Oacute
Encoding: 211 211 150
Width: 1269
GlyphClass: 2
Flags: W
LayerCount: 2
Fore
SplineSet
1233 1270 m 1,0,-1
 666 1208 l 1,1,-1
 633 1434 l 1,2,-1
 1200 1495 l 1,3,-1
 1233 1270 l 1,0,-1
1350 766 m 0,4,5
 1350 672 1350 672 1323 573 c 2,6,-1
 1296 471 l 2,7,8
 1233 223 1233 223 1080 112 c 0,9,10
 926 0 926 0 686 0 c 2,11,-1
 625 0 l 2,12,13
 433 0 433 0 327 95 c 128,-1,14
 221 190 221 190 221 365 c 0,15,16
 221 446 221 446 248 553 c 2,17,-1
 274 655 l 2,18,19
 337 904 337 904 490 1015 c 128,-1,20
 643 1126 643 1126 885 1126 c 2,21,-1
 946 1126 l 2,22,23
 1140 1126 1140 1126 1244 1032 c 0,24,25
 1350 937 1350 937 1350 766 c 0,4,5
1073 735 m 0,26,27
 1073 891 1073 891 905 891 c 2,28,-1
 834 891 l 2,29,30
 617 891 617 891 543 614 c 2,31,-1
 516 512 l 2,32,33
 500 445 500 445 500 393 c 0,34,35
 500 236 500 236 668 236 c 2,36,-1
 739 236 l 2,37,38
 955 236 955 236 1028 512 c 2,39,-1
 1055 614 l 2,40,41
 1073 692 1073 692 1073 735 c 0,26,27
EndSplineSet
Validated: 1
EndChar

StartChar: Ocircumflex
Encoding: 212 212 151
Width: 1269
GlyphClass: 2
Flags: W
LayerCount: 2
Fore
SplineSet
1343 1425 m 1,0,-1
 1284 1208 l 1,1,-1
 965 1311 l 1,2,-1
 547 1208 l 1,3,-1
 610 1444 l 1,4,-1
 991 1556 l 1,5,-1
 1343 1425 l 1,0,-1
1350 766 m 0,6,7
 1350 672 1350 672 1323 573 c 2,8,-1
 1296 471 l 2,9,10
 1233 223 1233 223 1080 112 c 0,11,12
 926 0 926 0 686 0 c 2,13,-1
 625 0 l 2,14,15
 433 0 433 0 327 95 c 128,-1,16
 221 190 221 190 221 365 c 0,17,18
 221 446 221 446 248 553 c 2,19,-1
 274 655 l 2,20,21
 337 904 337 904 490 1015 c 128,-1,22
 643 1126 643 1126 885 1126 c 2,23,-1
 946 1126 l 2,24,25
 1140 1126 1140 1126 1244 1032 c 0,26,27
 1350 937 1350 937 1350 766 c 0,6,7
1073 735 m 0,28,29
 1073 891 1073 891 905 891 c 2,30,-1
 834 891 l 2,31,32
 617 891 617 891 543 614 c 2,33,-1
 516 512 l 2,34,35
 500 445 500 445 500 393 c 0,36,37
 500 236 500 236 668 236 c 2,38,-1
 739 236 l 2,39,40
 955 236 955 236 1028 512 c 2,41,-1
 1055 614 l 2,42,43
 1073 692 1073 692 1073 735 c 0,28,29
EndSplineSet
Validated: 1
EndChar

StartChar: Otilde
Encoding: 213 213 152
Width: 1269
GlyphClass: 2
Flags: W
LayerCount: 2
Fore
SplineSet
1325 1444 m 1,0,-1
 1282 1280 l 1,1,2
 1180 1208 1180 1208 1067 1208 c 0,3,4
 1018 1208 1018 1208 893 1234 c 128,-1,5
 768 1260 768 1260 729 1260 c 2,6,-1
 539 1260 l 1,7,-1
 584 1423 l 1,8,9
 683 1495 683 1495 797 1495 c 0,10,11
 862 1495 862 1495 983 1469 c 0,12,13
 1099 1444 1099 1444 1135 1444 c 2,14,-1
 1325 1444 l 1,0,-1
1350 766 m 0,15,16
 1350 672 1350 672 1323 573 c 2,17,-1
 1296 471 l 2,18,19
 1233 223 1233 223 1080 112 c 0,20,21
 926 0 926 0 686 0 c 2,22,-1
 625 0 l 2,23,24
 433 0 433 0 327 95 c 128,-1,25
 221 190 221 190 221 365 c 0,26,27
 221 446 221 446 248 553 c 2,28,-1
 274 655 l 2,29,30
 337 904 337 904 490 1015 c 128,-1,31
 643 1126 643 1126 885 1126 c 2,32,-1
 946 1126 l 2,33,34
 1140 1126 1140 1126 1244 1032 c 0,35,36
 1350 937 1350 937 1350 766 c 0,15,16
1073 735 m 0,37,38
 1073 891 1073 891 905 891 c 2,39,-1
 834 891 l 2,40,41
 617 891 617 891 543 614 c 2,42,-1
 516 512 l 2,43,44
 500 445 500 445 500 393 c 0,45,46
 500 236 500 236 668 236 c 2,47,-1
 739 236 l 2,48,49
 955 236 955 236 1028 512 c 2,50,-1
 1055 614 l 2,51,52
 1073 692 1073 692 1073 735 c 0,37,38
EndSplineSet
Validated: 1
EndChar

StartChar: Odieresis
Encoding: 214 214 153
Width: 1269
GlyphClass: 2
Flags: W
LayerCount: 2
Fore
SplineSet
1364 1485 m 1,0,-1
 1290 1208 l 1,1,-1
 1014 1208 l 1,2,-1
 1047 1331 l 2,3,4
 1069 1413 1069 1413 1113 1449 c 0,5,6
 1156 1485 1156 1485 1241 1485 c 2,7,-1
 1364 1485 l 1,0,-1
913 1485 m 1,8,-1
 840 1208 l 1,9,-1
 563 1208 l 1,10,-1
 596 1331 l 2,11,12
 618 1412 618 1412 663 1449 c 0,13,14
 707 1485 707 1485 791 1485 c 2,15,-1
 913 1485 l 1,8,-1
1350 760 m 0,16,17
 1350 672 1350 672 1323 573 c 2,18,-1
 1296 471 l 2,19,20
 1233 223 1233 223 1080 112 c 0,21,22
 926 0 926 0 686 0 c 2,23,-1
 625 0 l 2,24,25
 433 0 433 0 328 98 c 0,26,27
 221 197 221 197 221 371 c 0,28,29
 221 446 221 446 248 553 c 2,30,-1
 274 655 l 2,31,32
 337 903 337 903 491 1015 c 0,33,34
 644 1126 644 1126 885 1126 c 2,35,-1
 946 1126 l 2,36,37
 1140 1126 1140 1126 1244 1029 c 0,38,39
 1350 931 1350 931 1350 760 c 0,16,17
1073 729 m 0,40,41
 1073 891 1073 891 905 891 c 2,42,-1
 834 891 l 2,43,44
 617 891 617 891 543 614 c 2,45,-1
 516 512 l 2,46,47
 500 445 500 445 500 397 c 0,48,49
 500 236 500 236 668 236 c 2,50,-1
 739 236 l 2,51,52
 955 236 955 236 1028 512 c 2,53,-1
 1055 614 l 2,54,55
 1073 692 1073 692 1073 729 c 0,40,41
EndSplineSet
Validated: 1
EndChar

StartChar: multiply
Encoding: 215 215 154
Width: 1079
GlyphClass: 2
Flags: W
LayerCount: 2
Fore
SplineSet
1239 981 m 1,0,-1
 905 717 l 1,1,-1
 1098 453 l 1,2,-1
 879 279 l 1,3,-1
 684 543 l 1,4,-1
 348 279 l 1,5,-1
 223 453 l 1,6,-1
 559 717 l 1,7,-1
 365 981 l 1,8,-1
 584 1155 l 1,9,-1
 780 891 l 1,10,-1
 1114 1155 l 1,11,-1
 1239 981 l 1,0,-1
EndSplineSet
Validated: 1
EndChar

StartChar: Oslash
Encoding: 216 216 155
Width: 1269
GlyphClass: 2
Flags: W
LayerCount: 2
Fore
SplineSet
1432 1331 m 1,0,-1
 1225 1047 l 1,1,2
 1350 951 1350 951 1350 760 c 0,3,4
 1350 672 1350 672 1323 573 c 2,5,-1
 1296 471 l 2,6,7
 1233 223 1233 223 1080 112 c 0,8,9
 926 0 926 0 686 0 c 2,10,-1
 625 0 l 2,11,12
 550 0 550 0 483 16 c 1,13,-1
 324 -205 l 1,14,-1
 139 -205 l 1,15,-1
 346 82 l 1,16,17
 221 178 221 178 221 371 c 0,18,19
 221 446 221 446 248 553 c 2,20,-1
 274 655 l 2,21,22
 337 904 337 904 490 1015 c 128,-1,23
 643 1126 643 1126 885 1126 c 2,24,-1
 946 1126 l 2,25,26
 1020 1126 1020 1126 1087 1110 c 1,27,-1
 1247 1331 l 1,28,-1
 1432 1331 l 1,0,-1
1073 729 m 0,29,30
 1073 777 1073 777 1057 813 c 1,31,-1
 641 238 l 1,32,33
 651 236 651 236 668 236 c 2,34,-1
 739 236 l 2,35,36
 955 236 955 236 1028 512 c 2,37,-1
 1055 614 l 2,38,39
 1073 692 1073 692 1073 729 c 0,29,30
930 891 m 1,40,-1
 834 891 l 2,41,42
 617 891 617 891 543 614 c 2,43,-1
 516 512 l 2,44,45
 500 445 500 445 500 397 c 0,46,47
 500 343 500 343 514 315 c 1,48,-1
 930 891 l 1,40,-1
EndSplineSet
Validated: 1
EndChar

StartChar: Ugrave
Encoding: 217 217 156
Width: 1249
GlyphClass: 2
Flags: W
LayerCount: 2
Fore
SplineSet
1241 1434 m 1,0,-1
 1208 1208 l 1,1,-1
 641 1270 l 1,2,-1
 674 1495 l 1,3,-1
 1241 1434 l 1,0,-1
1427 1126 m 1,4,-1
 1262 492 l 2,5,6
 1196 240 1196 240 1049 120 c 128,-1,7
 902 0 902 0 666 0 c 2,8,-1
 625 0 l 2,9,10
 439 0 439 0 341 94 c 0,11,12
 242 188 242 188 242 358 c 0,13,14
 242 447 242 447 270 553 c 2,15,-1
 424 1126 l 1,16,-1
 700 1126 l 1,17,-1
 543 532 l 2,18,19
 518 434 518 434 518 383 c 0,20,21
 518 236 518 236 662 236 c 2,22,-1
 709 236 l 2,23,24
 915 236 915 236 993 532 c 2,25,-1
 1151 1126 l 1,26,-1
 1427 1126 l 1,4,-1
EndSplineSet
Validated: 1
EndChar

StartChar: Uacute
Encoding: 218 218 157
Width: 1249
GlyphClass: 2
Flags: W
LayerCount: 2
Fore
SplineSet
1223 1270 m 1,0,-1
 655 1208 l 1,1,-1
 623 1434 l 1,2,-1
 1190 1495 l 1,3,-1
 1223 1270 l 1,0,-1
1427 1126 m 1,4,-1
 1262 492 l 2,5,6
 1196 240 1196 240 1049 120 c 128,-1,7
 902 0 902 0 666 0 c 2,8,-1
 625 0 l 2,9,10
 439 0 439 0 341 94 c 0,11,12
 242 188 242 188 242 358 c 0,13,14
 242 447 242 447 270 553 c 2,15,-1
 424 1126 l 1,16,-1
 700 1126 l 1,17,-1
 543 532 l 2,18,19
 518 434 518 434 518 383 c 0,20,21
 518 236 518 236 662 236 c 2,22,-1
 709 236 l 2,23,24
 915 236 915 236 993 532 c 2,25,-1
 1151 1126 l 1,26,-1
 1427 1126 l 1,4,-1
EndSplineSet
Validated: 1
EndChar

StartChar: Ucircumflex
Encoding: 219 219 158
Width: 1249
GlyphClass: 2
Flags: W
LayerCount: 2
Fore
SplineSet
1364 1425 m 1,0,-1
 1305 1208 l 1,1,-1
 985 1311 l 1,2,-1
 567 1208 l 1,3,-1
 631 1444 l 1,4,-1
 1012 1556 l 1,5,-1
 1364 1425 l 1,0,-1
1427 1126 m 1,6,-1
 1262 492 l 2,7,8
 1196 240 1196 240 1049 120 c 128,-1,9
 902 0 902 0 666 0 c 2,10,-1
 625 0 l 2,11,12
 439 0 439 0 341 94 c 0,13,14
 242 188 242 188 242 358 c 0,15,16
 242 447 242 447 270 553 c 2,17,-1
 424 1126 l 1,18,-1
 700 1126 l 1,19,-1
 543 532 l 2,20,21
 518 434 518 434 518 383 c 0,22,23
 518 236 518 236 662 236 c 2,24,-1
 709 236 l 2,25,26
 915 236 915 236 993 532 c 2,27,-1
 1151 1126 l 1,28,-1
 1427 1126 l 1,6,-1
EndSplineSet
Validated: 1
EndChar

StartChar: Udieresis
Encoding: 220 220 159
Width: 1249
GlyphClass: 2
Flags: W
LayerCount: 2
Fore
SplineSet
1374 1485 m 1,0,-1
 1300 1208 l 1,1,-1
 1024 1208 l 1,2,-1
 1057 1331 l 2,3,4
 1079 1413 1079 1413 1123 1449 c 0,5,6
 1166 1485 1166 1485 1251 1485 c 2,7,-1
 1374 1485 l 1,0,-1
924 1485 m 1,8,-1
 850 1208 l 1,9,-1
 573 1208 l 1,10,-1
 606 1331 l 2,11,12
 628 1412 628 1412 673 1449 c 0,13,14
 716 1485 716 1485 801 1485 c 2,15,-1
 924 1485 l 1,8,-1
1427 1126 m 1,16,-1
 1262 492 l 2,17,18
 1196 240 1196 240 1049 120 c 128,-1,19
 902 0 902 0 666 0 c 2,20,-1
 625 0 l 2,21,22
 439 0 439 0 341 94 c 0,23,24
 242 188 242 188 242 358 c 0,25,26
 242 447 242 447 270 553 c 2,27,-1
 424 1126 l 1,28,-1
 700 1126 l 1,29,-1
 543 532 l 2,30,31
 518 434 518 434 518 383 c 0,32,33
 518 236 518 236 662 236 c 2,34,-1
 709 236 l 2,35,36
 915 236 915 236 993 532 c 2,37,-1
 1151 1126 l 1,38,-1
 1427 1126 l 1,16,-1
EndSplineSet
Validated: 1
EndChar

StartChar: Yacute
Encoding: 221 221 160
Width: 1177
GlyphClass: 2
Flags: W
LayerCount: 2
Fore
SplineSet
1151 1270 m 1,0,-1
 584 1208 l 1,1,-1
 551 1434 l 1,2,-1
 1118 1495 l 1,3,-1
 1151 1270 l 1,0,-1
1458 1126 m 1,4,-1
 813 317 l 1,5,-1
 727 0 l 1,6,-1
 451 0 l 1,7,-1
 537 317 l 1,8,-1
 322 1126 l 1,9,-1
 608 1126 l 1,10,-1
 725 584 l 1,11,-1
 1130 1126 l 1,12,-1
 1458 1126 l 1,4,-1
EndSplineSet
Validated: 1
EndChar

StartChar: Thorn
Encoding: 222 222 161
Width: 1187
GlyphClass: 2
Flags: W
LayerCount: 2
Fore
SplineSet
1249 676 m 0,0,1
 1249 605 1249 605 1229 532 c 0,2,3
 1197 417 1197 417 1146 338 c 0,4,5
 1098 264 1098 264 1019 225 c 0,6,7
 944 188 944 188 861 176 c 0,8,9
 780 164 780 164 657 164 c 2,10,-1
 442 164 l 1,11,-1
 399 0 l 1,12,-1
 123 0 l 1,13,-1
 424 1126 l 1,14,-1
 700 1126 l 1,15,-1
 657 963 l 1,16,-1
 829 963 l 2,17,18
 1249 963 1249 963 1249 676 c 0,0,1
967 625 m 0,19,20
 967 687 967 687 921 712 c 128,-1,21
 875 737 875 737 780 737 c 2,22,-1
 596 737 l 1,23,-1
 504 389 l 1,24,-1
 686 389 l 2,25,26
 808 389 808 389 869 421 c 0,27,28
 929 452 929 452 956 553 c 0,29,30
 967 588 967 588 967 625 c 0,19,20
EndSplineSet
Validated: 1
EndChar

StartChar: germandbls
Encoding: 223 223 162
Width: 1146
GlyphClass: 2
Flags: W
LayerCount: 2
Fore
SplineSet
1200 1073 m 0,0,1
 1200 1001 1200 1001 1171 931 c 0,2,3
 1141 860 1141 860 1109 820 c 0,4,5
 1081 786 1081 786 1047 734 c 0,6,7
 1018 690 1018 690 1018 659 c 0,8,9
 1018 636 1018 636 1042 608 c 0,10,11
 1058 589 1058 589 1098 553 c 0,12,13
 1130 524 1130 524 1153 478 c 0,14,15
 1178 428 1178 428 1178 375 c 0,16,17
 1178 330 1178 330 1163 281 c 0,18,19
 1139 189 1139 189 1098 130 c 0,20,21
 1059 73 1059 73 999 45 c 0,22,23
 942 18 942 18 890 9 c 256,24,25
 838 0 838 0 764 0 c 2,26,-1
 502 0 l 1,27,-1
 561 225 l 1,28,-1
 766 225 l 2,29,30
 802 225 802 225 821 229 c 0,31,32
 842 234 842 234 861 251 c 0,33,34
 882 270 882 270 889 301 c 0,35,36
 893 316 893 316 893 326 c 0,37,38
 893 353 893 353 870 384 c 0,39,40
 849 412 849 412 821 437 c 0,41,42
 795 460 795 460 772 503 c 0,43,44
 750 544 750 544 750 594 c 0,45,46
 750 686 750 686 831 817 c 0,47,48
 913 950 913 950 913 1012 c 0,49,50
 913 1048 913 1048 892 1072 c 128,-1,51
 871 1096 871 1096 829 1096 c 2,52,-1
 803 1096 l 2,53,54
 740 1096 740 1096 706 1056 c 0,55,56
 671 1015 671 1015 649 932 c 2,57,-1
 377 -92 l 2,58,59
 338 -237 338 -237 267 -293 c 0,60,61
 197 -348 197 -348 72 -348 c 2,62,-1
 -135 -348 l 1,63,-1
 -74 -123 l 1,64,-1
 20 -123 l 2,65,66
 90 -123 90 -123 111 -45 c 2,67,-1
 373 938 l 2,68,69
 478 1331 478 1331 854 1331 c 2,70,-1
 874 1331 l 2,71,72
 1025 1331 1025 1331 1112 1263 c 0,73,74
 1200 1194 1200 1194 1200 1073 c 0,0,1
EndSplineSet
Validated: 1
EndChar

StartChar: agrave
Encoding: 224 224 163
Width: 1034
GlyphClass: 2
Flags: W
LayerCount: 2
Fore
SplineSet
1098 1270 m 1,0,-1
 1065 1044 l 1,1,-1
 498 1106 l 1,2,-1
 530 1331 l 1,3,-1
 1098 1270 l 1,0,-1
1085 715 m 0,4,5
 1085 643 1085 643 1061 553 c 2,6,-1
 911 0 l 1,7,-1
 418 0 l 2,8,9
 147 0 147 0 147 205 c 0,10,11
 147 256 147 256 162 307 c 0,12,13
 201 449 201 449 301 501 c 128,-1,14
 401 553 401 553 588 553 c 2,15,-1
 782 553 l 1,16,-1
 791 580 l 2,17,18
 799 606 799 606 799 631 c 0,19,20
 799 707 799 707 674 707 c 2,21,-1
 352 707 l 1,22,-1
 416 942 l 1,23,-1
 762 942 l 2,24,25
 933 942 933 942 1009 887 c 128,-1,26
 1085 832 1085 832 1085 715 c 0,4,5
735 375 m 1,27,-1
 571 375 l 2,28,29
 512 375 512 375 480 359 c 0,30,31
 450 344 450 344 438 297 c 0,32,33
 432 279 432 279 432 262 c 0,34,35
 432 205 432 205 512 205 c 2,36,-1
 690 205 l 1,37,-1
 735 375 l 1,27,-1
EndSplineSet
Validated: 1
EndChar

StartChar: aacute
Encoding: 225 225 164
Width: 1034
GlyphClass: 2
Flags: W
LayerCount: 2
Fore
SplineSet
1069 1106 m 1,0,-1
 502 1044 l 1,1,-1
 469 1270 l 1,2,-1
 1036 1331 l 1,3,-1
 1069 1106 l 1,0,-1
1085 715 m 0,4,5
 1085 643 1085 643 1061 553 c 2,6,-1
 911 0 l 1,7,-1
 418 0 l 2,8,9
 147 0 147 0 147 205 c 0,10,11
 147 256 147 256 162 307 c 0,12,13
 201 449 201 449 301 501 c 128,-1,14
 401 553 401 553 588 553 c 2,15,-1
 782 553 l 1,16,-1
 791 580 l 2,17,18
 799 606 799 606 799 631 c 0,19,20
 799 707 799 707 674 707 c 2,21,-1
 352 707 l 1,22,-1
 416 942 l 1,23,-1
 762 942 l 2,24,25
 933 942 933 942 1009 887 c 128,-1,26
 1085 832 1085 832 1085 715 c 0,4,5
735 375 m 1,27,-1
 571 375 l 2,28,29
 512 375 512 375 480 359 c 0,30,31
 450 344 450 344 438 297 c 0,32,33
 432 279 432 279 432 262 c 0,34,35
 432 205 432 205 512 205 c 2,36,-1
 690 205 l 1,37,-1
 735 375 l 1,27,-1
EndSplineSet
Validated: 1
EndChar

StartChar: acircumflex
Encoding: 226 226 165
Width: 1034
GlyphClass: 2
Flags: W
LayerCount: 2
Fore
SplineSet
1192 1262 m 1,0,-1
 1133 1044 l 1,1,-1
 813 1147 l 1,2,-1
 395 1044 l 1,3,-1
 459 1280 l 1,4,-1
 840 1393 l 1,5,-1
 1192 1262 l 1,0,-1
1085 715 m 0,6,7
 1085 643 1085 643 1061 553 c 2,8,-1
 911 0 l 1,9,-1
 418 0 l 2,10,11
 147 0 147 0 147 205 c 0,12,13
 147 256 147 256 162 307 c 0,14,15
 201 449 201 449 301 501 c 128,-1,16
 401 553 401 553 588 553 c 2,17,-1
 782 553 l 1,18,-1
 791 580 l 2,19,20
 799 606 799 606 799 631 c 0,21,22
 799 707 799 707 674 707 c 2,23,-1
 352 707 l 1,24,-1
 416 942 l 1,25,-1
 762 942 l 2,26,27
 933 942 933 942 1009 887 c 128,-1,28
 1085 832 1085 832 1085 715 c 0,6,7
735 375 m 1,29,-1
 571 375 l 2,30,31
 512 375 512 375 480 359 c 0,32,33
 450 344 450 344 438 297 c 0,34,35
 432 279 432 279 432 262 c 0,36,37
 432 205 432 205 512 205 c 2,38,-1
 690 205 l 1,39,-1
 735 375 l 1,29,-1
EndSplineSet
Validated: 1
EndChar

StartChar: atilde
Encoding: 227 227 166
Width: 1034
GlyphClass: 2
Flags: W
LayerCount: 2
Fore
SplineSet
1235 1270 m 1,0,-1
 1192 1106 l 1,1,2
 1090 1034 1090 1034 977 1034 c 0,3,4
 928 1034 928 1034 803 1060 c 0,5,6
 682 1085 682 1085 639 1085 c 2,7,-1
 449 1085 l 1,8,-1
 494 1249 l 1,9,10
 593 1321 593 1321 707 1321 c 0,11,12
 772 1321 772 1321 893 1295 c 0,13,14
 1009 1270 1009 1270 1044 1270 c 2,15,-1
 1235 1270 l 1,0,-1
1085 715 m 0,16,17
 1085 643 1085 643 1061 553 c 2,18,-1
 911 0 l 1,19,-1
 418 0 l 2,20,21
 147 0 147 0 147 205 c 0,22,23
 147 256 147 256 162 307 c 0,24,25
 201 449 201 449 301 501 c 128,-1,26
 401 553 401 553 588 553 c 2,27,-1
 782 553 l 1,28,-1
 791 580 l 2,29,30
 799 606 799 606 799 631 c 0,31,32
 799 707 799 707 674 707 c 2,33,-1
 352 707 l 1,34,-1
 416 942 l 1,35,-1
 762 942 l 2,36,37
 933 942 933 942 1009 887 c 128,-1,38
 1085 832 1085 832 1085 715 c 0,16,17
735 375 m 1,39,-1
 571 375 l 2,40,41
 512 375 512 375 480 359 c 0,42,43
 450 344 450 344 438 297 c 0,44,45
 432 279 432 279 432 262 c 0,46,47
 432 205 432 205 512 205 c 2,48,-1
 690 205 l 1,49,-1
 735 375 l 1,39,-1
EndSplineSet
Validated: 1
EndChar

StartChar: adieresis
Encoding: 228 228 167
Width: 1034
GlyphClass: 2
Flags: W
LayerCount: 2
Fore
SplineSet
1200 1311 m 1,0,-1
 1126 1034 l 1,1,-1
 850 1034 l 1,2,-1
 883 1157 l 2,3,4
 905 1239 905 1239 949 1275 c 0,5,6
 992 1311 992 1311 1077 1311 c 2,7,-1
 1200 1311 l 1,0,-1
782 1311 m 1,8,-1
 709 1034 l 1,9,-1
 432 1034 l 1,10,-1
 465 1157 l 2,11,12
 487 1239 487 1239 531 1275 c 0,13,14
 574 1311 574 1311 659 1311 c 2,15,-1
 782 1311 l 1,8,-1
1085 715 m 0,16,17
 1085 643 1085 643 1061 553 c 2,18,-1
 911 0 l 1,19,-1
 418 0 l 2,20,21
 147 0 147 0 147 205 c 0,22,23
 147 256 147 256 162 307 c 0,24,25
 201 449 201 449 301 501 c 128,-1,26
 401 553 401 553 588 553 c 2,27,-1
 782 553 l 1,28,-1
 791 580 l 2,29,30
 799 606 799 606 799 631 c 0,31,32
 799 707 799 707 674 707 c 2,33,-1
 352 707 l 1,34,-1
 416 942 l 1,35,-1
 762 942 l 2,36,37
 933 942 933 942 1009 887 c 128,-1,38
 1085 832 1085 832 1085 715 c 0,16,17
735 375 m 1,39,-1
 571 375 l 2,40,41
 512 375 512 375 480 359 c 0,42,43
 450 344 450 344 438 297 c 0,44,45
 432 279 432 279 432 262 c 0,46,47
 432 205 432 205 512 205 c 2,48,-1
 690 205 l 1,49,-1
 735 375 l 1,39,-1
EndSplineSet
Validated: 1
EndChar

StartChar: aring
Encoding: 229 229 168
Width: 1034
GlyphClass: 2
Flags: W
LayerCount: 2
Fore
SplineSet
1055 1274 m 0,0,1
 1055 1144 1055 1144 967 1074 c 128,-1,2
 879 1004 879 1004 745 1004 c 0,3,4
 646 1004 646 1004 585 1051 c 128,-1,5
 524 1098 524 1098 524 1184 c 0,6,7
 524 1310 524 1310 612 1382 c 256,8,9
 700 1454 700 1454 834 1454 c 0,10,11
 940 1454 940 1454 998 1404 c 0,12,13
 1055 1354 1055 1354 1055 1274 c 0,0,1
1085 715 m 0,14,15
 1085 643 1085 643 1061 553 c 2,16,-1
 911 0 l 1,17,-1
 418 0 l 2,18,19
 147 0 147 0 147 205 c 0,20,21
 147 256 147 256 162 307 c 0,22,23
 201 449 201 449 301 501 c 128,-1,24
 401 553 401 553 588 553 c 2,25,-1
 782 553 l 1,26,-1
 791 580 l 2,27,28
 799 606 799 606 799 631 c 0,29,30
 799 707 799 707 674 707 c 2,31,-1
 352 707 l 1,32,-1
 416 942 l 1,33,-1
 762 942 l 2,34,35
 933 942 933 942 1009 887 c 128,-1,36
 1085 832 1085 832 1085 715 c 0,14,15
877 1255 m 0,37,38
 877 1321 877 1321 809 1321 c 0,39,40
 759 1321 759 1321 731 1287 c 0,41,42
 702 1252 702 1252 702 1202 c 0,43,44
 702 1137 702 1137 772 1137 c 0,45,46
 826 1137 826 1137 851 1169 c 0,47,48
 877 1203 877 1203 877 1255 c 0,37,38
735 375 m 1,49,-1
 571 375 l 2,50,51
 512 375 512 375 480 359 c 0,52,53
 450 344 450 344 438 297 c 0,54,55
 432 279 432 279 432 262 c 0,56,57
 432 205 432 205 512 205 c 2,58,-1
 690 205 l 1,59,-1
 735 375 l 1,49,-1
EndSplineSet
Validated: 1
EndChar

StartChar: ae
Encoding: 230 230 169
Width: 1566
GlyphClass: 2
Flags: W
LayerCount: 2
Fore
SplineSet
1620 643 m 0,0,1
 1620 571 1620 571 1599 502 c 2,2,-1
 1565 375 l 1,3,-1
 1012 375 l 1,4,5
 1010 359 1010 359 1010 340 c 0,6,7
 1010 225 1010 225 1139 225 c 2,8,-1
 1473 225 l 1,9,-1
 1413 0 l 1,10,-1
 1079 0 l 2,11,12
 872 0 872 0 782 125 c 1,13,-1
 748 0 l 1,14,-1
 418 0 l 2,15,16
 290 0 290 0 219 52 c 0,17,18
 147 104 147 104 147 207 c 0,19,20
 147 256 147 256 162 307 c 0,21,22
 201 449 201 449 301 501 c 128,-1,23
 401 553 401 553 588 553 c 2,24,-1
 782 553 l 1,25,-1
 791 580 l 2,26,27
 799 606 799 606 799 629 c 0,28,29
 799 707 799 707 674 707 c 2,30,-1
 352 707 l 1,31,-1
 416 942 l 1,32,-1
 762 942 l 2,33,34
 932 942 932 942 1012 874 c 1,35,36
 1121 942 1121 942 1266 942 c 2,37,-1
 1307 942 l 2,38,39
 1456 942 1456 942 1538 860 c 128,-1,40
 1620 778 1620 778 1620 643 c 0,0,1
1350 641 m 0,41,42
 1350 737 1350 737 1260 737 c 2,43,-1
 1227 737 l 2,44,45
 1164 737 1164 737 1126 695 c 0,46,47
 1089 654 1089 654 1065 573 c 2,48,-1
 1057 547 l 1,49,-1
 1335 547 l 1,50,-1
 1339 563 l 2,51,52
 1350 612 1350 612 1350 641 c 0,41,42
743 205 m 1,53,54
 731 249 731 249 731 299 c 0,55,56
 731 336 731 336 737 375 c 1,57,-1
 571 375 l 2,58,59
 512 375 512 375 480 359 c 0,60,61
 450 344 450 344 438 297 c 0,62,63
 432 279 432 279 432 264 c 0,64,65
 432 205 432 205 512 205 c 2,66,-1
 743 205 l 1,53,54
EndSplineSet
Validated: 1
EndChar

StartChar: ccedilla
Encoding: 231 231 170
Width: 890
GlyphClass: 2
Flags: W
LayerCount: 2
Fore
SplineSet
1061 942 m 1,0,-1
 1001 717 l 1,1,-1
 729 717 l 2,2,3
 638 717 638 717 594 677 c 0,4,5
 548 636 548 636 526 553 c 2,6,-1
 487 410 l 2,7,8
 477 379 477 379 477 328 c 0,9,10
 477 225 477 225 604 225 c 2,11,-1
 868 225 l 1,12,-1
 809 0 l 1,13,-1
 588 0 l 1,14,-1
 573 -37 l 1,15,-1
 588 -37 l 2,16,17
 637 -37 637 -37 673 -68 c 0,18,19
 707 -98 707 -98 707 -158 c 0,20,21
 707 -266 707 -266 646 -307 c 128,-1,22
 585 -348 585 -348 459 -348 c 2,23,-1
 274 -348 l 1,24,-1
 309 -225 l 1,25,-1
 387 -225 l 2,26,27
 479 -225 479 -225 479 -166 c 0,28,29
 479 -123 479 -123 420 -123 c 2,30,-1
 350 -123 l 1,31,-1
 406 14 l 1,32,33
 195 65 195 65 195 279 c 0,34,35
 195 343 195 343 215 424 c 2,36,-1
 250 559 l 2,37,38
 302 761 302 761 425 852 c 0,39,40
 546 942 546 942 750 942 c 2,41,-1
 1061 942 l 1,0,-1
EndSplineSet
Validated: 1
EndChar

StartChar: egrave
Encoding: 232 232 171
Width: 1034
GlyphClass: 2
Flags: W
LayerCount: 2
Fore
SplineSet
1098 1270 m 1,0,-1
 1065 1044 l 1,1,-1
 498 1106 l 1,2,-1
 530 1331 l 1,3,-1
 1098 1270 l 1,0,-1
1085 643 m 0,4,5
 1085 565 1085 565 1067 502 c 2,6,-1
 1032 375 l 1,7,-1
 479 375 l 1,8,9
 477 359 477 359 477 332 c 0,10,11
 477 225 477 225 606 225 c 2,12,-1
 940 225 l 1,13,-1
 881 0 l 1,14,-1
 547 0 l 2,15,16
 383 0 383 0 291 77 c 128,-1,17
 199 154 199 154 199 295 c 0,18,19
 199 380 199 380 219 446 c 2,20,-1
 256 578 l 2,21,22
 308 764 308 764 421 854 c 0,23,24
 531 942 531 942 727 942 c 2,25,-1
 774 942 l 2,26,27
 924 942 924 942 1005 860 c 0,28,29
 1085 779 1085 779 1085 643 c 0,4,5
817 641 m 0,30,31
 817 737 817 737 727 737 c 2,32,-1
 694 737 l 2,33,34
 577 737 577 737 532 575 c 2,35,-1
 524 547 l 1,36,-1
 803 547 l 1,37,-1
 807 563 l 2,38,39
 817 607 817 607 817 641 c 0,30,31
EndSplineSet
Validated: 1
EndChar

StartChar: eacute
Encoding: 233 233 172
Width: 1034
GlyphClass: 2
Flags: W
LayerCount: 2
Fore
SplineSet
1069 1106 m 1,0,-1
 502 1044 l 1,1,-1
 469 1270 l 1,2,-1
 1036 1331 l 1,3,-1
 1069 1106 l 1,0,-1
1085 643 m 0,4,5
 1085 565 1085 565 1067 502 c 2,6,-1
 1032 375 l 1,7,-1
 479 375 l 1,8,9
 477 359 477 359 477 332 c 0,10,11
 477 225 477 225 606 225 c 2,12,-1
 940 225 l 1,13,-1
 881 0 l 1,14,-1
 547 0 l 2,15,16
 383 0 383 0 291 77 c 128,-1,17
 199 154 199 154 199 295 c 0,18,19
 199 380 199 380 219 446 c 2,20,-1
 256 578 l 2,21,22
 308 764 308 764 421 854 c 0,23,24
 531 942 531 942 727 942 c 2,25,-1
 774 942 l 2,26,27
 924 942 924 942 1005 860 c 0,28,29
 1085 779 1085 779 1085 643 c 0,4,5
817 641 m 0,30,31
 817 737 817 737 727 737 c 2,32,-1
 694 737 l 2,33,34
 577 737 577 737 532 575 c 2,35,-1
 524 547 l 1,36,-1
 803 547 l 1,37,-1
 807 563 l 2,38,39
 817 607 817 607 817 641 c 0,30,31
EndSplineSet
Validated: 1
EndChar

StartChar: ecircumflex
Encoding: 234 234 173
Width: 1034
GlyphClass: 2
Flags: W
LayerCount: 2
Fore
SplineSet
1192 1262 m 1,0,-1
 1133 1044 l 1,1,-1
 813 1147 l 1,2,-1
 395 1044 l 1,3,-1
 459 1280 l 1,4,-1
 840 1393 l 1,5,-1
 1192 1262 l 1,0,-1
1085 643 m 0,6,7
 1085 565 1085 565 1067 502 c 2,8,-1
 1032 375 l 1,9,-1
 479 375 l 1,10,11
 477 359 477 359 477 332 c 0,12,13
 477 225 477 225 606 225 c 2,14,-1
 940 225 l 1,15,-1
 881 0 l 1,16,-1
 547 0 l 2,17,18
 383 0 383 0 291 77 c 128,-1,19
 199 154 199 154 199 295 c 0,20,21
 199 380 199 380 219 446 c 2,22,-1
 256 578 l 2,23,24
 308 764 308 764 421 854 c 0,25,26
 531 942 531 942 727 942 c 2,27,-1
 774 942 l 2,28,29
 924 942 924 942 1005 860 c 0,30,31
 1085 779 1085 779 1085 643 c 0,6,7
817 641 m 0,32,33
 817 737 817 737 727 737 c 2,34,-1
 694 737 l 2,35,36
 577 737 577 737 532 575 c 2,37,-1
 524 547 l 1,38,-1
 803 547 l 1,39,-1
 807 563 l 2,40,41
 817 607 817 607 817 641 c 0,32,33
EndSplineSet
Validated: 1
EndChar

StartChar: edieresis
Encoding: 235 235 174
Width: 1034
GlyphClass: 2
Flags: W
LayerCount: 2
Fore
SplineSet
1200 1311 m 1,0,-1
 1126 1034 l 1,1,-1
 850 1034 l 1,2,-1
 883 1157 l 2,3,4
 905 1239 905 1239 949 1275 c 0,5,6
 992 1311 992 1311 1077 1311 c 2,7,-1
 1200 1311 l 1,0,-1
750 1311 m 1,8,-1
 676 1034 l 1,9,-1
 399 1034 l 1,10,-1
 432 1157 l 2,11,12
 454 1238 454 1238 499 1275 c 0,13,14
 542 1311 542 1311 627 1311 c 2,15,-1
 750 1311 l 1,8,-1
1085 643 m 0,16,17
 1085 565 1085 565 1067 502 c 2,18,-1
 1032 375 l 1,19,-1
 479 375 l 1,20,21
 477 359 477 359 477 332 c 0,22,23
 477 225 477 225 606 225 c 2,24,-1
 940 225 l 1,25,-1
 881 0 l 1,26,-1
 547 0 l 2,27,28
 383 0 383 0 291 77 c 128,-1,29
 199 154 199 154 199 295 c 0,30,31
 199 380 199 380 219 446 c 2,32,-1
 256 578 l 2,33,34
 308 764 308 764 421 854 c 0,35,36
 531 942 531 942 727 942 c 2,37,-1
 774 942 l 2,38,39
 924 942 924 942 1005 860 c 0,40,41
 1085 779 1085 779 1085 643 c 0,16,17
817 641 m 0,42,43
 817 737 817 737 727 737 c 2,44,-1
 694 737 l 2,45,46
 577 737 577 737 532 575 c 2,47,-1
 524 547 l 1,48,-1
 803 547 l 1,49,-1
 807 563 l 2,50,51
 817 607 817 607 817 641 c 0,42,43
EndSplineSet
Validated: 1
EndChar

StartChar: igrave
Encoding: 236 236 175
Width: 522
GlyphClass: 2
Flags: W
LayerCount: 2
Fore
SplineSet
852 1270 m 1,0,-1
 819 1044 l 1,1,-1
 252 1106 l 1,2,-1
 285 1331 l 1,3,-1
 852 1270 l 1,0,-1
651 942 m 1,4,-1
 399 0 l 1,5,-1
 123 0 l 1,6,-1
 375 942 l 1,7,-1
 651 942 l 1,4,-1
EndSplineSet
Validated: 1
EndChar

StartChar: iacute
Encoding: 237 237 176
Width: 522
GlyphClass: 2
Flags: W
LayerCount: 2
Fore
SplineSet
844 1106 m 1,0,-1
 276 1044 l 1,1,-1
 244 1270 l 1,2,-1
 811 1331 l 1,3,-1
 844 1106 l 1,0,-1
651 942 m 1,4,-1
 399 0 l 1,5,-1
 123 0 l 1,6,-1
 375 942 l 1,7,-1
 651 942 l 1,4,-1
EndSplineSet
Validated: 1
EndChar

StartChar: icircumflex
Encoding: 238 238 177
Width: 522
GlyphClass: 2
Flags: W
LayerCount: 2
Fore
SplineSet
946 1262 m 1,0,-1
 887 1044 l 1,1,-1
 567 1147 l 1,2,-1
 150 1044 l 1,3,-1
 213 1280 l 1,4,-1
 594 1393 l 1,5,-1
 946 1262 l 1,0,-1
651 942 m 1,6,-1
 399 0 l 1,7,-1
 123 0 l 1,8,-1
 375 942 l 1,9,-1
 651 942 l 1,6,-1
EndSplineSet
Validated: 1
EndChar

StartChar: idieresis
Encoding: 239 239 178
Width: 522
GlyphClass: 2
Flags: W
LayerCount: 2
Fore
SplineSet
971 1311 m 1,0,-1
 897 1034 l 1,1,-1
 621 1034 l 1,2,-1
 653 1157 l 2,3,4
 675 1238 675 1238 720 1275 c 0,5,6
 764 1311 764 1311 848 1311 c 2,7,-1
 971 1311 l 1,0,-1
520 1311 m 1,8,-1
 446 1034 l 1,9,-1
 170 1034 l 1,10,-1
 203 1157 l 2,11,12
 225 1239 225 1239 269 1275 c 0,13,14
 312 1311 312 1311 397 1311 c 2,15,-1
 520 1311 l 1,8,-1
651 942 m 1,16,-1
 399 0 l 1,17,-1
 123 0 l 1,18,-1
 375 942 l 1,19,-1
 651 942 l 1,16,-1
EndSplineSet
Validated: 1
EndChar

StartChar: eth
Encoding: 240 240 179
Width: 1085
GlyphClass: 2
Flags: W
LayerCount: 2
Fore
SplineSet
1380 1221 m 1,0,-1
 1341 1077 l 1,1,-1
 1214 1034 l 1,2,3
 1225 981 1225 981 1225 936 c 0,4,5
 1225 854 1225 854 1198 758 c 2,6,-1
 1094 389 l 2,7,8
 1037 185 1037 185 911 92 c 0,9,10
 786 0 786 0 578 0 c 2,11,-1
 557 0 l 2,12,13
 382 0 382 0 291 77 c 0,14,15
 201 154 201 154 201 291 c 0,16,17
 201 351 201 351 221 430 c 2,18,-1
 233 477 l 2,19,20
 278 651 278 651 392 735 c 128,-1,21
 506 819 506 819 702 819 c 2,22,-1
 936 819 l 1,23,-1
 940 840 l 2,24,25
 952 909 952 909 952 936 c 2,26,-1
 952 946 l 1,27,-1
 688 858 l 1,28,-1
 727 1001 l 1,29,-1
 885 1055 l 1,30,31
 846 1075 846 1075 758 1075 c 2,32,-1
 502 1075 l 1,33,-1
 565 1311 l 1,34,-1
 811 1311 l 2,35,36
 941 1311 941 1311 1034 1268 c 128,-1,37
 1127 1225 1127 1225 1171 1151 c 1,38,-1
 1380 1221 l 1,0,-1
870 586 m 1,39,-1
 707 586 l 2,40,41
 620 586 620 586 577 562 c 0,42,43
 533 538 533 538 506 453 c 2,44,-1
 498 426 l 2,45,46
 483 375 483 375 483 342 c 0,47,48
 483 236 483 236 600 236 c 2,49,-1
 621 236 l 2,50,51
 774 236 774 236 823 416 c 2,52,-1
 870 586 l 1,39,-1
EndSplineSet
Validated: 1
EndChar

StartChar: ntilde
Encoding: 241 241 180
Width: 1075
GlyphClass: 2
Flags: W
LayerCount: 2
Fore
SplineSet
1214 1270 m 1,0,-1
 1171 1106 l 1,1,2
 1069 1034 1069 1034 956 1034 c 0,3,4
 907 1034 907 1034 782 1060 c 0,5,6
 661 1085 661 1085 618 1085 c 2,7,-1
 428 1085 l 1,8,-1
 473 1249 l 1,9,10
 572 1321 572 1321 686 1321 c 0,11,12
 751 1321 751 1321 872 1295 c 0,13,14
 988 1270 988 1270 1024 1270 c 2,15,-1
 1214 1270 l 1,0,-1
1120 690 m 0,16,17
 1120 622 1120 622 1102 553 c 2,18,-1
 952 0 l 1,19,-1
 676 0 l 1,20,-1
 827 563 l 2,21,22
 838 605 838 605 838 633 c 0,23,24
 838 717 838 717 733 717 c 2,25,-1
 592 717 l 1,26,-1
 399 0 l 1,27,-1
 123 0 l 1,28,-1
 375 942 l 1,29,-1
 846 942 l 2,30,31
 980 942 980 942 1050 876 c 256,32,33
 1120 810 1120 810 1120 690 c 0,16,17
EndSplineSet
Validated: 1
EndChar

StartChar: ograve
Encoding: 242 242 181
Width: 1118
GlyphClass: 2
Flags: W
LayerCount: 2
Fore
SplineSet
1118 1270 m 1,0,-1
 1085 1044 l 1,1,-1
 518 1106 l 1,2,-1
 551 1331 l 1,3,-1
 1118 1270 l 1,0,-1
1171 649 m 0,4,5
 1171 568 1171 568 1151 502 c 2,6,-1
 1112 358 l 2,7,8
 1062 178 1062 178 948 89 c 0,9,10
 833 0 833 0 629 0 c 2,11,-1
 530 0 l 2,12,13
 368 0 368 0 283 80 c 0,14,15
 199 160 199 160 199 295 c 0,16,17
 199 374 199 374 219 440 c 2,18,-1
 258 584 l 2,19,20
 308 764 308 764 422 853 c 0,21,22
 537 942 537 942 741 942 c 2,23,-1
 840 942 l 2,24,25
 1004 942 1004 942 1087 863 c 0,26,27
 1171 784 1171 784 1171 649 c 0,4,5
899 629 m 0,28,29
 899 721 899 721 795 721 c 2,30,-1
 696 721 l 2,31,32
 630 721 630 721 593 688 c 128,-1,33
 556 655 556 655 535 584 c 2,34,-1
 479 379 l 2,35,36
 471 347 471 347 471 315 c 0,37,38
 471 221 471 221 575 221 c 2,39,-1
 674 221 l 2,40,41
 740 221 740 221 777 254 c 0,42,43
 816 288 816 288 836 358 c 2,44,-1
 891 563 l 2,45,46
 899 595 899 595 899 629 c 0,28,29
EndSplineSet
Validated: 1
EndChar

StartChar: oacute
Encoding: 243 243 182
Width: 1118
GlyphClass: 2
Flags: W
LayerCount: 2
Fore
SplineSet
1110 1106 m 1,0,-1
 543 1044 l 1,1,-1
 510 1270 l 1,2,-1
 1077 1331 l 1,3,-1
 1110 1106 l 1,0,-1
1171 649 m 0,4,5
 1171 568 1171 568 1151 502 c 2,6,-1
 1112 358 l 2,7,8
 1062 178 1062 178 948 89 c 0,9,10
 833 0 833 0 629 0 c 2,11,-1
 530 0 l 2,12,13
 368 0 368 0 283 80 c 0,14,15
 199 160 199 160 199 295 c 0,16,17
 199 374 199 374 219 440 c 2,18,-1
 258 584 l 2,19,20
 308 764 308 764 422 853 c 0,21,22
 537 942 537 942 741 942 c 2,23,-1
 840 942 l 2,24,25
 1004 942 1004 942 1087 863 c 0,26,27
 1171 784 1171 784 1171 649 c 0,4,5
899 629 m 0,28,29
 899 721 899 721 795 721 c 2,30,-1
 696 721 l 2,31,32
 630 721 630 721 593 688 c 128,-1,33
 556 655 556 655 535 584 c 2,34,-1
 479 379 l 2,35,36
 471 347 471 347 471 315 c 0,37,38
 471 221 471 221 575 221 c 2,39,-1
 674 221 l 2,40,41
 740 221 740 221 777 254 c 0,42,43
 816 288 816 288 836 358 c 2,44,-1
 891 563 l 2,45,46
 899 595 899 595 899 629 c 0,28,29
EndSplineSet
Validated: 1
EndChar

StartChar: ocircumflex
Encoding: 244 244 183
Width: 1118
GlyphClass: 2
Flags: W
LayerCount: 2
Fore
SplineSet
1214 1262 m 1,0,-1
 1155 1044 l 1,1,-1
 836 1147 l 1,2,-1
 418 1044 l 1,3,-1
 481 1280 l 1,4,-1
 862 1393 l 1,5,-1
 1214 1262 l 1,0,-1
1171 649 m 0,6,7
 1171 568 1171 568 1151 502 c 2,8,-1
 1112 358 l 2,9,10
 1062 178 1062 178 948 89 c 0,11,12
 833 0 833 0 629 0 c 2,13,-1
 530 0 l 2,14,15
 368 0 368 0 283 80 c 0,16,17
 199 160 199 160 199 295 c 0,18,19
 199 374 199 374 219 440 c 2,20,-1
 258 584 l 2,21,22
 308 764 308 764 422 853 c 0,23,24
 537 942 537 942 741 942 c 2,25,-1
 840 942 l 2,26,27
 1004 942 1004 942 1087 863 c 0,28,29
 1171 784 1171 784 1171 649 c 0,6,7
899 629 m 0,30,31
 899 721 899 721 795 721 c 2,32,-1
 696 721 l 2,33,34
 630 721 630 721 593 688 c 128,-1,35
 556 655 556 655 535 584 c 2,36,-1
 479 379 l 2,37,38
 471 347 471 347 471 315 c 0,39,40
 471 221 471 221 575 221 c 2,41,-1
 674 221 l 2,42,43
 740 221 740 221 777 254 c 0,44,45
 816 288 816 288 836 358 c 2,46,-1
 891 563 l 2,47,48
 899 595 899 595 899 629 c 0,30,31
EndSplineSet
Validated: 1
EndChar

StartChar: otilde
Encoding: 245 245 184
Width: 1118
GlyphClass: 2
Flags: W
LayerCount: 2
Fore
SplineSet
1235 1270 m 1,0,-1
 1192 1106 l 1,1,2
 1090 1034 1090 1034 977 1034 c 0,3,4
 928 1034 928 1034 803 1060 c 0,5,6
 682 1085 682 1085 639 1085 c 2,7,-1
 449 1085 l 1,8,-1
 494 1249 l 1,9,10
 593 1321 593 1321 707 1321 c 0,11,12
 772 1321 772 1321 893 1295 c 0,13,14
 1009 1270 1009 1270 1044 1270 c 2,15,-1
 1235 1270 l 1,0,-1
1171 649 m 0,16,17
 1171 568 1171 568 1151 502 c 2,18,-1
 1112 358 l 2,19,20
 1062 178 1062 178 948 89 c 0,21,22
 833 0 833 0 629 0 c 2,23,-1
 530 0 l 2,24,25
 368 0 368 0 283 80 c 0,26,27
 199 160 199 160 199 295 c 0,28,29
 199 374 199 374 219 440 c 2,30,-1
 258 584 l 2,31,32
 308 764 308 764 422 853 c 0,33,34
 537 942 537 942 741 942 c 2,35,-1
 840 942 l 2,36,37
 1004 942 1004 942 1087 863 c 0,38,39
 1171 784 1171 784 1171 649 c 0,16,17
899 629 m 0,40,41
 899 721 899 721 795 721 c 2,42,-1
 696 721 l 2,43,44
 630 721 630 721 593 688 c 128,-1,45
 556 655 556 655 535 584 c 2,46,-1
 479 379 l 2,47,48
 471 347 471 347 471 315 c 0,49,50
 471 221 471 221 575 221 c 2,51,-1
 674 221 l 2,52,53
 740 221 740 221 777 254 c 0,54,55
 816 288 816 288 836 358 c 2,56,-1
 891 563 l 2,57,58
 899 595 899 595 899 629 c 0,40,41
EndSplineSet
Validated: 1
EndChar

StartChar: odieresis
Encoding: 246 246 185
Width: 1118
GlyphClass: 2
Flags: W
LayerCount: 2
Fore
SplineSet
1245 1311 m 1,0,-1
 1171 1034 l 1,1,-1
 895 1034 l 1,2,-1
 928 1157 l 2,3,4
 950 1239 950 1239 994 1275 c 128,-1,5
 1038 1311 1038 1311 1122 1311 c 2,6,-1
 1245 1311 l 1,0,-1
795 1311 m 1,7,-1
 721 1034 l 1,8,-1
 444 1034 l 1,9,-1
 477 1157 l 2,10,11
 499 1238 499 1238 544 1275 c 0,12,13
 588 1311 588 1311 672 1311 c 2,14,-1
 795 1311 l 1,7,-1
1171 649 m 0,15,16
 1171 568 1171 568 1151 502 c 2,17,-1
 1112 358 l 2,18,19
 1062 178 1062 178 948 89 c 0,20,21
 833 0 833 0 629 0 c 2,22,-1
 530 0 l 2,23,24
 368 0 368 0 283 80 c 0,25,26
 199 160 199 160 199 295 c 0,27,28
 199 374 199 374 219 440 c 2,29,-1
 258 584 l 2,30,31
 308 764 308 764 422 853 c 0,32,33
 537 942 537 942 741 942 c 2,34,-1
 840 942 l 2,35,36
 1004 942 1004 942 1087 863 c 0,37,38
 1171 784 1171 784 1171 649 c 0,15,16
899 629 m 0,39,40
 899 721 899 721 795 721 c 2,41,-1
 696 721 l 2,42,43
 630 721 630 721 593 688 c 128,-1,44
 556 655 556 655 535 584 c 2,45,-1
 479 379 l 2,46,47
 471 347 471 347 471 315 c 0,48,49
 471 221 471 221 575 221 c 2,50,-1
 674 221 l 2,51,52
 740 221 740 221 777 254 c 0,53,54
 816 288 816 288 836 358 c 2,55,-1
 891 563 l 2,56,57
 899 595 899 595 899 629 c 0,39,40
EndSplineSet
Validated: 1
EndChar

StartChar: divide
Encoding: 247 247 186
Width: 1075
GlyphClass: 2
Flags: W
LayerCount: 2
Fore
SplineSet
1001 1219 m 1,0,-1
 928 942 l 1,1,-1
 651 942 l 1,2,-1
 725 1219 l 1,3,-1
 1001 1219 l 1,0,-1
1198 840 m 1,4,-1
 1133 594 l 1,5,-1
 262 594 l 1,6,-1
 328 840 l 1,7,-1
 1198 840 l 1,4,-1
807 492 m 1,8,-1
 733 215 l 1,9,-1
 457 215 l 1,10,-1
 530 492 l 1,11,-1
 807 492 l 1,8,-1
EndSplineSet
Validated: 1
EndChar

StartChar: oslash
Encoding: 248 248 187
Width: 1118
GlyphClass: 2
Flags: W
LayerCount: 2
Fore
SplineSet
1272 1229 m 1,0,-1
 1044 895 l 1,1,2
 1171 819 1171 819 1171 645 c 0,3,4
 1171 568 1171 568 1151 502 c 2,5,-1
 1112 358 l 2,6,7
 1062 178 1062 178 948 89 c 0,8,9
 833 0 833 0 629 0 c 2,10,-1
 530 0 l 2,11,12
 501 0 501 0 440 8 c 1,13,-1
 295 -205 l 1,14,-1
 121 -205 l 1,15,-1
 303 63 l 1,16,17
 199 140 199 140 199 299 c 0,18,19
 199 374 199 374 219 440 c 2,20,-1
 258 584 l 2,21,22
 308 764 308 764 422 853 c 0,23,24
 537 942 537 942 741 942 c 2,25,-1
 840 942 l 2,26,27
 868 942 868 942 901 938 c 1,28,-1
 1098 1229 l 1,29,-1
 1272 1229 l 1,0,-1
899 625 m 0,30,31
 899 652 899 652 891 670 c 1,32,-1
 586 221 l 1,33,-1
 674 221 l 2,34,35
 740 221 740 221 777 254 c 0,36,37
 816 288 816 288 836 358 c 2,38,-1
 891 563 l 2,39,40
 899 595 899 595 899 625 c 0,30,31
752 721 m 1,41,-1
 696 721 l 2,42,43
 630 721 630 721 593 688 c 128,-1,44
 556 655 556 655 535 584 c 2,45,-1
 479 379 l 2,46,47
 471 347 471 347 471 317 c 2,48,-1
 471 309 l 1,49,-1
 752 721 l 1,41,-1
EndSplineSet
Validated: 1
EndChar

StartChar: ugrave
Encoding: 249 249 188
Width: 1075
GlyphClass: 2
Flags: W
LayerCount: 2
Fore
SplineSet
1098 1270 m 1,0,-1
 1065 1044 l 1,1,-1
 498 1106 l 1,2,-1
 530 1331 l 1,3,-1
 1098 1270 l 1,0,-1
1204 942 m 1,4,-1
 952 0 l 1,5,-1
 481 0 l 2,6,7
 350 0 350 0 278 67 c 0,8,9
 207 133 207 133 207 252 c 0,10,11
 207 320 207 320 225 389 c 2,12,-1
 375 942 l 1,13,-1
 651 942 l 1,14,-1
 500 369 l 2,15,16
 489 327 489 327 489 303 c 0,17,18
 489 225 489 225 594 225 c 2,19,-1
 735 225 l 1,20,-1
 928 942 l 1,21,-1
 1204 942 l 1,4,-1
EndSplineSet
Validated: 1
EndChar

StartChar: uacute
Encoding: 250 250 189
Width: 1075
GlyphClass: 2
Flags: W
LayerCount: 2
Fore
SplineSet
1110 1106 m 1,0,-1
 543 1044 l 1,1,-1
 510 1270 l 1,2,-1
 1077 1331 l 1,3,-1
 1110 1106 l 1,0,-1
1204 942 m 1,4,-1
 952 0 l 1,5,-1
 481 0 l 2,6,7
 350 0 350 0 278 67 c 0,8,9
 207 133 207 133 207 252 c 0,10,11
 207 320 207 320 225 389 c 2,12,-1
 375 942 l 1,13,-1
 651 942 l 1,14,-1
 500 369 l 2,15,16
 489 327 489 327 489 303 c 0,17,18
 489 225 489 225 594 225 c 2,19,-1
 735 225 l 1,20,-1
 928 942 l 1,21,-1
 1204 942 l 1,4,-1
EndSplineSet
Validated: 1
EndChar

StartChar: ucircumflex
Encoding: 251 251 190
Width: 1075
GlyphClass: 2
Flags: W
LayerCount: 2
Fore
SplineSet
1235 1262 m 1,0,-1
 1176 1044 l 1,1,-1
 856 1147 l 1,2,-1
 438 1044 l 1,3,-1
 502 1280 l 1,4,-1
 883 1393 l 1,5,-1
 1235 1262 l 1,0,-1
1204 942 m 1,6,-1
 952 0 l 1,7,-1
 481 0 l 2,8,9
 350 0 350 0 278 67 c 0,10,11
 207 133 207 133 207 252 c 0,12,13
 207 320 207 320 225 389 c 2,14,-1
 375 942 l 1,15,-1
 651 942 l 1,16,-1
 500 369 l 2,17,18
 489 327 489 327 489 303 c 0,19,20
 489 225 489 225 594 225 c 2,21,-1
 735 225 l 1,22,-1
 928 942 l 1,23,-1
 1204 942 l 1,6,-1
EndSplineSet
Validated: 1
EndChar

StartChar: udieresis
Encoding: 252 252 191
Width: 1075
GlyphClass: 2
Flags: W
LayerCount: 2
Fore
SplineSet
1251 1311 m 1,0,-1
 1178 1034 l 1,1,-1
 901 1034 l 1,2,-1
 934 1157 l 2,3,4
 956 1239 956 1239 1000 1275 c 128,-1,5
 1044 1311 1044 1311 1128 1311 c 2,6,-1
 1251 1311 l 1,0,-1
801 1311 m 1,7,-1
 727 1034 l 1,8,-1
 451 1034 l 1,9,-1
 483 1157 l 2,10,11
 505 1238 505 1238 550 1275 c 0,12,13
 594 1311 594 1311 678 1311 c 2,14,-1
 801 1311 l 1,7,-1
1204 942 m 1,15,-1
 952 0 l 1,16,-1
 481 0 l 2,17,18
 350 0 350 0 278 67 c 0,19,20
 207 133 207 133 207 252 c 0,21,22
 207 320 207 320 225 389 c 2,23,-1
 375 942 l 1,24,-1
 651 942 l 1,25,-1
 500 369 l 2,26,27
 489 327 489 327 489 303 c 0,28,29
 489 225 489 225 594 225 c 2,30,-1
 735 225 l 1,31,-1
 928 942 l 1,32,-1
 1204 942 l 1,15,-1
EndSplineSet
Validated: 1
EndChar

StartChar: yacute
Encoding: 253 253 192
Width: 1075
GlyphClass: 2
Flags: W
LayerCount: 2
Fore
SplineSet
1130 1106 m 1,0,-1
 563 1044 l 1,1,-1
 530 1270 l 1,2,-1
 1098 1331 l 1,3,-1
 1130 1106 l 1,0,-1
1204 942 m 1,4,-1
 967 51 l 2,5,6
 904 -189 904 -189 800 -269 c 0,7,8
 697 -348 697 -348 475 -348 c 2,9,-1
 111 -348 l 1,10,-1
 174 -113 l 1,11,-1
 471 -113 l 2,12,13
 574 -113 574 -113 621 -80 c 256,14,15
 668 -47 668 -47 684 31 c 2,16,-1
 686 41 l 1,17,-1
 492 41 l 2,18,19
 360 41 360 41 288 108 c 0,20,21
 217 174 217 174 217 293 c 0,22,23
 217 352 217 352 238 430 c 2,24,-1
 375 942 l 1,25,-1
 651 942 l 1,26,-1
 510 410 l 2,27,28
 500 371 500 371 500 344 c 0,29,30
 500 266 500 266 606 266 c 2,31,-1
 748 266 l 1,32,-1
 928 942 l 1,33,-1
 1204 942 l 1,4,-1
EndSplineSet
Validated: 1
EndChar

StartChar: thorn
Encoding: 254 254 193
Width: 1054
GlyphClass: 2
Flags: W
LayerCount: 2
Fore
SplineSet
1120 690 m 0,0,1
 1120 622 1120 622 1102 553 c 2,2,-1
 1047 348 l 2,3,4
 1002 175 1002 175 902 87 c 0,5,6
 803 0 803 0 635 0 c 2,7,-1
 399 0 l 1,8,-1
 305 -348 l 1,9,-1
 29 -348 l 1,10,-1
 473 1311 l 1,11,-1
 750 1311 l 1,12,-1
 651 942 l 1,13,-1
 846 942 l 2,14,15
 982 942 982 942 1051 876 c 128,-1,16
 1120 810 1120 810 1120 690 c 0,0,1
836 625 m 0,17,18
 836 717 836 717 733 717 c 2,19,-1
 590 717 l 1,20,-1
 459 225 l 1,21,-1
 600 225 l 2,22,23
 738 225 738 225 776 369 c 2,24,-1
 825 553 l 2,25,26
 836 595 836 595 836 625 c 0,17,18
EndSplineSet
Validated: 1
EndChar

StartChar: ydieresis
Encoding: 255 255 194
Width: 1075
GlyphClass: 2
Flags: W
LayerCount: 2
Fore
SplineSet
1245 1311 m 1,0,-1
 1171 1034 l 1,1,-1
 895 1034 l 1,2,-1
 928 1157 l 2,3,4
 950 1239 950 1239 994 1275 c 128,-1,5
 1038 1311 1038 1311 1122 1311 c 2,6,-1
 1245 1311 l 1,0,-1
795 1311 m 1,7,-1
 721 1034 l 1,8,-1
 444 1034 l 1,9,-1
 477 1157 l 2,10,11
 499 1238 499 1238 544 1275 c 0,12,13
 588 1311 588 1311 672 1311 c 2,14,-1
 795 1311 l 1,7,-1
1204 942 m 1,15,-1
 967 51 l 2,16,17
 904 -189 904 -189 800 -269 c 0,18,19
 697 -348 697 -348 475 -348 c 2,20,-1
 111 -348 l 1,21,-1
 174 -113 l 1,22,-1
 471 -113 l 2,23,24
 574 -113 574 -113 621 -80 c 256,25,26
 668 -47 668 -47 684 31 c 2,27,-1
 686 41 l 1,28,-1
 492 41 l 2,29,30
 360 41 360 41 288 108 c 0,31,32
 217 174 217 174 217 293 c 0,33,34
 217 352 217 352 238 430 c 2,35,-1
 375 942 l 1,36,-1
 651 942 l 1,37,-1
 510 410 l 2,38,39
 500 371 500 371 500 344 c 0,40,41
 500 266 500 266 606 266 c 2,42,-1
 748 266 l 1,43,-1
 928 942 l 1,44,-1
 1204 942 l 1,15,-1
EndSplineSet
Validated: 1
EndChar

StartChar: dotlessi
Encoding: 305 305 195
Width: 522
GlyphClass: 2
Flags: W
LayerCount: 2
Fore
SplineSet
651 942 m 1,0,-1
 399 0 l 1,1,-1
 123 0 l 1,2,-1
 375 942 l 1,3,-1
 651 942 l 1,0,-1
EndSplineSet
Validated: 1
EndChar

StartChar: Lslash
Encoding: 321 321 196
Width: 1034
GlyphClass: 2
Flags: W
LayerCount: 2
Fore
SplineSet
1016 236 m 1,0,-1
 952 0 l 1,1,-1
 123 0 l 1,2,-1
 240 438 l 1,3,-1
 154 420 l 1,4,-1
 195 573 l 1,5,-1
 281 592 l 1,6,-1
 424 1126 l 1,7,-1
 700 1126 l 1,8,-1
 573 651 l 1,9,-1
 877 713 l 1,10,-1
 836 559 l 1,11,-1
 532 498 l 1,12,-1
 463 236 l 1,13,-1
 1016 236 l 1,0,-1
EndSplineSet
Validated: 1
EndChar

StartChar: lslash
Encoding: 322 322 197
Width: 522
GlyphClass: 2
Flags: W
LayerCount: 2
Fore
SplineSet
750 1311 m 1,0,-1
 612 793 l 1,1,-1
 698 811 l 1,2,-1
 657 657 l 1,3,-1
 571 639 l 1,4,-1
 399 0 l 1,5,-1
 123 0 l 1,6,-1
 279 582 l 1,7,-1
 193 563 l 1,8,-1
 233 717 l 1,9,-1
 319 735 l 1,10,-1
 473 1311 l 1,11,-1
 750 1311 l 1,0,-1
EndSplineSet
Validated: 1
EndChar

StartChar: OE
Encoding: 338 338 198
Width: 1679
GlyphClass: 2
Flags: W
LayerCount: 2
Fore
SplineSet
1878 1126 m 1,0,-1
 1817 891 l 1,1,-1
 1325 891 l 1,2,-1
 1270 686 l 1,3,-1
 1741 686 l 1,4,-1
 1677 451 l 1,5,-1
 1206 451 l 1,6,-1
 1149 236 l 1,7,-1
 1640 236 l 1,8,-1
 1577 0 l 1,9,-1
 604 0 l 2,10,11
 415 0 415 0 319 96 c 128,-1,12
 223 192 223 192 223 365 c 0,13,14
 223 455 223 455 254 573 c 2,15,-1
 270 635 l 2,16,17
 338 890 338 890 483 1008 c 128,-1,18
 628 1126 628 1126 864 1126 c 2,19,-1
 1878 1126 l 1,0,-1
1047 891 m 1,20,-1
 823 891 l 2,21,22
 614 891 614 891 545 625 c 2,23,-1
 518 522 l 2,24,25
 498 441 498 441 498 385 c 0,26,27
 498 236 498 236 647 236 c 2,28,-1
 872 236 l 1,29,-1
 1047 891 l 1,20,-1
EndSplineSet
Validated: 1
EndChar

StartChar: oe
Encoding: 339 339 199
Width: 1671
GlyphClass: 2
Flags: W
LayerCount: 2
Fore
SplineSet
1724 643 m 0,0,1
 1724 568 1724 568 1704 502 c 2,2,-1
 1669 375 l 1,3,-1
 1116 375 l 1,4,5
 1114 359 1114 359 1114 340 c 0,6,7
 1114 225 1114 225 1243 225 c 2,8,-1
 1577 225 l 1,9,-1
 1518 0 l 1,10,-1
 1184 0 l 2,11,12
 1018 0 1018 0 928 78 c 1,13,14
 816 0 816 0 629 0 c 2,15,-1
 530 0 l 2,16,17
 366 0 366 0 283 82 c 0,18,19
 199 165 199 165 199 299 c 0,20,21
 199 374 199 374 219 440 c 2,22,-1
 258 584 l 2,23,24
 308 764 308 764 422 853 c 0,25,26
 537 942 537 942 741 942 c 2,27,-1
 840 942 l 2,28,29
 1002 942 1002 942 1090 860 c 1,30,31
 1202 942 1202 942 1370 942 c 2,32,-1
 1411 942 l 2,33,34
 1560 942 1560 942 1642 860 c 128,-1,35
 1724 778 1724 778 1724 643 c 0,0,1
1454 641 m 0,36,37
 1454 737 1454 737 1364 737 c 2,38,-1
 1331 737 l 2,39,40
 1268 737 1268 737 1231 695 c 0,41,42
 1193 652 1193 652 1169 573 c 2,43,-1
 1161 547 l 1,44,-1
 1440 547 l 1,45,-1
 1444 563 l 2,46,47
 1454 607 1454 607 1454 641 c 0,36,37
899 625 m 0,48,49
 899 721 899 721 795 721 c 2,50,-1
 696 721 l 2,51,52
 630 721 630 721 593 688 c 128,-1,53
 556 655 556 655 535 584 c 2,54,-1
 479 379 l 2,55,56
 471 347 471 347 471 317 c 0,57,58
 471 221 471 221 575 221 c 2,59,-1
 674 221 l 2,60,61
 740 221 740 221 777 254 c 0,62,63
 816 288 816 288 836 358 c 2,64,-1
 891 563 l 2,65,66
 899 595 899 595 899 625 c 0,48,49
EndSplineSet
Validated: 1
EndChar

StartChar: Scaron
Encoding: 352 352 200
Width: 1075
GlyphClass: 2
Flags: W
LayerCount: 2
Fore
SplineSet
1253 1556 m 5,0,-1
 1190 1321 l 5,1,-1
 811 1208 l 5,2,-1
 457 1341 l 5,3,-1
 516 1556 l 5,4,-1
 838 1454 l 5,5,-1
 1253 1556 l 5,0,-1
1212 1126 m 1,6,-1
 1151 891 l 1,7,-1
 719 891 l 2,8,9
 620 891 620 891 596 811 c 2,10,-1
 590 791 l 2,11,12
 588 781 588 781 588 766 c 0,13,14
 588 749 588 749 600 737 c 0,15,16
 611 726 611 726 626 721 c 0,17,18
 638 717 638 717 670 709 c 2,19,-1
 811 672 l 2,20,21
 1073 605 1073 605 1073 422 c 0,22,23
 1073 371 1073 371 1063 332 c 2,24,-1
 1053 291 l 2,25,26
 1012 126 1012 126 911 63 c 128,-1,27
 810 0 810 0 580 0 c 2,28,-1
 123 0 l 1,29,-1
 186 236 l 1,30,-1
 647 236 l 2,31,32
 714 236 714 236 740 253 c 0,33,34
 768 272 768 272 780 311 c 2,35,-1
 786 332 l 2,36,37
 791 350 791 350 791 358 c 0,38,39
 791 388 791 388 763 407 c 0,40,41
 741 422 741 422 674 438 c 2,42,-1
 530 473 l 2,43,44
 305 528 305 528 305 713 c 0,45,46
 305 764 305 764 315 803 c 2,47,-1
 324 834 l 2,48,49
 368 999 368 999 477 1062 c 0,50,51
 587 1126 587 1126 788 1126 c 2,52,-1
 1212 1126 l 1,6,-1
EndSplineSet
Validated: 1
EndChar

StartChar: scaron
Encoding: 353 353 201
Width: 993
GlyphClass: 2
Flags: W
LayerCount: 2
Fore
SplineSet
1200 1393 m 5,0,-1
 1137 1157 l 5,1,-1
 758 1044 l 5,2,-1
 403 1178 l 5,3,-1
 463 1393 l 5,4,-1
 784 1290 l 5,5,-1
 1200 1393 l 5,0,-1
1081 942 m 1,6,-1
 1022 717 l 1,7,-1
 674 717 l 2,8,9
 553 717 553 717 553 647 c 0,10,11
 553 610 553 610 627 598 c 2,12,-1
 739 580 l 2,13,14
 979 541 979 541 979 365 c 0,15,16
 979 312 979 312 965 264 c 0,17,18
 942 176 942 176 903 119 c 0,19,20
 865 63 865 63 806 39 c 0,21,22
 744 14 744 14 687 7 c 0,23,24
 632 0 632 0 526 0 c 2,25,-1
 143 0 l 1,26,-1
 203 225 l 1,27,-1
 586 225 l 2,28,29
 618 225 618 225 638 228 c 0,30,31
 656 231 656 231 675 248 c 0,32,33
 692 264 692 264 692 293 c 0,34,35
 692 337 692 337 598 352 c 2,36,-1
 512 367 l 2,37,38
 268 408 268 408 268 586 c 0,39,40
 268 622 268 622 281 676 c 0,41,42
 303 764 303 764 345 819 c 256,43,44
 387 874 387 874 453 900 c 0,45,46
 523 927 523 927 581 934 c 0,47,48
 648 942 648 942 739 942 c 2,49,-1
 1081 942 l 1,6,-1
EndSplineSet
Validated: 1
EndChar

StartChar: Ydieresis
Encoding: 376 376 202
Width: 1177
GlyphClass: 2
Flags: W
LayerCount: 2
Fore
SplineSet
1303 1485 m 1,0,-1
 1229 1208 l 1,1,-1
 952 1208 l 1,2,-1
 985 1331 l 2,3,4
 1007 1412 1007 1412 1052 1449 c 0,5,6
 1096 1485 1096 1485 1180 1485 c 2,7,-1
 1303 1485 l 1,0,-1
852 1485 m 1,8,-1
 778 1208 l 1,9,-1
 502 1208 l 1,10,-1
 535 1331 l 2,11,12
 557 1413 557 1413 601 1449 c 0,13,14
 644 1485 644 1485 729 1485 c 2,15,-1
 852 1485 l 1,8,-1
1458 1126 m 1,16,-1
 813 317 l 1,17,-1
 727 0 l 1,18,-1
 451 0 l 1,19,-1
 537 317 l 1,20,-1
 322 1126 l 1,21,-1
 608 1126 l 1,22,-1
 725 584 l 1,23,-1
 1131 1126 l 1,24,-1
 1458 1126 l 1,16,-1
EndSplineSet
Validated: 1
EndChar

StartChar: Zcaron
Encoding: 381 381 203
Width: 993
GlyphClass: 2
Flags: W
LayerCount: 2
Fore
SplineSet
1253 1556 m 1,0,-1
 1190 1321 l 1,1,-1
 811 1208 l 1,2,-1
 457 1341 l 1,3,-1
 516 1556 l 1,4,-1
 838 1454 l 1,5,-1
 1253 1556 l 1,0,-1
1212 1126 m 1,6,-1
 1151 891 l 1,7,-1
 522 236 l 1,8,-1
 975 236 l 1,9,-1
 911 0 l 1,10,-1
 82 0 l 1,11,-1
 145 236 l 1,12,-1
 772 891 l 1,13,-1
 322 891 l 1,14,-1
 383 1126 l 1,15,-1
 1212 1126 l 1,6,-1
EndSplineSet
Validated: 1
EndChar

StartChar: zcaron
Encoding: 382 382 204
Width: 993
GlyphClass: 2
Flags: W
LayerCount: 2
Fore
SplineSet
1233 1393 m 1,0,-1
 1169 1157 l 1,1,-1
 791 1044 l 1,2,-1
 436 1178 l 1,3,-1
 496 1393 l 1,4,-1
 817 1290 l 1,5,-1
 1233 1393 l 1,0,-1
1163 942 m 1,6,-1
 1104 717 l 1,7,-1
 563 225 l 1,8,-1
 971 225 l 1,9,-1
 911 0 l 1,10,-1
 82 0 l 1,11,-1
 141 225 l 1,12,-1
 682 717 l 1,13,-1
 274 717 l 1,14,-1
 334 942 l 1,15,-1
 1163 942 l 1,6,-1
EndSplineSet
Validated: 1
EndChar

StartChar: florin
Encoding: 402 402 205
Width: 645
GlyphClass: 2
Flags: W
LayerCount: 2
Fore
SplineSet
985 1311 m 1,0,-1
 924 1075 l 1,1,-1
 834 1075 l 2,2,3
 804 1075 804 1075 786 1072 c 0,4,5
 769 1069 769 1069 748 1050 c 0,6,7
 728 1032 728 1032 717 995 c 2,8,-1
 702 942 l 1,9,-1
 866 942 l 1,10,-1
 807 717 l 1,11,-1
 643 717 l 1,12,-1
 428 -92 l 2,13,14
 389 -237 389 -237 318 -293 c 0,15,16
 248 -348 248 -348 123 -348 c 2,17,-1
 -84 -348 l 1,18,-1
 -23 -123 l 1,19,-1
 72 -123 l 2,20,21
 141 -123 141 -123 162 -45 c 2,22,-1
 367 717 l 1,23,-1
 223 717 l 1,24,-1
 283 942 l 1,25,-1
 426 942 l 1,26,-1
 440 997 l 2,27,28
 486 1174 486 1174 583 1243 c 0,29,30
 678 1311 678 1311 811 1311 c 2,31,-1
 985 1311 l 1,0,-1
EndSplineSet
Validated: 1
EndChar

StartChar: circumflex
Encoding: 710 710 206
Width: 942
GlyphClass: 2
Flags: W
LayerCount: 2
Fore
SplineSet
1171 1262 m 1,0,-1
 1112 1044 l 1,1,-1
 793 1147 l 1,2,-1
 375 1044 l 1,3,-1
 438 1280 l 1,4,-1
 819 1393 l 1,5,-1
 1171 1262 l 1,0,-1
EndSplineSet
Validated: 1
EndChar

StartChar: ring
Encoding: 730 730 207
Width: 716
GlyphClass: 2
Flags: W
LayerCount: 2
Fore
SplineSet
952 1274 m 4,0,1
 952 1144 952 1144 864 1074 c 132,-1,2
 776 1004 776 1004 643 1004 c 4,3,4
 543 1004 543 1004 482 1051 c 4,5,6
 422 1098 422 1098 422 1184 c 4,7,8
 422 1310 422 1310 510 1382 c 132,-1,9
 598 1454 598 1454 731 1454 c 4,10,11
 838 1454 838 1454 896 1404 c 4,12,13
 952 1355 952 1355 952 1274 c 4,0,1
774 1255 m 4,14,15
 774 1321 774 1321 707 1321 c 4,16,17
 657 1321 657 1321 629 1287 c 4,18,19
 600 1252 600 1252 600 1202 c 4,20,21
 600 1137 600 1137 670 1137 c 4,22,23
 724 1137 724 1137 749 1169 c 132,-1,24
 774 1201 774 1201 774 1255 c 4,14,15
EndSplineSet
Validated: 1
EndChar

StartChar: tilde
Encoding: 732 732 208
Width: 942
GlyphClass: 2
Flags: W
LayerCount: 2
Fore
SplineSet
1174 1270 m 1,0,-1
 1130 1106 l 1,1,2
 1028 1034 1028 1034 915 1034 c 0,3,4
 866 1034 866 1034 741 1060 c 0,5,6
 620 1085 620 1085 578 1085 c 2,7,-1
 387 1085 l 1,8,-1
 432 1249 l 1,9,10
 531 1321 531 1321 645 1321 c 0,11,12
 710 1321 710 1321 831 1295 c 0,13,14
 947 1270 947 1270 983 1270 c 2,15,-1
 1174 1270 l 1,0,-1
EndSplineSet
Validated: 1
EndChar

StartChar: endash
Encoding: 8211 8211 209
Width: 1249
GlyphClass: 2
Flags: W
LayerCount: 2
Fore
SplineSet
1327 676 m 1,0,-1
 1262 430 l 1,1,-1
 217 430 l 1,2,-1
 283 676 l 1,3,-1
 1327 676 l 1,0,-1
EndSplineSet
Validated: 1
EndChar

StartChar: emdash
Encoding: 8212 8212 210
Width: 1454
GlyphClass: 2
Flags: W
LayerCount: 2
Fore
SplineSet
1532 676 m 1,0,-1
 1466 430 l 1,1,-1
 217 430 l 1,2,-1
 283 676 l 1,3,-1
 1532 676 l 1,0,-1
EndSplineSet
Validated: 1
EndChar

StartChar: quoteleft
Encoding: 8216 8216 211
Width: 501
GlyphClass: 2
Flags: W
LayerCount: 2
Fore
SplineSet
750 1311 m 1,0,-1
 594 727 l 1,1,-1
 297 727 l 1,2,-1
 524 1311 l 1,3,-1
 750 1311 l 1,0,-1
EndSplineSet
Validated: 1
EndChar

StartChar: quoteright
Encoding: 8217 8217 212
Width: 501
GlyphClass: 2
Flags: W
LayerCount: 2
Fore
SplineSet
750 1311 m 1,0,-1
 522 727 l 1,1,-1
 297 727 l 1,2,-1
 453 1311 l 1,3,-1
 750 1311 l 1,0,-1
EndSplineSet
Validated: 1
EndChar

StartChar: quotesinglbase
Encoding: 8218 8218 213
Width: 501
GlyphClass: 2
Flags: W
LayerCount: 2
Fore
SplineSet
479 297 m 1,0,-1
 250 -287 l 1,1,-1
 25 -287 l 1,2,-1
 182 297 l 1,3,-1
 479 297 l 1,0,-1
EndSplineSet
Validated: 1
EndChar

StartChar: quotedblleft
Encoding: 8220 8220 214
Width: 921
GlyphClass: 2
Flags: W
LayerCount: 2
Fore
SplineSet
1169 1311 m 1,0,-1
 1014 727 l 1,1,-1
 717 727 l 1,2,-1
 944 1311 l 1,3,-1
 1169 1311 l 1,0,-1
750 1311 m 1,4,-1
 594 727 l 1,5,-1
 297 727 l 1,6,-1
 524 1311 l 1,7,-1
 750 1311 l 1,4,-1
EndSplineSet
Validated: 1
EndChar

StartChar: quotedblright
Encoding: 8221 8221 215
Width: 921
GlyphClass: 2
Flags: W
LayerCount: 2
Fore
SplineSet
1169 1311 m 1,0,-1
 942 727 l 1,1,-1
 717 727 l 1,2,-1
 872 1311 l 1,3,-1
 1169 1311 l 1,0,-1
750 1311 m 1,4,-1
 522 727 l 1,5,-1
 297 727 l 1,6,-1
 453 1311 l 1,7,-1
 750 1311 l 1,4,-1
EndSplineSet
Validated: 1
EndChar

StartChar: quotedblbase
Encoding: 8222 8222 216
Width: 921
GlyphClass: 2
Flags: W
LayerCount: 2
Fore
SplineSet
899 297 m 1,0,-1
 670 -287 l 1,1,-1
 444 -287 l 1,2,-1
 602 297 l 1,3,-1
 899 297 l 1,0,-1
479 297 m 1,4,-1
 250 -287 l 1,5,-1
 25 -287 l 1,6,-1
 182 297 l 1,7,-1
 479 297 l 1,4,-1
EndSplineSet
Validated: 1
EndChar

StartChar: dagger
Encoding: 8224 8224 217
Width: 1064
GlyphClass: 2
Flags: W
LayerCount: 2
Fore
SplineSet
1214 942 m 1,0,-1
 1151 707 l 1,1,-1
 860 707 l 1,2,-1
 672 0 l 1,3,-1
 395 0 l 1,4,-1
 584 707 l 1,5,-1
 291 707 l 1,6,-1
 354 942 l 1,7,-1
 647 942 l 1,8,-1
 745 1311 l 1,9,-1
 1022 1311 l 1,10,-1
 924 942 l 1,11,-1
 1214 942 l 1,0,-1
EndSplineSet
Validated: 1
EndChar

StartChar: daggerdbl
Encoding: 8225 8225 218
Width: 1064
GlyphClass: 2
Flags: W
LayerCount: 2
Fore
SplineSet
1237 1024 m 1,0,-1
 1174 788 l 1,1,-1
 883 788 l 1,2,-1
 811 522 l 1,3,-1
 1102 522 l 1,4,-1
 1040 287 l 1,5,-1
 750 287 l 1,6,-1
 672 0 l 1,7,-1
 395 0 l 1,8,-1
 473 287 l 1,9,-1
 180 287 l 1,10,-1
 242 522 l 1,11,-1
 535 522 l 1,12,-1
 606 788 l 1,13,-1
 313 788 l 1,14,-1
 377 1024 l 1,15,-1
 670 1024 l 1,16,-1
 745 1311 l 1,17,-1
 1022 1311 l 1,18,-1
 946 1024 l 1,19,-1
 1237 1024 l 1,0,-1
EndSplineSet
Validated: 1
EndChar

StartChar: bullet
Encoding: 8226 8226 219
Width: 563
GlyphClass: 2
Flags: W
LayerCount: 2
Fore
SplineSet
662 748 m 1,0,-1
 565 389 l 1,1,-1
 207 389 l 1,2,-1
 303 748 l 1,3,-1
 662 748 l 1,0,-1
EndSplineSet
Validated: 1
EndChar

StartChar: ellipsis
Encoding: 8230 8230 220
Width: 1341
GlyphClass: 2
Flags: W
LayerCount: 2
Fore
SplineSet
1319 297 m 1,0,-1
 1239 0 l 1,1,-1
 942 0 l 1,2,-1
 1022 297 l 1,3,-1
 1319 297 l 1,0,-1
899 297 m 1,4,-1
 819 0 l 1,5,-1
 522 0 l 1,6,-1
 602 297 l 1,7,-1
 899 297 l 1,4,-1
479 297 m 1,8,-1
 399 0 l 1,9,-1
 102 0 l 1,10,-1
 182 297 l 1,11,-1
 479 297 l 1,8,-1
EndSplineSet
Validated: 1
EndChar

StartChar: perthousand
Encoding: 8240 8240 221
Width: 2998
GlyphClass: 2
Flags: W
LayerCount: 2
Fore
SplineSet
3011 485 m 0,0,1
 3011 422 3011 422 2996 375 c 2,2,-1
 2982 322 l 2,3,4
 2896 0 2896 0 2537 0 c 2,5,-1
 2521 0 l 2,6,7
 2354 0 2354 0 2265 80 c 0,8,9
 2177 159 2177 159 2177 291 c 0,10,11
 2177 353 2177 353 2191 406 c 2,12,-1
 2206 459 l 2,13,14
 2251 625 2251 625 2358 702 c 0,15,16
 2466 780 2466 780 2648 780 c 2,17,-1
 2664 780 l 2,18,19
 2828 780 2828 780 2919 699 c 0,20,21
 3011 618 3011 618 3011 485 c 0,0,1
2144 485 m 0,22,23
 2144 418 2144 418 2130 375 c 2,24,-1
 2116 322 l 2,25,26
 2030 0 2030 0 1671 0 c 2,27,-1
 1655 0 l 2,28,29
 1488 0 1488 0 1399 80 c 0,30,31
 1311 159 1311 159 1311 291 c 0,32,33
 1311 352 1311 352 1325 405 c 2,34,-1
 1339 459 l 2,35,36
 1383 624 1383 624 1492 702 c 0,37,38
 1600 780 1600 780 1782 780 c 2,39,-1
 1798 780 l 2,40,41
 1962 780 1962 780 2053 699 c 256,42,43
 2144 618 2144 618 2144 485 c 0,22,23
1880 1311 m 1,44,-1
 903 0 l 1,45,-1
 596 0 l 1,46,-1
 1573 1311 l 1,47,-1
 1880 1311 l 1,44,-1
1165 1016 m 0,48,49
 1165 948 1165 948 1151 905 c 2,50,-1
 1137 852 l 2,51,52
 1051 530 1051 530 692 530 c 2,53,-1
 676 530 l 2,54,55
 509 530 509 530 420 610 c 0,56,57
 332 689 332 689 332 821 c 0,58,59
 332 883 332 883 346 936 c 2,60,-1
 360 989 l 2,61,62
 405 1155 405 1155 513 1233 c 128,-1,63
 621 1311 621 1311 803 1311 c 2,64,-1
 819 1311 l 2,65,66
 982 1311 982 1311 1074 1230 c 0,67,68
 1165 1149 1165 1149 1165 1016 c 0,48,49
2736 469 m 0,69,70
 2736 565 2736 565 2642 565 c 2,71,-1
 2621 565 l 2,72,73
 2512 565 2512 565 2474 424 c 2,74,-1
 2460 369 l 2,75,76
 2451 333 2451 333 2451 309 c 0,77,78
 2451 215 2451 215 2546 215 c 2,79,-1
 2568 215 l 2,80,81
 2676 215 2676 215 2714 356 c 2,82,-1
 2728 412 l 2,83,84
 2736 441 2736 441 2736 469 c 0,69,70
1870 469 m 0,85,86
 1870 565 1870 565 1776 565 c 2,87,-1
 1755 565 l 2,88,89
 1646 565 1646 565 1608 424 c 2,90,-1
 1593 369 l 2,91,92
 1585 337 1585 337 1585 309 c 0,93,94
 1585 215 1585 215 1679 215 c 2,95,-1
 1702 215 l 2,96,97
 1810 215 1810 215 1847 356 c 2,98,-1
 1862 412 l 2,99,100
 1870 441 1870 441 1870 469 c 0,85,86
891 999 m 0,101,102
 891 1096 891 1096 797 1096 c 2,103,-1
 776 1096 l 2,104,105
 667 1096 667 1096 629 954 c 2,106,-1
 614 899 l 2,107,108
 606 867 606 867 606 840 c 0,109,110
 606 745 606 745 700 745 c 2,111,-1
 723 745 l 2,112,113
 830 745 830 745 868 887 c 2,114,-1
 883 942 l 2,115,116
 891 971 891 971 891 999 c 0,101,102
EndSplineSet
Validated: 1
EndChar

StartChar: guilsinglleft
Encoding: 8249 8249 222
Width: 624
GlyphClass: 2
Flags: W
LayerCount: 2
Fore
SplineSet
778 881 m 1,0,-1
 537 512 l 1,1,-1
 582 143 l 1,2,-1
 326 143 l 1,3,-1
 240 512 l 1,4,-1
 502 881 l 1,5,-1
 778 881 l 1,0,-1
EndSplineSet
Validated: 1
EndChar

StartChar: guilsinglright
Encoding: 8250 8250 223
Width: 624
GlyphClass: 2
Flags: W
LayerCount: 2
Fore
SplineSet
659 512 m 1,0,-1
 397 143 l 1,1,-1
 121 143 l 1,2,-1
 362 512 l 1,3,-1
 317 881 l 1,4,-1
 573 881 l 1,5,-1
 659 512 l 1,0,-1
EndSplineSet
Validated: 1
EndChar

StartChar: fraction
Encoding: 8260 8260 224
Width: 481
GlyphClass: 2
Flags: W
LayerCount: 2
Fore
SplineSet
567 707 m 1,0,-1
 494 430 l 1,1,-1
 217 430 l 1,2,-1
 291 707 l 1,3,-1
 567 707 l 1,0,-1
EndSplineSet
Validated: 1
EndChar

StartChar: Euro
Encoding: 8364 8364 225
Width: 1136
GlyphClass: 2
Flags: W
LayerCount: 2
Fore
SplineSet
1356 1126 m 1,0,-1
 1292 885 l 1,1,-1
 903 885 l 2,2,3
 736 885 736 885 668 778 c 1,4,-1
 1161 778 l 1,5,-1
 1114 604 l 1,6,-1
 602 604 l 1,7,-1
 582 522 l 1,8,-1
 1092 522 l 1,9,-1
 1047 348 l 1,10,-1
 563 348 l 1,11,12
 585 242 585 242 735 242 c 2,13,-1
 1120 242 l 1,14,-1
 1055 0 l 1,15,-1
 686 0 l 2,16,17
 489 0 489 0 384 90 c 128,-1,18
 279 180 279 180 279 348 c 1,19,-1
 156 348 l 1,20,-1
 201 522 l 1,21,-1
 303 522 l 1,22,-1
 324 604 l 1,23,-1
 223 604 l 1,24,-1
 270 778 l 1,25,-1
 381 778 l 1,26,27
 532 1126 532 1126 946 1126 c 2,28,-1
 1356 1126 l 1,0,-1
EndSplineSet
Validated: 1
EndChar

StartChar: minus
Encoding: 8722 8722 226
Width: 1075
GlyphClass: 2
Flags: W
LayerCount: 2
Fore
SplineSet
1198 840 m 1,0,-1
 1133 594 l 1,1,-1
 262 594 l 1,2,-1
 328 840 l 1,3,-1
 1198 840 l 1,0,-1
EndSplineSet
Validated: 1
EndChar

StartChar: fi
Encoding: 65538 -1 227
Width: 1085
GlyphClass: 3
Flags: W
LayerCount: 2
Fore
SplineSet
1313 1311 m 1,0,-1
 1239 1034 l 1,1,-1
 963 1034 l 1,2,-1
 995 1157 l 2,3,4
 1017 1238 1017 1238 1062 1275 c 0,5,6
 1106 1311 1106 1311 1190 1311 c 2,7,-1
 1313 1311 l 1,0,-1
1214 942 m 1,8,-1
 963 0 l 1,9,-1
 686 0 l 1,10,-1
 938 942 l 1,11,-1
 1214 942 l 1,8,-1
944 1311 m 1,12,-1
 883 1075 l 1,13,-1
 793 1075 l 2,14,15
 763 1075 763 1075 745 1072 c 0,16,17
 728 1069 728 1069 707 1050 c 0,18,19
 687 1032 687 1032 676 995 c 2,20,-1
 662 942 l 1,21,-1
 805 942 l 1,22,-1
 745 717 l 1,23,-1
 602 717 l 1,24,-1
 387 -92 l 2,25,26
 348 -238 348 -238 278 -293 c 128,-1,27
 208 -348 208 -348 82 -348 c 2,28,-1
 -84 -348 l 1,29,-1
 -23 -123 l 1,30,-1
 31 -123 l 2,31,32
 100 -123 100 -123 121 -45 c 2,33,-1
 326 717 l 1,34,-1
 223 717 l 1,35,-1
 283 942 l 1,36,-1
 385 942 l 1,37,-1
 399 997 l 2,38,39
 445 1174 445 1174 542 1243 c 0,40,41
 637 1311 637 1311 770 1311 c 2,42,-1
 944 1311 l 1,12,-1
EndSplineSet
Validated: 1
Ligature2: "'liga' Standard Ligatures lookup 0 subtable" f i
EndChar

StartChar: fl
Encoding: 65539 -1 228
Width: 1085
GlyphClass: 3
Flags: W
LayerCount: 2
Fore
SplineSet
1313 1311 m 1,0,-1
 963 0 l 1,1,-1
 686 0 l 1,2,-1
 1036 1311 l 1,3,-1
 1313 1311 l 1,0,-1
944 1311 m 1,4,-1
 883 1075 l 1,5,-1
 793 1075 l 2,6,7
 763 1075 763 1075 745 1072 c 0,8,9
 728 1069 728 1069 707 1050 c 0,10,11
 687 1032 687 1032 676 995 c 2,12,-1
 662 942 l 1,13,-1
 805 942 l 1,14,-1
 745 717 l 1,15,-1
 602 717 l 1,16,-1
 387 -92 l 2,17,18
 348 -238 348 -238 278 -293 c 128,-1,19
 208 -348 208 -348 82 -348 c 2,20,-1
 -84 -348 l 1,21,-1
 -23 -123 l 1,22,-1
 31 -123 l 2,23,24
 100 -123 100 -123 121 -45 c 2,25,-1
 326 717 l 1,26,-1
 223 717 l 1,27,-1
 283 942 l 1,28,-1
 385 942 l 1,29,-1
 399 997 l 2,30,31
 445 1174 445 1174 542 1243 c 0,32,33
 637 1311 637 1311 770 1311 c 2,34,-1
 944 1311 l 1,4,-1
EndSplineSet
Validated: 1
Ligature2: "'liga' Standard Ligatures lookup 0 subtable" f l
EndChar

StartChar: Ccaron
Encoding: 268 268 229
Width: 1034
Flags: W
LayerCount: 2
Fore
SplineSet
1354 1558 m 5,0,-1
 1291 1323 l 5,1,-1
 912 1210 l 5,2,-1
 558 1343 l 5,3,-1
 617 1558 l 5,4,-1
 939 1456 l 5,5,-1
 1354 1558 l 5,0,-1
1253 1126 m 1,6,-1
 1190 885 l 1,7,-1
 842 885 l 2,8,9
 716 885 716 885 649 819 c 0,10,11
 583 754 583 754 545 618 c 2,12,-1
 520 528 l 2,13,14
 498 450 498 450 498 391 c 0,15,16
 498 242 498 242 674 242 c 2,17,-1
 1018 242 l 1,18,-1
 952 0 l 1,19,-1
 625 0 l 2,20,21
 427 0 427 0 322 90 c 128,-1,22
 217 180 217 180 217 350 c 0,23,24
 217 421 217 421 244 532 c 2,25,-1
 270 635 l 2,26,27
 336 890 336 890 486 1008 c 0,28,29
 635 1126 635 1126 885 1126 c 2,30,-1
 1253 1126 l 1,6,-1
EndSplineSet
Validated: 1
EndChar

StartChar: ccaron
Encoding: 269 269 230
Width: 890
Flags: W
LayerCount: 2
Fore
SplineSet
1200 1393 m 5,0,-1
 1137 1157 l 5,1,-1
 758 1044 l 5,2,-1
 403 1178 l 5,3,-1
 463 1393 l 5,4,-1
 784 1290 l 5,5,-1
 1200 1393 l 5,0,-1
1061 942 m 1,6,-1
 1001 717 l 1,7,-1
 729 717 l 2,8,9
 638 717 638 717 594 677 c 0,10,11
 548 636 548 636 526 553 c 2,12,-1
 487 410 l 2,13,14
 477 379 477 379 477 328 c 0,15,16
 477 225 477 225 604 225 c 2,17,-1
 868 225 l 1,18,-1
 809 0 l 1,19,-1
 539 0 l 2,20,21
 376 0 376 0 285 71 c 0,22,23
 195 142 195 142 195 279 c 0,24,25
 195 343 195 343 215 424 c 2,26,-1
 250 559 l 2,27,28
 302 761 302 761 425 852 c 0,29,30
 546 942 546 942 750 942 c 2,31,-1
 1061 942 l 1,6,-1
EndSplineSet
Validated: 1
EndChar

StartChar: Dcaron
Encoding: 270 270 231
Width: 1249
Flags: W
LayerCount: 2
Fore
SplineSet
1253 1556 m 5,0,-1
 1190 1321 l 5,1,-1
 811 1208 l 5,2,-1
 457 1341 l 5,3,-1
 516 1556 l 5,4,-1
 838 1454 l 5,5,-1
 1253 1556 l 5,0,-1
1329 760 m 0,6,7
 1329 668 1329 668 1303 573 c 2,8,-1
 1276 471 l 2,9,10
 1213 224 1213 224 1056 112 c 128,-1,11
 899 0 899 0 645 0 c 2,12,-1
 123 0 l 1,13,-1
 424 1126 l 1,14,-1
 905 1126 l 2,15,16
 1108 1126 1108 1126 1218 1032 c 0,17,18
 1329 937 1329 937 1329 760 c 0,6,7
1049 721 m 0,19,20
 1049 891 1049 891 864 891 c 2,21,-1
 639 891 l 1,22,-1
 463 236 l 1,23,-1
 688 236 l 2,24,25
 937 236 937 236 1006 502 c 2,26,-1
 1032 604 l 2,27,28
 1049 675 1049 675 1049 721 c 0,19,20
EndSplineSet
Validated: 1
EndChar

StartChar: dcaron
Encoding: 271 271 232
Width: 1054
Flags: W
LayerCount: 2
Fore
SplineSet
1625 1309 m 5,0,-1
 1469 725 l 5,1,-1
 1193 725 l 5,2,-1
 1349 1309 l 5,3,-1
 1625 1309 l 5,0,-1
1282 1311 m 1,4,-1
 932 0 l 1,5,-1
 461 0 l 2,6,7
 326 0 326 0 256 68 c 128,-1,8
 186 136 186 136 186 254 c 0,9,10
 186 316 186 316 205 389 c 2,11,-1
 260 594 l 2,12,13
 305 768 305 768 404 855 c 128,-1,14
 503 942 503 942 672 942 c 2,15,-1
 907 942 l 1,16,-1
 1006 1311 l 1,17,-1
 1282 1311 l 1,4,-1
848 717 m 1,18,-1
 707 717 l 2,19,20
 571 717 571 717 532 573 c 2,21,-1
 483 389 l 2,22,23
 473 350 473 350 473 317 c 0,24,25
 473 225 473 225 573 225 c 2,26,-1
 715 225 l 1,27,-1
 848 717 l 1,18,-1
EndSplineSet
Validated: 1
EndChar

StartChar: ebreve
Encoding: 277 277 233
Width: 1034
Flags: W
LayerCount: 2
Fore
SplineSet
1200 1393 m 5,0,-1
 1137 1157 l 5,1,-1
 758 1044 l 5,2,-1
 403 1178 l 5,3,-1
 463 1393 l 5,4,-1
 784 1290 l 5,5,-1
 1200 1393 l 5,0,-1
1085 643 m 0,6,7
 1085 565 1085 565 1067 502 c 2,8,-1
 1032 375 l 1,9,-1
 479 375 l 1,10,11
 477 359 477 359 477 332 c 0,12,13
 477 225 477 225 606 225 c 2,14,-1
 940 225 l 1,15,-1
 881 0 l 1,16,-1
 547 0 l 2,17,18
 383 0 383 0 291 77 c 128,-1,19
 199 154 199 154 199 295 c 0,20,21
 199 380 199 380 219 446 c 2,22,-1
 256 578 l 2,23,24
 308 764 308 764 421 854 c 0,25,26
 531 942 531 942 727 942 c 2,27,-1
 774 942 l 2,28,29
 924 942 924 942 1005 860 c 0,30,31
 1085 779 1085 779 1085 643 c 0,6,7
817 641 m 0,32,33
 817 737 817 737 727 737 c 2,34,-1
 694 737 l 2,35,36
 577 737 577 737 532 575 c 2,37,-1
 524 547 l 1,38,-1
 803 547 l 1,39,-1
 807 563 l 2,40,41
 817 607 817 607 817 641 c 0,32,33
EndSplineSet
Validated: 1
EndChar

StartChar: Ebreve
Encoding: 276 276 234
Width: 1054
Flags: W
LayerCount: 2
Fore
SplineSet
1277 1555 m 5,0,-1
 1214 1320 l 5,1,-1
 835 1207 l 5,2,-1
 481 1340 l 5,3,-1
 540 1555 l 5,4,-1
 862 1453 l 5,5,-1
 1277 1555 l 5,0,-1
1253 1126 m 1,6,-1
 1192 891 l 1,7,-1
 639 891 l 1,8,-1
 584 686 l 1,9,-1
 1116 686 l 1,10,-1
 1053 451 l 1,11,-1
 520 451 l 1,12,-1
 463 236 l 1,13,-1
 1016 236 l 1,14,-1
 952 0 l 1,15,-1
 123 0 l 1,16,-1
 424 1126 l 1,17,-1
 1253 1126 l 1,6,-1
EndSplineSet
Validated: 1
EndChar

StartChar: Ecaron
Encoding: 282 282 235
Width: 1054
Flags: W
LayerCount: 2
Fore
SplineSet
1277 1555 m 5,0,-1
 1214 1320 l 5,1,-1
 835 1207 l 5,2,-1
 481 1340 l 5,3,-1
 540 1555 l 5,4,-1
 862 1453 l 5,5,-1
 1277 1555 l 5,0,-1
1253 1126 m 1,6,-1
 1192 891 l 1,7,-1
 639 891 l 1,8,-1
 584 686 l 1,9,-1
 1116 686 l 1,10,-1
 1053 451 l 1,11,-1
 520 451 l 1,12,-1
 463 236 l 1,13,-1
 1016 236 l 1,14,-1
 952 0 l 1,15,-1
 123 0 l 1,16,-1
 424 1126 l 1,17,-1
 1253 1126 l 1,6,-1
EndSplineSet
Validated: 1
EndChar

StartChar: ecaron
Encoding: 283 283 236
Width: 1034
Flags: W
LayerCount: 2
Fore
SplineSet
1200 1393 m 5,0,-1
 1137 1157 l 5,1,-1
 758 1044 l 5,2,-1
 403 1178 l 5,3,-1
 463 1393 l 5,4,-1
 784 1290 l 5,5,-1
 1200 1393 l 5,0,-1
1085 643 m 0,6,7
 1085 565 1085 565 1067 502 c 2,8,-1
 1032 375 l 1,9,-1
 479 375 l 1,10,11
 477 359 477 359 477 332 c 0,12,13
 477 225 477 225 606 225 c 2,14,-1
 940 225 l 1,15,-1
 881 0 l 1,16,-1
 547 0 l 2,17,18
 383 0 383 0 291 77 c 128,-1,19
 199 154 199 154 199 295 c 0,20,21
 199 380 199 380 219 446 c 2,22,-1
 256 578 l 2,23,24
 308 764 308 764 421 854 c 0,25,26
 531 942 531 942 727 942 c 2,27,-1
 774 942 l 2,28,29
 924 942 924 942 1005 860 c 0,30,31
 1085 779 1085 779 1085 643 c 0,6,7
817 641 m 0,32,33
 817 737 817 737 727 737 c 2,34,-1
 694 737 l 2,35,36
 577 737 577 737 532 575 c 2,37,-1
 524 547 l 1,38,-1
 803 547 l 1,39,-1
 807 563 l 2,40,41
 817 607 817 607 817 641 c 0,32,33
EndSplineSet
Validated: 1
EndChar

StartChar: Rcaron
Encoding: 344 344 237
Width: 1167
Flags: W
LayerCount: 2
Fore
SplineSet
1277 1555 m 5,0,-1
 1214 1320 l 5,1,-1
 835 1207 l 5,2,-1
 481 1340 l 5,3,-1
 540 1555 l 5,4,-1
 862 1453 l 5,5,-1
 1277 1555 l 5,0,-1
1303 866 m 0,6,7
 1303 810 1303 810 1284 737 c 0,8,9
 1244 585 1244 585 1156 509 c 0,10,11
 1069 434 1069 434 915 416 c 1,12,-1
 1147 0 l 1,13,-1
 840 0 l 1,14,-1
 608 410 l 1,15,-1
 510 410 l 1,16,-1
 399 0 l 1,17,-1
 123 0 l 1,18,-1
 424 1126 l 1,19,-1
 926 1126 l 2,20,21
 1303 1126 1303 1126 1303 866 c 0,6,7
1020 807 m 0,22,23
 1020 901 1020 901 856 901 c 2,24,-1
 641 901 l 1,25,-1
 569 635 l 1,26,-1
 784 635 l 2,27,28
 900 635 900 635 945 658 c 0,29,30
 991 682 991 682 1012 758 c 0,31,32
 1020 798 1020 798 1020 807 c 0,22,23
EndSplineSet
Validated: 1
EndChar

StartChar: rcaron
Encoding: 345 345 238
Width: 686
Flags: W
LayerCount: 2
Fore
SplineSet
1128 1393 m 1,0,-1
 1065 1157 l 1,1,-1
 686 1044 l 1,2,-1
 331 1178 l 1,3,-1
 391 1393 l 1,4,-1
 712 1290 l 1,5,-1
 1128 1393 l 1,0,-1
897 942 m 1,6,-1
 831 696 l 1,7,-1
 715 696 l 2,8,9
 641 696 641 696 605 663 c 0,10,11
 568 629 568 629 547 553 c 2,12,-1
 399 0 l 1,13,-1
 123 0 l 1,14,-1
 281 594 l 2,15,16
 326 768 326 768 425 855 c 128,-1,17
 524 942 524 942 692 942 c 2,18,-1
 897 942 l 1,6,-1
EndSplineSet
Validated: 1
EndChar

StartChar: Tcaron
Encoding: 356 356 239
Width: 1167
Flags: W
LayerCount: 2
Fore
SplineSet
1330 1555 m 1,0,-1
 1267 1320 l 1,1,-1
 888 1207 l 1,2,-1
 534 1340 l 1,3,-1
 593 1555 l 1,4,-1
 915 1453 l 1,5,-1
 1330 1555 l 1,0,-1
1407 1126 m 1,6,-1
 1339 870 l 1,7,-1
 956 870 l 1,8,-1
 723 0 l 1,9,-1
 446 0 l 1,10,-1
 680 870 l 1,11,-1
 295 870 l 1,12,-1
 362 1126 l 1,13,-1
 1407 1126 l 1,6,-1
EndSplineSet
Validated: 1
EndChar

StartChar: tcaron
Encoding: 357 357 240
Width: 747
Flags: W
LayerCount: 2
Fore
SplineSet
1194 1563 m 5,0,-1
 1038 979 l 5,1,-1
 762 979 l 5,2,-1
 918 1563 l 5,3,-1
 1194 1563 l 5,0,-1
958 942 m 1,4,-1
 899 717 l 1,5,-1
 653 717 l 1,6,-1
 553 344 l 2,7,8
 545 309 545 309 545 297 c 0,9,10
 545 236 545 236 635 236 c 2,11,-1
 770 236 l 1,12,-1
 707 0 l 1,13,-1
 528 0 l 2,14,15
 256 0 256 0 256 215 c 0,16,17
 256 277 256 277 272 332 c 2,18,-1
 377 717 l 1,19,-1
 213 717 l 1,20,-1
 272 942 l 1,21,-1
 436 942 l 1,22,-1
 518 1249 l 1,23,-1
 795 1249 l 1,24,-1
 713 942 l 1,25,-1
 958 942 l 1,4,-1
EndSplineSet
Validated: 1
EndChar

StartChar: Uring
Encoding: 366 366 241
Width: 1249
Flags: W
LayerCount: 2
Fore
SplineSet
1235 1462 m 4,0,1
 1235 1332 1235 1332 1147 1262 c 132,-1,2
 1059 1192 1059 1192 926 1192 c 4,3,4
 826 1192 826 1192 765 1239 c 4,5,6
 705 1286 705 1286 705 1372 c 4,7,8
 705 1498 705 1498 793 1570 c 132,-1,9
 881 1642 881 1642 1014 1642 c 4,10,11
 1121 1642 1121 1642 1179 1592 c 4,12,13
 1235 1543 1235 1543 1235 1462 c 4,0,1
1057 1443 m 4,14,15
 1057 1509 1057 1509 990 1509 c 4,16,17
 940 1509 940 1509 912 1475 c 4,18,19
 883 1440 883 1440 883 1390 c 4,20,21
 883 1325 883 1325 953 1325 c 4,22,23
 1007 1325 1007 1325 1032 1357 c 132,-1,24
 1057 1389 1057 1389 1057 1443 c 4,14,15
1427 1126 m 1,25,-1
 1262 492 l 2,26,27
 1196 240 1196 240 1049 120 c 128,-1,28
 902 0 902 0 666 0 c 2,29,-1
 625 0 l 2,30,31
 439 0 439 0 341 94 c 0,32,33
 242 188 242 188 242 358 c 0,34,35
 242 447 242 447 270 553 c 2,36,-1
 424 1126 l 1,37,-1
 700 1126 l 1,38,-1
 543 532 l 2,39,40
 518 434 518 434 518 383 c 0,41,42
 518 236 518 236 662 236 c 2,43,-1
 709 236 l 2,44,45
 915 236 915 236 993 532 c 2,46,-1
 1151 1126 l 1,47,-1
 1427 1126 l 1,25,-1
EndSplineSet
Validated: 1
EndChar

StartChar: uring
Encoding: 367 367 242
Width: 1075
Flags: W
LayerCount: 2
Fore
SplineSet
1106 1282 m 4,0,1
 1106 1152 1106 1152 1018 1082 c 132,-1,2
 930 1012 930 1012 797 1012 c 4,3,4
 697 1012 697 1012 636 1059 c 4,5,6
 576 1106 576 1106 576 1192 c 4,7,8
 576 1318 576 1318 664 1390 c 132,-1,9
 752 1462 752 1462 885 1462 c 4,10,11
 992 1462 992 1462 1050 1412 c 4,12,13
 1106 1363 1106 1363 1106 1282 c 4,0,1
928 1263 m 4,14,15
 928 1329 928 1329 861 1329 c 4,16,17
 811 1329 811 1329 783 1295 c 4,18,19
 754 1260 754 1260 754 1210 c 4,20,21
 754 1145 754 1145 824 1145 c 4,22,23
 878 1145 878 1145 903 1177 c 132,-1,24
 928 1209 928 1209 928 1263 c 4,14,15
1204 942 m 1,25,-1
 952 0 l 1,26,-1
 481 0 l 2,27,28
 350 0 350 0 278 67 c 0,29,30
 207 133 207 133 207 252 c 0,31,32
 207 320 207 320 225 389 c 2,33,-1
 375 942 l 1,34,-1
 651 942 l 1,35,-1
 500 369 l 2,36,37
 489 327 489 327 489 303 c 0,38,39
 489 225 489 225 594 225 c 2,40,-1
 735 225 l 1,41,-1
 928 942 l 1,42,-1
 1204 942 l 1,25,-1
EndSplineSet
Validated: 1
EndChar

StartChar: Ncaron
Encoding: 327 327 243
Width: 1249
Flags: W
LayerCount: 2
Fore
SplineSet
1391 1555 m 5,0,-1
 1328 1320 l 5,1,-1
 949 1207 l 5,2,-1
 595 1340 l 5,3,-1
 654 1555 l 5,4,-1
 976 1453 l 5,5,-1
 1391 1555 l 5,0,-1
1427 1126 m 1,6,-1
 1126 0 l 1,7,-1
 850 0 l 1,8,-1
 588 705 l 1,9,-1
 399 0 l 1,10,-1
 123 0 l 1,11,-1
 424 1126 l 1,12,-1
 700 1126 l 1,13,-1
 969 442 l 1,14,-1
 1151 1126 l 1,15,-1
 1427 1126 l 1,6,-1
EndSplineSet
Validated: 1
EndChar

StartChar: ncaron
Encoding: 328 328 244
Width: 1075
Flags: W
LayerCount: 2
Fore
SplineSet
1200 1393 m 5,0,-1
 1137 1157 l 5,1,-1
 758 1044 l 5,2,-1
 403 1178 l 5,3,-1
 463 1393 l 5,4,-1
 784 1290 l 5,5,-1
 1200 1393 l 5,0,-1
1120 690 m 0,6,7
 1120 622 1120 622 1102 553 c 2,8,-1
 952 0 l 1,9,-1
 676 0 l 1,10,-1
 827 563 l 2,11,12
 838 605 838 605 838 633 c 0,13,14
 838 717 838 717 733 717 c 2,15,-1
 592 717 l 1,16,-1
 399 0 l 1,17,-1
 123 0 l 1,18,-1
 375 942 l 1,19,-1
 846 942 l 2,20,21
 980 942 980 942 1050 876 c 256,22,23
 1120 810 1120 810 1120 690 c 0,6,7
EndSplineSet
Validated: 1
EndChar
